<svg xmlns="http://www.w3.org/2000/svg" viewBox="0 0 737.01 566.93"><g id="bf13927e-3c60-4022-ab3e-ee0659731e03" data-name="Layer 7"><rect width="737.01" height="566.93" fill="#a84492"/><ellipse cx="342.22" cy="428.59" rx="244.09" ry="123.57" transform="translate(-28.68 24.56) rotate(-3.95)" fill="#f3cfe4"/></g><g id="b094b443-a0f5-4ac4-860c-3691b66f94de" data-name="Layer 2"><path d="M577,114.85V345.52a14.47,14.47,0,0,1-18.18,14l-146.64-39c-3.58,6.66-5.62,12.72-3.66,17.21,4.45,7,16.93,2.16,23.48,7.83,3.33,3.53,2.93,9.14,0,16.14-25.15,4.86-52.44-.33-81.65-14.58-7.15-9.33-4-13.73,0-17.73,8.49-5,20.63,4.43,27.41,0,3.4-2.36,2.78-8.27,1-15.13l-168-51.1a14.59,14.59,0,0,1-10.33-14V44.43A14.75,14.75,0,0,1,218.11,30l347.29,70.7A14.47,14.47,0,0,1,577,114.85Z" fill="#515151"/><polygon points="559.05 117.63 559.05 344.64 547.6 341.48 515.02 332.49 445.82 313.41 408.7 303.18 339.5 284.09 318.01 278.17 248.81 259.08 224.32 252.33 219 250.86 219 49.74 559.05 117.63" fill="#d8d8d8"/><line x1="359.9" y1="100.85" x2="434.57" y2="115.91" fill="#515151" stroke="#515151" stroke-miterlimit="10" stroke-width="4"/></g><g id="e9ec0887-3588-4751-a1dd-9da3d19b9bd9" data-name="Layer 3"><polygon points="338.1 361.71 298.46 400.83 399.64 426.38 440.85 384.14 338.1 361.71" fill="#b3b2b2" stroke="#848484" stroke-linecap="round" stroke-linejoin="round" stroke-width="0.75"/><polygon points="400.16 455.03 399.64 426.38 440.85 384.14 440.85 418.56 400.16 455.03" fill="#b3b2b2" stroke="#848484" stroke-linecap="round" stroke-linejoin="round" stroke-width="0.75"/><polygon points="302.54 432.73 400.16 455.03 399.64 426.38 298.46 400.83 302.54 432.73" fill="#b3b2b2" stroke="#848484" stroke-linecap="round" stroke-linejoin="round" stroke-width="0.75"/><path d="M300.5,416.72c14.33,15.15,53.05,27.19,99.66,38.22l-97.62-22.3Z" fill="#848484"/><path d="M440.85,405.09a502.31,502.31,0,0,1-40.69,49.85l40.69-36.47Z" fill="#848484"/></g><g id="e7fd828e-505b-48b1-85c0-e87fdfc65e68" data-name="Layer 9"><polygon points="348.72 83.02 348.72 114.62 445.75 136.6 445.75 102.38 348.72 83.02" fill="#969696"/><polygon points="359.9 89.75 359.9 114.06 434.57 130.98 434.57 104.65 359.9 89.75" fill="#fff"/><polygon points="224.6 94.17 547.87 167.72 547.87 239.72 224.6 153.43 224.6 94.17" fill="#969696"/><polygon points="547.6 249.83 547.6 341.48 515.02 332.49 445.82 313.41 408.7 303.18 339.5 284.09 318.01 278.17 248.81 259.08 224.32 252.33 224.32 162.28 547.6 249.83" fill="#969696"/><path d="M384.54,102.19l-.86,1.56-.71-.13,2.8-5,.82.16.81,5.63-.73-.14-.25-1.77Zm1.84-.21-.23-1.62c0-.37-.07-.7-.09-1h0c-.14.3-.29.6-.45.91l-.81,1.43Z" fill="#1d1d1b"/><path d="M388.62,102c.09-.49.15-.88.2-1.25l.62.12-.09.66h0a1.51,1.51,0,0,1,1.49-.48,1.74,1.74,0,0,1,1.24,2.23A1.82,1.82,0,0,1,390,105a1.38,1.38,0,0,1-1.06-.82h0l-.39,2.07-.69-.13Zm.49,1.14a1.46,1.46,0,0,0,0,.29,1.08,1.08,0,0,0,.88,1c.73.14,1.27-.37,1.44-1.25s-.14-1.49-.87-1.62a1.12,1.12,0,0,0-1.21.66,1.69,1.69,0,0,0-.1.27Z" fill="#1d1d1b"/><path d="M393.09,102.87c.09-.49.15-.88.2-1.25l.63.12-.1.66h0a1.51,1.51,0,0,1,1.49-.48,1.76,1.76,0,0,1,1.25,2.24,1.83,1.83,0,0,1-2.12,1.71,1.35,1.35,0,0,1-1.06-.81h0l-.39,2.07-.68-.13Zm.49,1.14c0,.11,0,.2,0,.29a1.1,1.1,0,0,0,.89,1c.73.14,1.26-.38,1.43-1.25s-.14-1.49-.87-1.63a1.12,1.12,0,0,0-1.2.66,1.25,1.25,0,0,0-.1.27Z" fill="#1d1d1b"/><path d="M399.65,106.76l-.73-5.62.74.14L400,104c.1.76.17,1.44.2,2.09h0c.27-.58.61-1.21,1-1.85l1.39-2.45.73.13-2.89,4.94Z" fill="#1d1d1b"/><path d="M402.73,107.34l.71-3.8.69.13-.71,3.8Zm1.69-4.72a.42.42,0,0,1-.52.34.42.42,0,0,1-.34-.51.44.44,0,1,1,.86.17Z" fill="#1d1d1b"/><path d="M405.29,106a1.23,1.23,0,0,0,1,1.56,2.45,2.45,0,0,0,1.09,0l0,.52a3.28,3.28,0,0,1-1.31,0,1.8,1.8,0,0,1-1.51-2.27,1.88,1.88,0,0,1,2.17-1.72,1.64,1.64,0,0,1,1.23,2.09c0,.14-.06.25-.08.32Zm2.12-.12a1,1,0,0,0-.75-1.3,1.16,1.16,0,0,0-1.27.92Z" fill="#1d1d1b"/><path d="M409.5,104.68l.13,2q.06.66.06,1.26h0c.16-.37.37-.76.57-1.14l1-1.83.59.11.23,2c.05.48.09.9.1,1.3h0a11.74,11.74,0,0,1,.53-1.18l.9-1.81.68.13-1.94,3.57-.63-.12-.24-1.92c-.05-.45-.09-.85-.1-1.32h0a11,11,0,0,1-.58,1.19l-.95,1.69-.63-.11-.43-4Z" fill="#1d1d1b"/><line x1="359.94" y1="102.19" x2="434.57" y2="117.91" fill="none" stroke="#515151" stroke-miterlimit="10" stroke-width="0.5"/><polygon points="276.52 130.98 276.2 149.95 334.24 164.11 334.58 143.57 276.52 130.98" fill="#fff"/><path d="M296.12,138.14l-.85,4.12-.53-.11.85-4.12Z" fill="#1d1d1b"/><path d="M296.69,140.3c.06-.3.1-.56.14-.8l.47.09-.07.5h0a1.13,1.13,0,0,1,1.1-.35c.41.08,1,.46.78,1.47l-.36,1.77-.54-.11.35-1.71c.1-.48,0-.91-.5-1a.78.78,0,0,0-.84.4.75.75,0,0,0-.08.24l-.37,1.78-.54-.11Z" fill="#1d1d1b"/><path d="M301,139.48l-.17.85.77.16-.09.41-.77-.16-.33,1.59c-.07.37,0,.6.29.66a1.44,1.44,0,0,0,.32,0l-.06.41a1.47,1.47,0,0,1-.49,0,.72.72,0,0,1-.53-.35,1.06,1.06,0,0,1-.06-.81l.34-1.61-.46-.1.08-.41.46.1.15-.71Z" fill="#1d1d1b"/><path d="M302.18,142.24a1,1,0,0,0,.8,1.24,1.86,1.86,0,0,0,.85,0l0,.41a2.75,2.75,0,0,1-1,0,1.4,1.4,0,0,1-1.14-1.79,1.45,1.45,0,0,1,1.71-1.31,1.28,1.28,0,0,1,.94,1.64,1.35,1.35,0,0,1-.07.25Zm1.66-.06a.79.79,0,0,0-.57-1,.91.91,0,0,0-1,.71Z" fill="#1d1d1b"/><path d="M305.08,142.16c.07-.35.13-.65.16-.93l.47.09-.1.59h0a.91.91,0,0,1,.95-.48l.15,0-.1.51-.18-.05a.77.77,0,0,0-.87.54.84.84,0,0,0-.07.24l-.33,1.58-.53-.11Z" fill="#1d1d1b"/><path d="M306.9,144.65l.52-2.55L307,142l.08-.41.42.08,0-.14a1.46,1.46,0,0,1,.56-1,1.08,1.08,0,0,1,.78-.13,1.42,1.42,0,0,1,.44.18l-.16.4a.87.87,0,0,0-.33-.13c-.46-.1-.66.28-.75.73l0,.16.71.15-.08.41-.72-.15-.52,2.55Z" fill="#1d1d1b"/><path d="M310.27,145.34l0-.38h0a1.1,1.1,0,0,1-1,.25.85.85,0,0,1-.73-1c.14-.72.86-1,2-.74v-.06a.62.62,0,0,0-.53-.82,1.47,1.47,0,0,0-.81.06l-.05-.38a1.81,1.81,0,0,1,1-.06,1.07,1.07,0,0,1,.88,1.44l-.23,1.11a5.16,5.16,0,0,0-.1.72Zm.23-1.52c-.59-.13-1.27-.17-1.39.41a.49.49,0,0,0,.4.62.76.76,0,0,0,.81-.35.51.51,0,0,0,.07-.17Z" fill="#1d1d1b"/><path d="M313.7,145.94a2,2,0,0,1-.88,0,1.43,1.43,0,0,1-1.16-1.81,1.53,1.53,0,0,1,1.91-1.24,1.77,1.77,0,0,1,.71.3l-.2.4a1.35,1.35,0,0,0-.6-.27,1.14,1.14,0,0,0-.47,2.22,1.71,1.71,0,0,0,.69,0Z" fill="#1d1d1b"/><path d="M314.86,144.85a1,1,0,0,0,.8,1.24,1.86,1.86,0,0,0,.85,0l0,.41a2.75,2.75,0,0,1-1,0,1.4,1.4,0,0,1-1.14-1.79,1.45,1.45,0,0,1,1.71-1.31A1.27,1.27,0,0,1,317,145a1.64,1.64,0,0,1-.07.25Zm1.66-.06a.8.8,0,0,0-.57-1,.92.92,0,0,0-1,.71Z" fill="#1d1d1b"/><line x1="276.39" y1="140.69" x2="334.41" y2="153.92" fill="none" stroke="#515151" stroke-miterlimit="10" stroke-width="0.5"/><polygon points="353.84 149.13 353.5 169.75 416.59 185.15 416.96 162.82 353.84 149.13" fill="#fff"/><path d="M375.14,156.91l-.92,4.48-.58-.12.92-4.48Z" fill="#1d1d1b"/><path d="M375.76,159.26a8.55,8.55,0,0,0,.15-.88l.52.11-.08.54h0a1.2,1.2,0,0,1,1.18-.38c.45.09,1.09.5.86,1.6l-.4,1.92-.58-.12.38-1.85c.11-.52,0-1-.55-1.11a.85.85,0,0,0-.91.44,1,1,0,0,0-.09.26l-.4,1.94-.58-.12Z" fill="#1d1d1b"/><path d="M380.5,158.37l-.2.92.84.17-.09.45-.84-.17-.35,1.73c-.09.4,0,.65.31.72a1.65,1.65,0,0,0,.34,0l-.06.44a1.44,1.44,0,0,1-.53,0,.81.81,0,0,1-.59-.37,1.23,1.23,0,0,1-.05-.89l.36-1.75-.5-.11.09-.44.5.1.16-.77Z" fill="#1d1d1b"/><path d="M381.73,161.37a1.06,1.06,0,0,0,.88,1.35,2.18,2.18,0,0,0,.92,0l0,.44a2.63,2.63,0,0,1-1.12,0,1.53,1.53,0,0,1-1.25-2,1.6,1.6,0,0,1,1.87-1.42,1.4,1.4,0,0,1,1,1.79c0,.12-.06.21-.08.27Zm1.8-.06a.84.84,0,0,0-.61-1.12,1,1,0,0,0-1.1.76Z" fill="#1d1d1b"/><path d="M384.88,161.28c.08-.38.14-.71.18-1l.51.1-.11.64h0a1,1,0,0,1,1-.53.76.76,0,0,1,.16.06l-.11.55-.2-.06a.85.85,0,0,0-.94.59,1.73,1.73,0,0,0-.08.27l-.35,1.71-.58-.12Z" fill="#1d1d1b"/><path d="M386.86,164l.57-2.77-.45-.09.09-.45.45.1,0-.16a1.59,1.59,0,0,1,.61-1.05,1.14,1.14,0,0,1,.84-.13,1.29,1.29,0,0,1,.48.19l-.17.44a.81.81,0,0,0-.36-.15c-.5-.1-.71.31-.82.8l0,.17.78.16-.09.45-.78-.16-.57,2.77Z" fill="#1d1d1b"/><path d="M390.52,164.75l0-.42h0a1.22,1.22,0,0,1-1.08.27.93.93,0,0,1-.8-1.12c.16-.78.94-1.06,2.18-.8l0-.07a.68.68,0,0,0-.58-.89,1.66,1.66,0,0,0-.89.06l-.05-.41a2,2,0,0,1,1.11-.07,1.17,1.17,0,0,1,1,1.57l-.25,1.21a4.71,4.71,0,0,0-.11.78Zm.25-1.66c-.63-.15-1.38-.18-1.51.44a.53.53,0,0,0,.44.67.81.81,0,0,0,.89-.37.67.67,0,0,0,.07-.18Z" fill="#1d1d1b"/><path d="M394.26,165.39a2.13,2.13,0,0,1-1,0,1.57,1.57,0,0,1-1.27-2,1.69,1.69,0,0,1,2.09-1.36,1.85,1.85,0,0,1,.77.34l-.22.42a1.36,1.36,0,0,0-.65-.29,1.24,1.24,0,0,0-.52,2.42,1.79,1.79,0,0,0,.75,0Z" fill="#1d1d1b"/><path d="M395.52,164.21a1,1,0,0,0,.87,1.34,2.05,2.05,0,0,0,.92,0l0,.44a2.76,2.76,0,0,1-1.11,0,1.53,1.53,0,0,1-1.25-2,1.59,1.59,0,0,1,1.86-1.42,1.38,1.38,0,0,1,1,1.79c0,.12-.06.21-.07.26Zm1.8-.07a.85.85,0,0,0-.62-1.11,1,1,0,0,0-1.09.76Z" fill="#1d1d1b"/><line x1="353.7" y1="159.68" x2="416.77" y2="174.07" fill="none" stroke="#515151" stroke-miterlimit="10" stroke-width="0.5"/><polygon points="343.35 210.86 342.13 233.77 404.51 250.98 405.83 226.25 343.35 210.86" fill="#fff"/><polygon points="318.01 278.17 248.81 259.08 248.74 229.98 317.93 249.99 318.01 278.17" fill="#d8d8d8"/><polygon points="408.7 303.18 339.5 284.09 339.42 252.72 408.62 270.74 408.7 303.18" fill="#d8d8d8"/><polygon points="515.02 332.49 445.82 313.41 445.74 260.62 514.94 280.57 515.02 332.49" fill="#d8d8d8"/><path d="M363.67,219l.57.15-.53,2.28h0c.16-.16.31-.29.46-.42l1.77-1.41.71.19-2.07,1.58,1.09,3.18-.68-.18-.91-2.71-.55.4-.42,1.81-.57-.16Z" fill="#1d1d1b"/><path d="M367.34,219.68l.58.15-1.17,5-.58-.15Z" fill="#1d1d1b"/><path d="M369.49,225.54l.05-.44h0a1.19,1.19,0,0,1-1.09.24,1,1,0,0,1-.74-1.23c.19-.82,1-1.09,2.21-.76v-.06a.72.72,0,0,0-.54-1,1.46,1.46,0,0,0-.88,0l0-.44a2,2,0,0,1,1.12,0,1.25,1.25,0,0,1,.88,1.71l-.3,1.27a6,6,0,0,0-.14.83Zm.32-1.75c-.63-.19-1.37-.26-1.53.4a.57.57,0,0,0,.41.74.79.79,0,0,0,.9-.37.48.48,0,0,0,.08-.18Z" fill="#1d1d1b"/><path d="M371,225.26a1.42,1.42,0,0,0,.7.45c.42.12.67-.06.74-.34s-.06-.5-.45-.78-.71-.78-.61-1.18a1,1,0,0,1,1.33-.71,1.64,1.64,0,0,1,.73.42l-.25.41a1.32,1.32,0,0,0-.6-.37.48.48,0,0,0-.64.32c-.07.28.09.46.47.74a1.14,1.14,0,0,1,.59,1.25c-.14.59-.67.9-1.43.7a1.89,1.89,0,0,1-.84-.47Z" fill="#1d1d1b"/><path d="M373.57,226a1.67,1.67,0,0,0,.71.45c.42.11.67-.06.74-.34s-.06-.5-.45-.78-.71-.78-.61-1.19a1,1,0,0,1,1.33-.7,1.55,1.55,0,0,1,.73.42l-.25.41a1.24,1.24,0,0,0-.6-.37.48.48,0,0,0-.65.32c-.06.28.1.46.47.73s.72.75.6,1.25-.67.9-1.43.7a1.8,1.8,0,0,1-.84-.47Z" fill="#1d1d1b"/><path d="M376.81,225.81a1.11,1.11,0,0,0,.81,1.46,1.78,1.78,0,0,0,.92.06v.47a2.34,2.34,0,0,1-1.11-.07,1.63,1.63,0,0,1-1.16-2.13c.24-1,1-1.68,1.92-1.43a1.5,1.5,0,0,1,.94,2,2.35,2.35,0,0,1-.09.28Zm1.8,0a.92.92,0,0,0-.57-1.22c-.58-.16-1,.35-1.12.77Z" fill="#1d1d1b"/><path d="M380,225.71c.08-.35.14-.64.19-.93l.51.14-.1.57h0a1.15,1.15,0,0,1,1.2-.35c.44.11,1.06.58.78,1.74l-.47,2-.58-.16.46-1.95c.13-.55,0-1.06-.5-1.2a.83.83,0,0,0-.93.42.91.91,0,0,0-.1.28l-.48,2-.58-.16Z" fill="#1d1d1b"/><line x1="342.76" y1="221.08" x2="405.17" y2="239.21" fill="none" stroke="#515151" stroke-miterlimit="10" stroke-width="0.5"/><polygon points="252.22 194.93 251.82 216.87 314.88 233.75 315.29 207.62 252.22 194.93" fill="#fff"/><path d="M272.89,201.88l.57.13-.45,2.3h0l.45-.43,1.72-1.47.72.16-2,1.65,1.21,3.14-.68-.15-1-2.68-.53.43-.35,1.81-.58-.13Z" fill="#1d1d1b"/><path d="M276.58,202.45l.59.14-1,5-.58-.13Z" fill="#1d1d1b"/><path d="M278.94,208.23l0-.44h0a1.16,1.16,0,0,1-1.08.29,1,1,0,0,1-.79-1.2c.16-.83.94-1.13,2.18-.84V206a.72.72,0,0,0-.57-1,1.57,1.57,0,0,0-.89.07l-.05-.44a1.89,1.89,0,0,1,1.12-.07,1.25,1.25,0,0,1,.94,1.68l-.25,1.28a5.59,5.59,0,0,0-.11.83Zm.26-1.76c-.64-.16-1.38-.21-1.51.46a.56.56,0,0,0,.43.72.8.8,0,0,0,.89-.4.73.73,0,0,0,.07-.19Z" fill="#1d1d1b"/><path d="M280.41,207.9a1.5,1.5,0,0,0,.72.42c.43.1.67-.08.73-.37s-.08-.49-.48-.76-.74-.75-.66-1.16a1,1,0,0,1,1.31-.75,1.57,1.57,0,0,1,.75.39l-.24.42a1.23,1.23,0,0,0-.62-.35.48.48,0,0,0-.63.34c-.05.29.12.46.5.72s.74.72.64,1.23-.64.92-1.4.75a1.89,1.89,0,0,1-.86-.44Z" fill="#1d1d1b"/><path d="M283,208.5a1.58,1.58,0,0,0,.72.42c.43.1.67-.09.73-.37s-.08-.5-.48-.76-.74-.75-.66-1.16a1,1,0,0,1,1.31-.76,1.66,1.66,0,0,1,.75.4l-.24.41a1.31,1.31,0,0,0-.62-.34.47.47,0,0,0-.62.34c-.06.28.11.46.49.72s.74.71.64,1.22a1,1,0,0,1-1.4.76,1.89,1.89,0,0,1-.86-.44Z" fill="#1d1d1b"/><path d="M286.27,208.22a1.11,1.11,0,0,0,.86,1.44,2,2,0,0,0,.93,0v.47a2.51,2.51,0,0,1-1.11,0,1.63,1.63,0,0,1-1.24-2.08c.2-1,.93-1.71,1.87-1.5a1.5,1.5,0,0,1,1,1.91c0,.13-.06.22-.08.29Zm1.8-.05a.93.93,0,0,0-.62-1.2c-.59-.13-1,.39-1.09.81Z" fill="#1d1d1b"/><path d="M289.44,208c.07-.35.12-.65.16-.93l.52.11-.08.58h0a1.17,1.17,0,0,1,1.19-.4c.45.1,1.08.54.85,1.71l-.4,2-.59-.13.39-2c.11-.55,0-1.05-.54-1.18a.83.83,0,0,0-.91.46.91.91,0,0,0-.1.28l-.4,2.06-.59-.14Z" fill="#1d1d1b"/><line x1="252.07" y1="204.78" x2="315.11" y2="220.59" fill="none" stroke="#515151" stroke-miterlimit="10" stroke-width="0.5"/><polygon points="432.3 165.71 431.92 188.25 500.86 205.07 501.26 180.67 432.3 165.71" fill="#fff"/><path d="M455.57,174.22l-1,4.89-.63-.13,1-4.89Z" fill="#1d1d1b"/><path d="M456.24,176.79c.07-.37.13-.67.17-1l.56.11-.08.59h0a1.33,1.33,0,0,1,1.3-.43c.49.1,1.18.55.94,1.76l-.44,2.1-.63-.14.41-2c.12-.57,0-1.08-.6-1.21a.93.93,0,0,0-1,.48,1,1,0,0,0-.1.29l-.44,2.11-.64-.13Z" fill="#1d1d1b"/><path d="M461.42,175.81l-.21,1,.91.18-.1.49-.91-.19-.39,1.9c-.09.43,0,.71.34.78a1.39,1.39,0,0,0,.38,0l-.07.49a1.78,1.78,0,0,1-.59,0,.89.89,0,0,1-.63-.41,1.28,1.28,0,0,1-.06-1l.39-1.92-.54-.11.1-.48.54.11.18-.84Z" fill="#1d1d1b"/><path d="M462.77,179.09a1.14,1.14,0,0,0,1,1.47,2.47,2.47,0,0,0,1,0l0,.48a3,3,0,0,1-1.22,0,1.66,1.66,0,0,1-1.36-2.12,1.74,1.74,0,0,1,2-1.56,1.52,1.52,0,0,1,1.11,2c0,.13-.06.22-.08.29Zm2-.07a.93.93,0,0,0-.68-1.22,1.07,1.07,0,0,0-1.19.83Z" fill="#1d1d1b"/><path d="M466.21,179c.08-.42.15-.77.2-1.1l.56.11-.12.7h0a1.07,1.07,0,0,1,1.13-.57.67.67,0,0,1,.17.06l-.12.6-.21-.06a.92.92,0,0,0-1,.64,2.46,2.46,0,0,0-.09.29l-.39,1.88-.63-.13Z" fill="#1d1d1b"/><path d="M468.37,182l.62-3-.49-.11.1-.48.49.1,0-.17a1.67,1.67,0,0,1,.66-1.14,1.21,1.21,0,0,1,.92-.15,1.39,1.39,0,0,1,.53.21l-.19.48a1,1,0,0,0-.39-.17c-.55-.11-.79.34-.9.88l0,.19.86.17-.1.49-.86-.17-.62,3Z" fill="#1d1d1b"/><path d="M472.37,182.78l0-.46h0a1.3,1.3,0,0,1-1.18.3,1,1,0,0,1-.87-1.23c.18-.85,1-1.16,2.38-.87l0-.07a.74.74,0,0,0-.63-1,1.75,1.75,0,0,0-1,.07l-.06-.45a2.15,2.15,0,0,1,1.22-.07,1.27,1.27,0,0,1,1,1.71l-.27,1.31a6.08,6.08,0,0,0-.12.86Zm.28-1.81c-.7-.16-1.51-.2-1.65.48a.57.57,0,0,0,.47.73.87.87,0,0,0,1-.41.5.5,0,0,0,.08-.2Z" fill="#1d1d1b"/><path d="M476.46,183.48a2.24,2.24,0,0,1-1,0,1.7,1.7,0,0,1-1.38-2.16,1.81,1.81,0,0,1,2.27-1.47,2.13,2.13,0,0,1,.85.36l-.25.46a1.68,1.68,0,0,0-.71-.32,1.24,1.24,0,0,0-1.51,1.08,1.22,1.22,0,0,0,.95,1.56,1.82,1.82,0,0,0,.82,0Z" fill="#1d1d1b"/><path d="M477.83,182.19a1.15,1.15,0,0,0,.95,1.47,2.47,2.47,0,0,0,1,0l0,.48a3.12,3.12,0,0,1-1.22,0,1.67,1.67,0,0,1-1.36-2.13,1.75,1.75,0,0,1,2-1.56,1.52,1.52,0,0,1,1.11,2,1.58,1.58,0,0,1-.08.29Zm2-.07a.93.93,0,0,0-.68-1.22,1.07,1.07,0,0,0-1.19.83Z" fill="#1d1d1b"/><line x1="432.14" y1="177.25" x2="501.06" y2="192.97" fill="none" stroke="#515151" stroke-miterlimit="10" stroke-width="0.5"/><polyline points="367.87 207.32 370.68 216.64 378.08 210.86" fill="none" stroke="#575656" stroke-linecap="round" stroke-linejoin="round"/><line x1="379.8" y1="176.9" x2="370.68" y2="216.64" fill="none" stroke="#575656" stroke-linecap="round" stroke-miterlimit="10"/><polyline points="388.69 149.11 390.91 156.46 396.75 151.9" fill="none" stroke="#575656" stroke-linecap="round" stroke-linejoin="round"/><line x1="398.1" y1="125.09" x2="390.91" y2="156.46" fill="none" stroke="#575656" stroke-linecap="round" stroke-miterlimit="10"/><polyline points="436.05 266.71 445.74 265.75 441.5 257.37" fill="none" stroke="#575656" stroke-linecap="round" stroke-linejoin="round"/><line x1="405.51" y1="247.14" x2="445.74" y2="265.75" fill="none" stroke="#575656" stroke-linecap="round" stroke-miterlimit="10"/><polyline points="410.64 217.8 408.7 227.34 417.96 225.75" fill="none" stroke="#575656" stroke-linecap="round" stroke-linejoin="round"/><line x1="438.35" y1="194.38" x2="408.7" y2="227.34" fill="none" stroke="#575656" stroke-linecap="round" stroke-miterlimit="10"/><polyline points="285.3 192.68 288.49 201.88 295.65 195.79" fill="none" stroke="#575656" stroke-linecap="round" stroke-linejoin="round"/><line x1="296.94" y1="155.75" x2="288.49" y2="201.88" fill="none" stroke="#575656" stroke-linecap="round" stroke-miterlimit="10"/><line x1="394.41" y1="125.92" x2="400.06" y2="133.35" fill="none" stroke="#575656" stroke-linecap="round" stroke-miterlimit="10"/><line x1="401.38" y1="127.5" x2="393.09" y2="131.78" fill="none" stroke="#575656" stroke-linecap="round" stroke-miterlimit="10"/><line x1="376.15" y1="177.04" x2="381.8" y2="184.47" fill="none" stroke="#575656" stroke-linecap="round" stroke-miterlimit="10"/><line x1="432.92" y1="194.19" x2="435.73" y2="203.09" fill="none" stroke="#575656" stroke-linecap="round" stroke-miterlimit="10"/><line x1="383.13" y1="178.61" x2="374.83" y2="182.89" fill="none" stroke="#575656" stroke-linecap="round" stroke-miterlimit="10"/><line x1="438.99" y1="198.55" x2="429.66" y2="198.74" fill="none" stroke="#575656" stroke-linecap="round" stroke-miterlimit="10"/><line x1="292.83" y1="157.46" x2="298.47" y2="164.89" fill="none" stroke="#575656" stroke-linecap="round" stroke-miterlimit="10"/><line x1="299.8" y1="159.04" x2="291.5" y2="163.31" fill="none" stroke="#575656" stroke-linecap="round" stroke-miterlimit="10"/></g><g id="b828cbbe-9384-4e8b-8a71-8f5ff9c7bf90" data-name="Layer 4"><path d="M331.14,473.86c-.6,2.51-2.55,5.08-5.21,7.66-1.71,1.89-5.54,1.74-8.87,4.87-3.15,1-4.86.57-5.39-1.14a5,5,0,0,1-.17-1.81l.35-6.09-9.57-27.48-1.65,15.62-1.13,10.82c-1.35,6.77-3.72,12.43-8.17,15.82-5.65,5.06-12.81,8.55-21,10.95-6.25-.25-11.14,1.56-21.22-5.82l.19-.44,18.91-46.75,2.12-5.23c.28-3.51,1.25-6,3.12-7.13a7.32,7.32,0,0,1,9,1,14.67,14.67,0,0,1,3.65,8.69c1.39,3.92,2.78,6.49,4.18,6.09.59-3.88,4.71-13.22,8.17-21.56,2.81-4.63,5.33-3.69,7.65.86,4.77,10.29,6,13.57,6.26,15.13.41,2.24.67,8.67.87,16.17.22,4.82,1.55,8.39,3.29,12.7,1.84.75,5.83-2.7,9.22-4.7,3-1.73,4.54-1.61,5.13-.18A4.67,4.67,0,0,1,331.14,473.86Z" fill="#3f6ab1"/><path d="M331.14,473.86c-.6,2.51-2.55,5.08-5.21,7.66-1.71,1.89-5.54,1.74-8.87,4.87-3.15,1-4.86.57-5.39-1.14a5,5,0,0,1-.17-1.81l.35-6.09c2.16,1.22,3.81,1.25,4.68-.52,1.84.75,5.83-2.7,9.22-4.7,3-1.73,4.54-1.61,5.13-.18A4.67,4.67,0,0,1,331.14,473.86Z" fill="#855126"/><path d="M290.29,453.53c-1.14,5.91-4.69,10.13-4.48,12.49l-6.05,2.37-11.58-18.32,2.12-5.23c.28-3.51,1.25-6,3.12-7.13a7.32,7.32,0,0,1,9,1,14.67,14.67,0,0,1,3.65,8.69C287.5,451.35,288.89,453.93,290.29,453.53Z" fill="#5d5454" opacity="0.6"/><path d="M300.63,465.49l-1.13,10.82c-1.35,6.77-3.72,12.43-8.17,15.82-5.65,5.06-12.81,8.55-21,10.95-6.26-.25-11.14,1.56-21.22-5.81l.18-.45,30-8.27c5-.79,11.23-1.12,12.71-3.34,2.75-2.76,4.53-6.55,5.34-11.34C298.09,468.86,299.37,467.23,300.63,465.49Z" fill="#5d5454" opacity="0.5"/><path d="M313,404.66a2.87,2.87,0,0,1,.2,2.8l-3-.29,1.37-2.51Z" fill="#378735"/><path d="M310,406.33c7.3-.59,11.72-5.48,12.51-4.5,1.82,1.75,3.62,2.35,5.42,1.89.74-1,.37-2.13-.46-3.26a22.08,22.08,0,0,0-3.91-5.09,5.35,5.35,0,0,0-4.6,0l-4.66,1.5-7.43,2.68Z" fill="#bc865e"/><path d="M288.79,471.23c3.88,9.85,6.48,18.49-22.5,26.63-6.78,1.56-9.46-1.85-16.34,0-4.53-.87-10.47-4.15-9.39-11.47,4.69-19.33,1.24-32.34-5.56-42.77l-5.56-31.29,26.92-19.77,4.34-3.19c-.24,1.62-.42,3.19-.54,4.69a21,21,0,0,0,.7,8.27,7.44,7.44,0,0,0,5.43,5.12l43.46-9c-1.33,3.93,0,6.89,3.49,9l-39.64,23.3c-6.09,9.74,7.47,26.08,4.52,34.08,3-3.91,5.89-4.9,8.35,0C287.11,467,288,469.16,288.79,471.23Z" fill="#ffd62d"/><path d="M266.29,497.86c-6.78,1.56-9.46-1.85-16.34,0-4.53-.87-10.47-4.15-9.39-11.47,4.69-19.33,1.24-32.34-5.56-42.77l-5.56-31.29,26.92-19.77,3-.06.82,1.56c-.23,3.15-.1-2.18.7.09,1.17.32,1.08-.17-7.19,11.47-2.78,3.91-5,6-3.07,14a16.9,16.9,0,0,1-2.35,16.69c-3.61,2.3-4.47,6.5-4.16,11.47,1.29,6.31.12,11,5.86,16.56,2.61,3.29.46,8.41-2.08,13.69-4.12,6.9-2,10.76,6.64,11.48,6.31-2,12.16-2.81,17.35-1.7,7.87,2.43,11.71-.17,13.69-5.09a17.19,17.19,0,0,1,3.24-11.5C292.67,481.08,295.27,489.72,266.29,497.86Z" fill="#b39723"/><path d="M331.14,473.87c-.6,2.5-2.55,5.06-5.22,7.65-1.7,1.9-5.52,1.74-8.86,4.87-3.15,1-4.87.57-5.39-1.13A3.23,3.23,0,0,1,313,486c.76.58,2.14.07,2.94,0,.93-.49,1.21-1.3,1.7-1.56a14.4,14.4,0,0,1,6.32-3c1.3-.19,2.31-1.93,3.52-2.84a7.66,7.66,0,0,0,2.51-3.36l.9-3.29A4.87,4.87,0,0,1,331.14,473.87Z" fill="#5d5454" opacity="0.5"/></g><g id="b1a6e7e2-4896-457f-b53a-caa66e4b220e" data-name="Layer 6"><polyline points="355.61 379.99 331.62 386.27 348.83 397.98" fill="none" stroke="#2b2b2b" stroke-linecap="round" stroke-linejoin="round" stroke-width="3"/><polyline points="390.04 388.83 400.14 404.48 378.24 408.48" fill="none" stroke="#2b2b2b" stroke-linecap="round" stroke-linejoin="round" stroke-width="3"/><line x1="385.54" y1="382.83" x2="355.15" y2="402.77" fill="none" stroke="#2b2b2b" stroke-linecap="round" stroke-linejoin="round" stroke-width="3"/><path d="M432,361.71c-25.15,4.86-52.44-.33-81.65-14.58-7.15-9.33-4-13.73,0-17.73,8.49-5,20.63,4.43,27.41,0,3.4-2.36,2.78-8.27,1-15.13l33.38,6.26c-3.58,6.66-5.62,12.72-3.66,17.21,4.45,7,16.93,2.16,23.48,7.83C435.31,349.1,434.91,354.71,432,361.71Z" fill="#2b2b2b" opacity="0.5"/></g><g id="a75bf354-7349-4cc4-abb3-df088745c19e" data-name="Layer 5"><path d="M282.37,375.73c.53-1.14-5.56-3.39-5.82-5.39-.83-2.7.43-10.41-1.65-14.26L254,365.9,258.82,390l5.37,3.12c2.27-2,7.18-2.8,7.58-5.46.5-4.12,1.78-7.87,3.74-8.26C280,378.39,282,377.15,282.37,375.73Z" fill="#bc865e"/><path d="M277.33,355.73c.12,3.66-4.82,4.43-7.3,7.75-.39,3.6,10.31,6.86-.27,19.11-2.76,7.08-5.46,14.2-16.94,16.69-4,2.26-8.7,3.49-9.51,10a21.41,21.41,0,0,0,.12,5.42c2.52,10.28,8.06,16.56-7.37,28.94-6.17,2.59-15.28,3.55-20.53,7.83-5.88,4.95-17.64,3.22-19.83-7.31.72-9.76-2.49-15.78-7-20.86-8.08-12.65-.78-15.39-2.87-25.29.31-11.71,7.07-14,17.07-11.59l.41.1c10.61,2.8,17.68-4.16,23.21-15.38-1.3-16.3,18.65-17.75,22.43-17.47,6.26-5.09,16-.53,17.21-2.35C274.24,347.78,278.17,349,277.33,355.73Z" fill="#4bae40"/><path d="M236.06,443.62c-6.17,2.59-15.28,3.55-20.53,7.83-5.88,4.95-17.64,3.22-19.83-7.31.72-9.76-2.49-15.78-7-20.86-8.08-12.65-.78-15.39-2.87-25.29.31-11.71,7.07-14,17.07-11.59-4.62,1.38-7.16,3.68-6.28,7.5,5.21,4.87,4.95,13.36,3.82,22.42-1.77,5.82,0,10.84,7.3,14.61,3.13,2,8.75,2.55,10.08,5.69,3.87,6.25,14.61-6.39,20.7-6.21,6.46,1.53,4.29-7,2.08-15.65-.58-2.88.77-4.41,2.75-5.5a21.41,21.41,0,0,0,.12,5.42C246,425,251.49,431.24,236.06,443.62Z" fill="#6b8441"/></g></svg>