<svg id="badfea47-68b4-417b-a4e0-c97c105ce187" data-name="FamilyTree" xmlns="http://www.w3.org/2000/svg" xmlns:xlink="http://www.w3.org/1999/xlink" viewBox="0 0 737.01 566.93"><defs><radialGradient id="b4548bc4-32fe-428d-8d39-9e0b92c64423" cx="270.11" cy="133.69" r="60.25" gradientUnits="userSpaceOnUse"><stop offset="0.28" stop-color="#b1d17d"/><stop offset="1" stop-color="#6b8441"/></radialGradient><radialGradient id="abeeb8be-d0e6-411e-ad78-456b247bf295" cx="450.02" cy="133.79" r="60.26" xlink:href="#b4548bc4-32fe-428d-8d39-9e0b92c64423"/><radialGradient id="b501e94b-9a2d-4c02-8a13-83ab285b7b64" cx="364.96" cy="284.21" r="60.26" xlink:href="#b4548bc4-32fe-428d-8d39-9e0b92c64423"/><radialGradient id="e3ecaebe-3403-4fe6-a34c-543ef65489fc" cx="168.04" cy="287.22" r="60.26" xlink:href="#b4548bc4-32fe-428d-8d39-9e0b92c64423"/><radialGradient id="a507fdda-56c7-4429-beaa-abf152cd292e" cx="193.17" cy="426.62" r="60.26" xlink:href="#b4548bc4-32fe-428d-8d39-9e0b92c64423"/><radialGradient id="f5c2ada9-a33e-46fc-8376-a13c535dfeed" cx="350.42" cy="426.62" r="60.26" xlink:href="#b4548bc4-32fe-428d-8d39-9e0b92c64423"/></defs><g id="b9973af3-1556-4341-9f96-1354c5d66835" data-name="Layer 12"><rect width="737.01" height="566.93" fill="#d18b52" opacity="0.5"/><path d="M579,537.76c-1.21,10.76-6.86,20.57-16.16,29.17H233.1c-42.48-21.13-67.88-48.37-64.86-75.28,5.47-48.67,101.84-77.8,215.25-65.07S584.41,489.09,579,537.76Z" fill="#855126"/></g><g id="b485e255-3128-44b4-811c-2776ad32e25c" data-name="Layer 11"><rect x="295.13" y="133.45" width="147.92" height="4.62"/><rect x="295.13" y="133.45" width="147.92" height="4.62" fill="#5d5454"/><rect x="358.69" y="137.1" width="4.62" height="147.92"/><rect x="358.69" y="137.1" width="4.62" height="147.92" fill="#5d5454"/><rect x="205.48" y="284.03" width="147.92" height="4.62"/><rect x="205.48" y="284.03" width="147.92" height="4.62" fill="#5d5454"/><rect x="269.04" y="287.67" width="4.62" height="67.3"/><rect x="269.04" y="287.67" width="4.62" height="67.3" fill="#5d5454"/><rect x="191.18" y="352.66" width="158.79" height="4.62"/><rect x="191.18" y="352.66" width="158.79" height="4.62" fill="#5d5454"/><rect x="346.54" y="352.66" width="4.62" height="67.3"/><rect x="346.54" y="352.66" width="4.62" height="67.3" fill="#5d5454"/><rect x="189.91" y="352.66" width="4.62" height="67.3"/><rect x="189.91" y="352.66" width="4.62" height="67.3" fill="#5d5454"/><path d="M619.57,152.61c-3.72,29.78,35.85,50.72,54.34,40.16C678.91,173.19,638.57,144.61,619.57,152.61Z" fill="#b1d17d"/><path d="M673.91,192.77,575.3,300.54l-.63.69L562,309.94l-11.9,6.17-11.18-9,1.39-11.54,4.08-12.31.47-.82,74.67-129.85C618.33,179.3,652.33,201.55,673.91,192.77Z" fill="#6b8441"/><ellipse cx="646.75" cy="172.98" rx="5.99" ry="11.2" transform="translate(173.57 646.59) rotate(-60)" fill="#d4a87f"/><ellipse cx="646.75" cy="172.98" rx="5.99" ry="11.2" transform="translate(173.57 646.59) rotate(-60)" fill="#d4a87f"/><ellipse cx="646.75" cy="172.98" rx="5.99" ry="11.2" transform="translate(173.57 646.59) rotate(-60)" fill="#d4a87f"/><ellipse cx="646.75" cy="172.98" rx="5.99" ry="11.2" transform="translate(173.57 646.59) rotate(-60)" fill="#d4a87f"/><ellipse cx="646.75" cy="172.98" rx="5.99" ry="11.2" transform="translate(173.57 646.59) rotate(-60)" fill="#855126"/><path d="M575.87,300.4l-1.2.83L562,309.94l-22,15.19-2.36,1.63L531.49,331a1.52,1.52,0,0,1-2.31-1.71l2.52-7.6.8-2.42,7.85-23.7,4.08-12.31.43-1.29c0,.16,0,.32,0,.47,1.07,11.69,10.8,18.58,22,19a29.89,29.89,0,0,0,8.39-.9Z" fill="#d4a87f"/><path d="M540,325.13l-2.35,1.62L531.49,331a1.51,1.51,0,0,1-2.31-1.71l2.52-7.59.8-2.42Z" fill="#855126"/></g><g id="ac91f9ed-80b2-4030-bb3f-f16720468973" data-name="Layer 5"><path d="M315.05,133.24c0,17.47-7.9,32.88-19.92,42a41.49,41.49,0,0,1-51-.08c-12-9.14-19.81-24.5-19.81-41.92,0-28,20.32-50.73,45.39-50.73S315.05,105.22,315.05,133.24Z" fill="url(#b4548bc4-32fe-428d-8d39-9e0b92c64423)"/><rect x="263.73" y="153.43" width="10.98" height="6.04" fill="#d18b52"/><circle cx="247.28" cy="127.36" r="6.87" fill="#d18b52"/><circle cx="289.9" cy="127.36" r="6.87" fill="#d18b52"/><circle cx="289.9" cy="127.36" r="6.87" fill="#d18b52"/><circle cx="247.28" cy="128.6" r="3.57" fill="#dac8cb"/><circle cx="247.28" cy="128.6" r="3.57" fill="#855126"/><circle cx="290.15" cy="128.6" r="3.57" fill="#dac8cb"/><circle cx="290.15" cy="128.6" r="3.57" fill="#855126"/><rect x="247.27" y="99.61" width="42.88" height="55.25" rx="17.19" fill="#d4a87f"/><path d="M290.15,127.94v9.73A17.19,17.19,0,0,1,273,154.86h-8.5a17.19,17.19,0,0,1-17.19-17.19V126.56l.11-.11c0,4.17,10.39,10.21,15.74,8.26,3.54-1.25,7.65-1.26,12.35,0,6.18.54,10.44-2.63,14.13-6.9Z" fill="#dac8cb"/><ellipse cx="256.84" cy="124.19" rx="2.93" ry="4.4" fill="#5d5455"/><ellipse cx="280.59" cy="124.19" rx="2.93" ry="4.4" fill="#5d5455"/><rect x="249.53" y="116.88" width="14.64" height="14.64" rx="3.74" fill="none" stroke="#5f7195" stroke-miterlimit="10" stroke-width="2"/><rect x="273.28" y="116.88" width="14.64" height="14.64" rx="3.74" fill="none" stroke="#5f7195" stroke-miterlimit="10" stroke-width="2"/><rect x="265.16" y="123.28" width="7.11" height="0.6" fill="none" stroke="#5f7195" stroke-miterlimit="10" stroke-width="2"/><path d="M264.46,132.4c3.05,2.65,5.82,2.41,8.36,0" fill="none" stroke="#5d5455" stroke-linecap="round" stroke-miterlimit="10"/><path d="M263.12,113.77a27.92,27.92,0,0,0,11.2,0" fill="none" stroke="#5d5455" stroke-linecap="round" stroke-miterlimit="10" stroke-width="0.5"/><path d="M259.77,109.39a49.94,49.94,0,0,0,18.26,0" fill="none" stroke="#5d5455" stroke-linecap="round" stroke-miterlimit="10" stroke-width="0.5"/><path d="M262.6,105.3a27.87,27.87,0,0,1,11.19,0" fill="none" stroke="#5d5455" stroke-linecap="round" stroke-miterlimit="10" stroke-width="0.5"/><path d="M281.58,140.35a17.84,17.84,0,0,1-2.14,3.83c-4.73,6.48-12.89,7.68-18.76,2.77a17.53,17.53,0,0,1-4.72-6.57,1.13,1.13,0,0,1,1.13-1.56,141.13,141.13,0,0,0,23.35,0A1.12,1.12,0,0,1,281.58,140.35Z" fill="#fff"/><circle cx="256.99" cy="125.56" r="2.28" fill="#2b2b2b"/><circle cx="280.46" cy="125.56" r="2.28" fill="#2b2b2b"/><path d="M279.44,144.18c-4.73,6.48-12.89,7.68-18.76,2.77A38.67,38.67,0,0,1,279.44,144.18Z" fill="#5d5456"/><path d="M295.13,171.39v3.85a41.49,41.49,0,0,1-51-.08l.16-3.69c1-6.47,5.24-11.32,13.74-14.07a44.19,44.19,0,0,1,5.74-1.42,9.7,9.7,0,0,0,4.37,1.41h0a13.91,13.91,0,0,0,6.76-1.42C286.25,157,293,162.18,295.13,171.39Z" fill="#a6bae1"/><path d="M264.62,162.15,258,157.4s3.23-1.72,5.74-1.42a9.7,9.7,0,0,0,4.37,1.41h0S264.24,159.81,264.62,162.15Z" fill="#5f7196"/><path d="M274.2,161.9l6.47-5s-3.29-1.61-5.79-1.22a9.74,9.74,0,0,1-4.31,1.55h0S274.5,159.55,274.2,161.9Z" fill="#5f7196"/></g><g id="ec9dc159-c320-4598-bc13-042abf8eff88" data-name="Layer 6"><path d="M495,133.35c0,17.74-8.15,33.36-20.5,42.42a41.49,41.49,0,0,1-51-1c-11.64-9.18-19.25-24.33-19.25-41.47,0-28,20.33-50.74,45.39-50.74S495,105.32,495,133.35Z" fill="url(#abeeb8be-d0e6-411e-ad78-456b247bf295)"/><rect x="443.05" y="152.64" width="10.98" height="6.04" fill="#d18b52"/><circle cx="426.6" cy="126.57" r="6.87" fill="#d18b52"/><circle cx="469.23" cy="126.57" r="6.87" fill="#d18b52"/><circle cx="469.23" cy="126.57" r="6.87" fill="#d18b52"/><circle cx="426.6" cy="127.81" r="3.57" fill="#dac8cb"/><circle cx="426.6" cy="127.81" r="3.57" fill="#855126"/><circle cx="469.48" cy="127.81" r="3.57" fill="#dac8cb"/><circle cx="469.48" cy="127.81" r="3.57" fill="#855126"/><circle cx="456.9" cy="98.52" r="9.5" fill="#855126"/><ellipse cx="455.2" cy="104.44" rx="9.22" ry="11.2" transform="translate(230.06 513.62) rotate(-74.1)" fill="#5f7196"/><path d="M469.48,116v16.62a21.44,21.44,0,0,1-42.88,0V116c0-.23,0-.47,0-.7a16.91,16.91,0,0,1,1.4-6.16,17.19,17.19,0,0,1,15.77-10.33h8.5A17.19,17.19,0,0,1,469.48,116Z" fill="#d4a87f"/><path d="M445.36,133.06c2.32,1.79,4.43,1.64,6.37,0" fill="none" stroke="#5d5455" stroke-linecap="round" stroke-miterlimit="10"/><path d="M444.86,150.56a8.22,8.22,0,0,1,6.37,0" fill="none" stroke="#5d5455" stroke-linecap="round" stroke-miterlimit="10" stroke-width="0.5"/><path d="M456.8,118.71c2.32-1.79,4.43-1.63,6.36,0" fill="none" stroke="#855125" stroke-linecap="round" stroke-miterlimit="10"/><path d="M433,118.9c2.22-1.92,4.33-1.89,6.36-.37" fill="none" stroke="#855125" stroke-linecap="round" stroke-miterlimit="10"/><path d="M463.36,143.48a21.42,21.42,0,0,0-4.8-10.34" fill="none" stroke="#5d5455" stroke-linecap="round" stroke-miterlimit="10" stroke-width="0.5"/><path d="M434.28,143.56A21.52,21.52,0,0,1,438.61,133" fill="none" stroke="#5d5455" stroke-linecap="round" stroke-miterlimit="10" stroke-width="0.5"/><path d="M474.46,171.12v4.65a41.49,41.49,0,0,1-51-1l.15-3.62c1-6.69,5.24-11.7,13.74-14.54a42.41,42.41,0,0,1,5.74-1.47,17.24,17.24,0,0,0,4.37,1.46h0a13.55,13.55,0,0,0,6.76-1.47C465.58,156.25,472.29,161.6,474.46,171.12Z" fill="#6b8441"/><ellipse cx="436.87" cy="125.24" rx="2.93" ry="4.4" fill="#5d5455"/><ellipse cx="460.62" cy="125.24" rx="2.93" ry="4.4" fill="#5d5455"/><circle cx="437.02" cy="126.6" r="2.28" fill="#2b2b2b"/><circle cx="460.49" cy="126.6" r="2.28" fill="#2b2b2b"/><path d="M469.48,116v4.19c-4.91-3.07-19.56-9.53-19.56-14.72-.3,6.58-20.21,12.59-23.32,13.49v-3c0-.23,0-.47,0-.7a40.82,40.82,0,0,1,1.4-6.16,17.19,17.19,0,0,1,15.77-10.33h8.5A17.19,17.19,0,0,1,469.48,116Z" fill="#855126"/><path d="M458.8,140.26a13.76,13.76,0,0,1-1.74,2.46c-4,4.56-10.29,5.83-15,2.28a13.18,13.18,0,0,1-3.83-4.86,1.27,1.27,0,0,1,1.16-1.8,45.25,45.25,0,0,0,18.29,0A1.29,1.29,0,0,1,458.8,140.26Z" fill="#fff"/><path d="M457.06,142.72c-4,4.56-10.29,5.83-15,2.28A38.31,38.31,0,0,1,457.06,142.72Z" fill="#5d5456"/></g><g id="a1c299dd-c3f3-4f6b-abe8-47cee1a2551c" data-name="Layer 7"><path d="M409.9,283.77c0,17.44-7.87,32.82-19.87,41.94-.21.17-.42.32-.63.48A41.45,41.45,0,0,1,339,325.7c-.21-.14-.41-.3-.61-.46-11.64-9.18-19.25-24.33-19.25-41.47,0-28,20.33-50.74,45.39-50.74S409.9,255.74,409.9,283.77Z" fill="url(#b501e94b-9a2d-4c02-8a13-83ab285b7b64)"/><path d="M344.53,257.7c-8.23,10.75-11.65,21.33-8.75,31.7,4,5.8,2.82,12.67,10,16,4.47.65,5.23,6.89,13.53,8l12.64-.77c4.72-2.64,5.49-6.12,9.57-8.3,6.18-6.64,5.49-13,9.2-19.4,3.68-10-2.06-16.08-6.89-25Z" fill="#ffdc4b"/><rect x="358.62" y="303.02" width="10.98" height="6.04" fill="#d18b52"/><circle cx="342.17" cy="276.95" r="6.87" fill="#d18b52"/><circle cx="384.8" cy="276.95" r="6.87" fill="#d18b52"/><circle cx="384.8" cy="276.95" r="6.87" fill="#d18b52"/><circle cx="342.17" cy="278.19" r="3.57" fill="#dac8cb"/><circle cx="342.17" cy="278.19" r="3.57" fill="#855126"/><circle cx="385.05" cy="278.19" r="3.57" fill="#dac8cb"/><circle cx="385.05" cy="278.19" r="3.57" fill="#855126"/><path d="M385.05,266.39V283a21.44,21.44,0,0,1-42.88,0V266.39c0-.23,0-.47,0-.7a11.52,11.52,0,0,1,.09-1.17,16.78,16.78,0,0,1,1.31-5,17.19,17.19,0,0,1,15.77-10.33h8.5a17.18,17.18,0,0,1,17,15A16.08,16.08,0,0,1,385.05,266.39Z" fill="#d4a87f"/><path d="M384.9,264.18l-.1.34c-13.92,4.18-28.1,4-42.52,0a16.78,16.78,0,0,1,1.31-5,17.19,17.19,0,0,1,15.77-10.33h8.5A17.18,17.18,0,0,1,384.9,264.18Z" fill="#ffdc4b"/><path d="M390,321.5v4.21c-.21.17-.42.32-.63.48A41.45,41.45,0,0,1,339,325.7l.17-4.12c1-6.69,5.24-11.7,13.74-14.54a42.41,42.41,0,0,1,5.74-1.47A17.24,17.24,0,0,0,363,307h0a13.55,13.55,0,0,0,6.76-1.47C381.15,306.63,387.86,312,390,321.5Z" fill="#c54b4b"/><path d="M371.82,273.3c2.32-1.79,4.43-1.64,6.36,0" fill="none" stroke="#b39824" stroke-linecap="round" stroke-miterlimit="10"/><path d="M348.05,273.48c2.22-1.92,4.33-1.89,6.36-.37" fill="none" stroke="#b39824" stroke-linecap="round" stroke-miterlimit="10"/><ellipse cx="351.89" cy="279.82" rx="2.93" ry="4.4" fill="#5d5455"/><ellipse cx="375.64" cy="279.82" rx="2.93" ry="4.4" fill="#5d5455"/><circle cx="352.04" cy="281.18" r="2.28" fill="#2b2b2b"/><circle cx="375.5" cy="281.18" r="2.28" fill="#2b2b2b"/><path d="M360,286.78c2.33,1.79,4.43,1.64,6.37,0" fill="none" stroke="#5d5455" stroke-linecap="round" stroke-miterlimit="10"/><path d="M373.43,291.75a13.76,13.76,0,0,1-1.74,2.46c-4,4.56-10.29,5.83-15,2.28a13.18,13.18,0,0,1-3.83-4.86,1.27,1.27,0,0,1,1.16-1.8,45.25,45.25,0,0,0,18.29,0A1.29,1.29,0,0,1,373.43,291.75Z" fill="#fff"/><path d="M371.69,294.21c-4,4.56-10.29,5.83-15,2.28A38.31,38.31,0,0,1,371.69,294.21Z" fill="#5d5456"/></g><g id="bb48823b-1c01-4a2d-9d97-17020068bd05" data-name="Layer 8"><path d="M213,286.79c0,17.07-7.54,32.17-19.11,41.35-.46.37-.92.73-1.39,1.07a41.43,41.43,0,0,1-49.66.09c-.46-.33-.93-.68-1.38-1-11.64-9.18-19.25-24.33-19.25-41.47,0-28,20.33-50.74,45.39-50.74S213,258.76,213,286.79Z" fill="url(#e3ecaebe-3403-4fe6-a34c-543ef65489fc)"/><rect x="162.47" y="305.54" width="10.98" height="6.04" fill="#d18b52"/><circle cx="146.02" cy="279.47" r="6.87" fill="#d18b52"/><circle cx="188.64" cy="279.47" r="6.87" fill="#d18b52"/><circle cx="188.64" cy="279.47" r="6.87" fill="#d18b52"/><circle cx="146.02" cy="280.71" r="3.57" fill="#dac8cb"/><circle cx="146.02" cy="280.71" r="3.57" fill="#855126"/><circle cx="188.89" cy="280.71" r="3.57" fill="#dac8cb"/><circle cx="188.89" cy="280.71" r="3.57" fill="#855126"/><rect x="146.01" y="251.72" width="42.88" height="55.25" rx="17.19" fill="#d4a87f"/><path d="M193.87,325v3.12c-.46.37-.92.73-1.39,1.07a41.43,41.43,0,0,1-49.66.09l.16-4.19c1-7.11,5.24-12.44,13.74-15.46a42.05,42.05,0,0,1,5.74-1.56,9.13,9.13,0,0,0,4.37,1.55h0a12.78,12.78,0,0,0,6.76-1.56C185,309.22,191.7,314.9,193.87,325Z" fill="#5f7195"/><path d="M175.8,271.13c2.32-1.79,4.43-1.64,6.36,0" fill="none" stroke="#855125" stroke-linecap="round" stroke-miterlimit="10"/><path d="M152,271.31c2.22-1.92,4.33-1.89,6.36-.37" fill="none" stroke="#855125" stroke-linecap="round" stroke-miterlimit="10"/><ellipse cx="155.87" cy="277.65" rx="2.93" ry="4.4" fill="#5d5455"/><ellipse cx="179.62" cy="277.65" rx="2.93" ry="4.4" fill="#5d5455"/><circle cx="179.49" cy="279.02" r="2.28" fill="#2b2b2b"/><circle cx="156.02" cy="279.02" r="2.28" fill="#2b2b2b"/><path d="M162.91,284.3c3.06,2.65,5.82,2.42,8.37,0" fill="none" stroke="#5d5455" stroke-linecap="round" stroke-miterlimit="10"/><path d="M188.89,268.91v2.22c-5-10.92-19-8.62-29.22-14.37-5.28,1.1-9.71,7.05-13.65,15.84,0,0,0-.05,0-.07v-3.62a17.19,17.19,0,0,1,17.19-17.19h8.5A17.19,17.19,0,0,1,188.89,268.91Z" fill="#855126"/><path d="M156,290.31c8.14,7.72,15.51,7,22.29,0" fill="none" stroke="#5d5455" stroke-linecap="round" stroke-miterlimit="10"/></g><g id="f0262539-0e5b-4dcd-a719-afb9fc338208" data-name="Layer 9"><path d="M238.12,426.18c0,17.25-7.7,32.49-19.48,41.64l-1,.78a41.45,41.45,0,0,1-50-.18l-1-.77c-11.64-9.18-19.25-24.33-19.25-41.47,0-28,20.33-50.74,45.39-50.74S238.12,398.15,238.12,426.18Z" fill="url(#a507fdda-56c7-4429-beaa-abf152cd292e)"/><polygon points="213.66 426.42 213.66 456.46 181.99 456.46 181.99 442.17 213.66 426.42" fill="#2b2b2b"/><rect x="187.23" y="446.13" width="10.98" height="6.04" fill="#d18b52"/><circle cx="213.41" cy="420.06" r="6.87" fill="#d18b52"/><circle cx="213.41" cy="420.06" r="6.87" fill="#d18b52"/><circle cx="170.78" cy="420.06" r="6.87" fill="#d18b52"/><circle cx="213.66" cy="421.3" r="3.57" fill="#dac8cb"/><circle cx="213.66" cy="421.3" r="3.57" fill="#855126"/><circle cx="170.78" cy="421.3" r="3.57" fill="#dac8cb"/><circle cx="170.78" cy="421.3" r="3.57" fill="#855126"/><path d="M213.66,409.5v16.62a21.44,21.44,0,0,1-42.88,0V409.5c0-.23,0-.47,0-.7a11.52,11.52,0,0,1,.09-1.17,16.78,16.78,0,0,1,1.31-5A17.19,17.19,0,0,1,188,392.31h8.5a17.18,17.18,0,0,1,17,15A16.08,16.08,0,0,1,213.66,409.5Z" fill="#d4a87f"/><path d="M218.64,464.61v3.21l-1,.78a41.45,41.45,0,0,1-50-.18l.16-3.73c1-6.68,5.24-11.7,13.74-14.54a44,44,0,0,1,5.74-1.47,17.24,17.24,0,0,0,4.37,1.46h0a13.44,13.44,0,0,0,6.76-1.47C209.76,449.75,216.47,455.09,218.64,464.61Z" fill="#ffdc4b"/><path d="M188.61,429.9c2.33,1.79,4.43,1.63,6.37,0" fill="none" stroke="#5d5455" stroke-linecap="round" stroke-miterlimit="10"/><path d="M202,434.87a13.76,13.76,0,0,1-1.74,2.46c-4,4.56-10.29,5.83-15,2.28a13.18,13.18,0,0,1-3.83-4.86,1.27,1.27,0,0,1,1.16-1.8,45.25,45.25,0,0,0,18.29,0A1.29,1.29,0,0,1,202,434.87Z" fill="#fff"/><path d="M200.3,437.33c-4,4.56-10.29,5.83-15,2.28A38.31,38.31,0,0,1,200.3,437.33Z" fill="#5d5456"/><path d="M200.73,415.25c2.33-1.8,4.43-1.64,6.37,0" fill="none" stroke="#000" stroke-linecap="round" stroke-miterlimit="10"/><path d="M177,415.43c2.22-1.92,4.33-1.89,6.36-.37" fill="none" stroke="#855125" stroke-linecap="round" stroke-miterlimit="10"/><ellipse cx="180.8" cy="421.77" rx="2.93" ry="4.4" fill="#5d5455"/><ellipse cx="204.55" cy="421.77" rx="2.93" ry="4.4" fill="#5d5455"/><circle cx="180.95" cy="423.13" r="2.28" fill="#2b2b2b"/><circle cx="204.42" cy="423.13" r="2.28" fill="#2b2b2b"/><path d="M193.86,399.78c-.28,6-3.35,9.35-9.53,9.87l1.36,54.3a7.3,7.3,0,0,0-5.36,0l-.51-3.49-.51,3.49a8.62,8.62,0,0,0-5,2.3l-1-9.19v8a5.55,5.55,0,0,0-4.17,2.81A335.81,335.81,0,0,1,171,410c1.34-12,4.66-15.62,12.66-17.53a23.52,23.52,0,0,1,14.56-.59c6.34.63,10.38,3.51,12.67,8.08,3.1,4.36,3.77,9.29,3.41,14.47-5.2-9.11-14.13-9.66-16.08-15.15Z" fill="#2b2b2b"/></g><g id="e6c516a3-9071-4496-81b2-ffb84de5bbad" data-name="Layer 10"><path d="M395.37,426.18c0,17.34-7.79,32.66-19.68,41.79-.27.22-.54.43-.82.63a41.43,41.43,0,0,1-50.2-.32q-.42-.3-.84-.63c-11.64-9.18-19.25-24.33-19.25-41.47,0-28,20.33-50.74,45.39-50.74S395.37,398.15,395.37,426.18Z" fill="url(#f5c2ada9-a33e-46fc-8376-a13c535dfeed)"/><rect x="344.28" y="445.37" width="10.98" height="6.04" fill="#d18b52"/><circle cx="327.84" cy="419.3" r="6.87" fill="#d18b52"/><circle cx="370.46" cy="419.3" r="6.87" fill="#d18b52"/><circle cx="370.46" cy="419.3" r="6.87" fill="#d18b52"/><circle cx="327.84" cy="420.54" r="3.57" fill="#dac8cb"/><circle cx="327.84" cy="420.54" r="3.57" fill="#855126"/><circle cx="370.71" cy="420.54" r="3.57" fill="#dac8cb"/><circle cx="370.71" cy="420.54" r="3.57" fill="#855126"/><path d="M370.72,408.74v16.62a21.44,21.44,0,0,1-42.88,0V408.74c0-.23,0-.47,0-.7a11.52,11.52,0,0,1,.09-1.17,16.78,16.78,0,0,1,1.31-5A17.19,17.19,0,0,1,345,391.55h8.5a17.18,17.18,0,0,1,17,15A16.08,16.08,0,0,1,370.72,408.74Z" fill="#d4a87f"/><path d="M375.69,464.83V468c-.27.22-.54.43-.82.63a41.43,41.43,0,0,1-50.2-.32l.13-3.36c1-7.1,5.24-12.42,13.74-15.44a42.05,42.05,0,0,1,5.74-1.56,16.29,16.29,0,0,0,4.37,1.55h0a12.78,12.78,0,0,0,6.76-1.56C366.81,449.05,373.52,454.73,375.69,464.83Z" fill="#906586"/><path d="M357.48,416.65c2.32-1.79,4.43-1.63,6.37,0" fill="none" stroke="#b39824" stroke-linecap="round" stroke-miterlimit="10"/><path d="M333.71,416.84c2.22-1.93,4.33-1.89,6.36-.38" fill="none" stroke="#b39824" stroke-linecap="round" stroke-miterlimit="10"/><ellipse cx="337.55" cy="423.18" rx="2.93" ry="4.4" fill="#5d5455"/><ellipse cx="361.3" cy="423.18" rx="2.93" ry="4.4" fill="#5d5455"/><circle cx="337.7" cy="424.54" r="2.28" fill="#2b2b2b"/><circle cx="361.17" cy="424.54" r="2.28" fill="#2b2b2b"/><path d="M345.67,429.14c2.32,1.79,4.43,1.63,6.36,0" fill="none" stroke="#5d5455" stroke-linecap="round" stroke-miterlimit="10" stroke-width="0.75"/><path d="M337.71,431.56c8.14,7.73,15.5,7.05,22.28,0" fill="none" stroke="#5d5455" stroke-linecap="round" stroke-miterlimit="10"/><path d="M337.55,391c-8.77-.67-12.91,2.42-12.07,9.57,1,4.74,0,10.66,1.34,16.6,2.49-6.9,3-15.57,6.07-16.22,3.61-3.71,14.88,3.68,14.88,3.68s9.71,7.3,12.22,16c1-4.31.68-9.13-3.1-15.28,5.81,2.23,9.6,6.62,12.46,12,1.33-3.87,1.63-7.49,0-10.66,1.87-.4,5.95,4.23,10.13,9.07,1.21-10.4-3.08-18-12.34-23-5.06-2.59-9.84-4.77-12.93-4.34C347.18,389,342.72,383.41,337.55,391Z" fill="#ffdc4b"/></g></svg>