<svg xmlns="http://www.w3.org/2000/svg" viewBox="0 0 737.01 566.93"><g id="ecd70c18-dd38-4a4b-a335-e5906cb7e083" data-name="Layer 7"><rect width="737.01" height="566.93" fill="#e3b0d2"/><ellipse cx="342.22" cy="428.59" rx="244.09" ry="123.57" transform="translate(-28.68 24.56) rotate(-3.95)" fill="#cb89ba"/></g><g id="beb7093e-c40a-4055-85a3-1a2783aaa0d7" data-name="Layer 2"><path d="M577,114.85V345.52a14.47,14.47,0,0,1-18.18,14l-146.64-39c-3.58,6.66-5.62,12.72-3.66,17.21,4.45,7,16.93,2.16,23.48,7.83,3.33,3.53,2.93,9.14,0,16.14-25.15,4.86-52.44-.33-81.65-14.58-7.15-9.33-4-13.73,0-17.73,8.49-5,20.63,4.43,27.41,0,3.4-2.36,2.78-8.27,1-15.13l-168-51.1a14.59,14.59,0,0,1-10.33-14V44.43A14.75,14.75,0,0,1,218.11,30l347.29,70.7A14.47,14.47,0,0,1,577,114.85Z" fill="#515151"/><polygon points="559.05 117.63 559.05 344.64 547.6 341.48 515.02 332.49 445.82 313.41 408.7 303.18 339.5 284.09 318.01 278.17 248.81 259.08 224.32 252.33 219 250.86 219 49.74 559.05 117.63" fill="#d8d8d8"/><line x1="359.9" y1="100.85" x2="434.57" y2="115.91" fill="#515151" stroke="#515151" stroke-miterlimit="10" stroke-width="4"/></g><g id="ea6a474d-a2b0-4b8f-a5dd-34f786204453" data-name="Layer 3"><polygon points="338.1 361.71 298.46 400.83 399.64 426.38 440.85 384.14 338.1 361.71" fill="#b3b2b2" stroke="#848484" stroke-linecap="round" stroke-linejoin="round" stroke-width="0.75"/><polygon points="400.16 455.03 399.64 426.38 440.85 384.14 440.85 418.56 400.16 455.03" fill="#b3b2b2" stroke="#848484" stroke-linecap="round" stroke-linejoin="round" stroke-width="0.75"/><polygon points="302.54 432.73 400.16 455.03 399.64 426.38 298.46 400.83 302.54 432.73" fill="#b3b2b2" stroke="#848484" stroke-linecap="round" stroke-linejoin="round" stroke-width="0.75"/><path d="M300.5,416.72c14.33,15.15,53.05,27.19,99.66,38.22l-97.62-22.3Z" fill="#848484"/><path d="M440.85,405.09a502.31,502.31,0,0,1-40.69,49.85l40.69-36.47Z" fill="#848484"/></g><g id="ba95a01f-3c0b-4641-85bc-10b81486cc58" data-name="Layer 9"><polygon points="348.72 83.02 348.72 114.62 445.75 136.6 445.75 102.38 348.72 83.02" fill="#969696"/><polygon points="359.9 89.75 359.9 114.06 434.57 130.98 434.57 104.65 359.9 89.75" fill="#fff"/><polygon points="224.6 94.17 547.87 167.72 547.87 239.72 224.6 153.43 224.6 94.17" fill="#969696"/><polygon points="547.6 249.83 547.6 341.48 515.02 332.49 445.82 313.41 408.7 303.18 339.5 284.09 318.01 278.17 248.81 259.08 224.32 252.33 224.32 162.28 547.6 249.83" fill="#969696"/><text transform="translate(382.8 103.57) rotate(10.68)" font-size="8" fill="#1d1d1b" font-family="MyriadPro-Regular, Myriad Pro"><tspan letter-spacing="0em">A</tspan><tspan x="4.87" y="0">pp</tspan><tspan x="13.98" y="0" letter-spacing="-0.04em"> </tspan><tspan x="15.38" y="0" letter-spacing="-0.02em">V</tspan><tspan x="19.72" y="0">iew</tspan></text><line x1="359.94" y1="102.19" x2="434.57" y2="117.91" fill="none" stroke="#515151" stroke-miterlimit="10" stroke-width="0.5"/><polygon points="276.52 130.98 276.2 149.95 334.24 164.11 334.58 143.57 276.52 130.98" fill="#fff"/><text transform="translate(294.2 142.06) rotate(11.63)" font-size="6.24" fill="#1d1d1b" font-family="MyriadPro-Regular, Myriad Pro"><tspan letter-spacing="0.01em">I</tspan><tspan x="1.55" y="0" letter-spacing="0em">n</tspan><tspan x="4.99" y="0" letter-spacing="-0.01em">t</tspan><tspan x="7.02" y="0">e</tspan><tspan x="10.15" y="0" letter-spacing="0.03em">r</tspan><tspan x="12.38" y="0">fa</tspan><tspan x="17.21" y="0" letter-spacing="-0.01em">c</tspan><tspan x="19.97" y="0">e</tspan></text><line x1="276.39" y1="140.69" x2="334.41" y2="153.92" fill="none" stroke="#515151" stroke-miterlimit="10" stroke-width="0.5"/><polygon points="353.84 149.13 353.5 169.75 416.59 185.15 416.96 162.82 353.84 149.13" fill="#fff"/><text transform="translate(373.06 161.17) rotate(11.63)" font-size="6.79" fill="#1d1d1b" font-family="MyriadPro-Regular, Myriad Pro"><tspan letter-spacing="0.01em">I</tspan><tspan x="1.69" y="0" letter-spacing="0em">n</tspan><tspan x="5.43" y="0" letter-spacing="-0.01em">t</tspan><tspan x="7.63" y="0">e</tspan><tspan x="11.03" y="0" letter-spacing="0.03em">r</tspan><tspan x="13.46" y="0">fa</tspan><tspan x="18.71" y="0" letter-spacing="-0.01em">c</tspan><tspan x="21.71" y="0">e</tspan></text><line x1="353.7" y1="159.68" x2="416.77" y2="174.07" fill="none" stroke="#515151" stroke-miterlimit="10" stroke-width="0.5"/><polygon points="343.35 210.86 342.13 233.77 404.51 250.98 405.83 226.25 343.35 210.86" fill="#fff"/><polygon points="318.01 278.17 248.81 259.08 248.74 229.98 317.93 249.99 318.01 278.17" fill="#d8d8d8"/><polygon points="408.7 303.18 339.5 284.09 339.42 252.72 408.62 270.74 408.7 303.18" fill="#d8d8d8"/><polygon points="515.02 332.49 445.82 313.41 445.74 260.62 514.94 280.57 515.02 332.49" fill="#d8d8d8"/><text transform="matrix(0.91, 0.24, -0.23, 0.97, 362.05, 223.53)" font-size="7.2" fill="#1d1d1b" font-family="MyriadPro-Regular, Myriad Pro"><tspan letter-spacing="0.01em">K</tspan><tspan x="3.97" y="0">lassen</tspan></text><line x1="342.76" y1="221.08" x2="405.17" y2="239.21" fill="none" stroke="#515151" stroke-miterlimit="10" stroke-width="0.5"/><polygon points="252.22 194.93 251.82 216.87 314.88 233.75 315.29 207.62 252.22 194.93" fill="#fff"/><text transform="matrix(0.92, 0.21, -0.19, 0.98, 271.43, 206.52)" font-size="7.2" fill="#1d1d1b" font-family="MyriadPro-Regular, Myriad Pro"><tspan letter-spacing="0.01em">K</tspan><tspan x="3.97" y="0">lassen</tspan></text><line x1="252.07" y1="204.78" x2="315.11" y2="220.59" fill="none" stroke="#515151" stroke-miterlimit="10" stroke-width="0.5"/><polygon points="432.3 168.71 431.92 191.25 500.86 208.07 501.26 183.67 432.3 168.71" fill="#fff"/><text transform="translate(453.3 181.87) rotate(11.63)" font-size="7.41" fill="#1d1d1b" font-family="MyriadPro-Regular, Myriad Pro"><tspan letter-spacing="0.01em">I</tspan><tspan x="1.85" y="0" letter-spacing="0em">n</tspan><tspan x="5.93" y="0" letter-spacing="-0.01em">t</tspan><tspan x="8.34" y="0">e</tspan><tspan x="12.06" y="0" letter-spacing="0.03em">r</tspan><tspan x="14.7" y="0">fa</tspan><tspan x="20.44" y="0" letter-spacing="-0.01em">c</tspan><tspan x="23.72" y="0">e</tspan></text><line x1="432.14" y1="180.25" x2="501.06" y2="195.97" fill="none" stroke="#515151" stroke-miterlimit="10" stroke-width="0.5"/><polyline points="367.87 207.32 370.68 216.64 378.08 210.86" fill="none" stroke="#575656" stroke-linecap="round" stroke-linejoin="round"/><line x1="379.8" y1="176.9" x2="370.68" y2="216.64" fill="none" stroke="#575656" stroke-linecap="round" stroke-miterlimit="10"/><polyline points="388.69 149.11 390.91 156.46 396.75 151.9" fill="none" stroke="#575656" stroke-linecap="round" stroke-linejoin="round"/><line x1="398.1" y1="125.09" x2="390.91" y2="156.46" fill="none" stroke="#575656" stroke-linecap="round" stroke-miterlimit="10"/><polyline points="436.05 266.71 445.74 265.75 441.5 257.37" fill="none" stroke="#575656" stroke-linecap="round" stroke-linejoin="round"/><line x1="405.51" y1="247.14" x2="445.74" y2="265.75" fill="none" stroke="#575656" stroke-linecap="round" stroke-miterlimit="10"/><polyline points="285.3 192.68 288.49 201.88 295.65 195.79" fill="none" stroke="#575656" stroke-linecap="round" stroke-linejoin="round"/><line x1="296.94" y1="155.75" x2="288.49" y2="201.88" fill="none" stroke="#575656" stroke-linecap="round" stroke-miterlimit="10"/><line x1="394.41" y1="125.92" x2="400.06" y2="133.35" fill="none" stroke="#575656" stroke-linecap="round" stroke-miterlimit="10"/><line x1="401.38" y1="127.5" x2="393.09" y2="131.78" fill="none" stroke="#575656" stroke-linecap="round" stroke-miterlimit="10"/><line x1="376.15" y1="177.04" x2="381.8" y2="184.47" fill="none" stroke="#575656" stroke-linecap="round" stroke-miterlimit="10"/><line x1="383.13" y1="178.61" x2="374.83" y2="182.89" fill="none" stroke="#575656" stroke-linecap="round" stroke-miterlimit="10"/><line x1="292.83" y1="157.46" x2="298.47" y2="164.89" fill="none" stroke="#575656" stroke-linecap="round" stroke-miterlimit="10"/><line x1="299.8" y1="159.04" x2="291.5" y2="163.31" fill="none" stroke="#575656" stroke-linecap="round" stroke-miterlimit="10"/></g><g id="fc2e672c-653b-4a91-ad11-fea179ee1a90" data-name="Layer 4"><path d="M331.14,473.86c-.6,2.51-2.55,5.08-5.21,7.66-1.71,1.89-5.54,1.74-8.87,4.87-3.15,1-4.86.57-5.39-1.14a5,5,0,0,1-.17-1.81l.35-6.09-9.57-27.48-1.65,15.62-1.13,10.82c-1.35,6.77-3.72,12.43-8.17,15.82-5.65,5.06-12.81,8.55-21,10.95-6.25-.25-11.14,1.56-21.22-5.82l.19-.44,18.91-46.75,2.12-5.23c.28-3.51,1.25-6,3.12-7.13a7.32,7.32,0,0,1,9,1,14.67,14.67,0,0,1,3.65,8.69c1.39,3.92,2.78,6.49,4.18,6.09.59-3.88,4.71-13.22,8.17-21.56,2.81-4.63,5.33-3.69,7.65.86,4.77,10.29,6,13.57,6.26,15.13.41,2.24.67,8.67.87,16.17.22,4.82,1.55,8.39,3.29,12.7,1.84.75,5.83-2.7,9.22-4.7,3-1.73,4.54-1.61,5.13-.18A4.67,4.67,0,0,1,331.14,473.86Z" fill="#ae5140"/><path d="M331.14,473.86c-.6,2.51-2.55,5.08-5.21,7.66-1.71,1.89-5.54,1.74-8.87,4.87-3.15,1-4.86.57-5.39-1.14a5,5,0,0,1-.17-1.81l.35-6.09c2.16,1.22,3.81,1.25,4.68-.52,1.84.75,5.83-2.7,9.22-4.7,3-1.73,4.54-1.61,5.13-.18A4.67,4.67,0,0,1,331.14,473.86Z" fill="#d8d8d8" opacity="0.34"/><path d="M290.29,453.53c-1.14,5.91-4.69,10.13-4.48,12.49l-6.05,2.37-11.58-18.32,2.12-5.23c.28-3.51,1.25-6,3.12-7.13a7.32,7.32,0,0,1,9,1,14.67,14.67,0,0,1,3.65,8.69C287.5,451.35,288.89,453.93,290.29,453.53Z" fill="#2b2b2b" opacity="0.5"/><path d="M300.63,465.49l-1.13,10.82c-1.35,6.77-3.72,12.43-8.17,15.82-5.65,5.06-12.81,8.55-21,10.95-6.26-.25-11.14,1.56-21.22-5.81l.18-.45,30-8.27c5-.79,11.23-1.12,12.71-3.34,2.75-2.76,4.53-6.55,5.34-11.34C298.09,468.86,299.37,467.23,300.63,465.49Z" fill="#2b2b2b" opacity="0.5"/><path d="M313,404.66a2.87,2.87,0,0,1,.2,2.8l-3-.29,1.37-2.51Z" fill="#378735"/><path d="M310,406.33c7.3-.59,11.72-5.48,12.51-4.5,1.82,1.75,3.62,2.35,5.42,1.89.74-1,.37-2.13-.46-3.26a22.08,22.08,0,0,0-3.91-5.09,5.35,5.35,0,0,0-4.6,0l-4.66,1.5-7.43,2.68Z" fill="#bc865e"/><path d="M288.79,471.23c3.88,9.85,6.48,18.49-22.5,26.63-6.78,1.56-9.46-1.85-16.34,0-4.53-.87-10.47-4.15-9.39-11.47,4.69-19.33,1.24-32.34-5.56-42.77l-5.56-31.29,26.92-19.77,4.34-3.19c-.24,1.62-.42,3.19-.54,4.69a21,21,0,0,0,.7,8.27,7.44,7.44,0,0,0,5.43,5.12l43.46-9c-1.33,3.93,0,6.89,3.49,9l-39.64,23.3c-6.09,9.74,7.47,26.08,4.52,34.08,3-3.91,5.89-4.9,8.35,0C287.11,467,288,469.16,288.79,471.23Z" fill="#5cb352"/><path d="M266.29,497.86c-6.78,1.56-9.46-1.85-16.34,0-4.53-.87-10.47-4.15-9.39-11.47,4.69-19.33,1.24-32.34-5.56-42.77l-5.56-31.29,26.92-19.77,3-.06.82,1.56c-.23,3.15-.1-2.18.7.09,1.17.32,1.08-.17-7.19,11.47-2.78,3.91-5,6-3.07,14a16.9,16.9,0,0,1-2.35,16.69c-3.61,2.3-4.47,6.5-4.16,11.47,1.29,6.31.12,11,5.86,16.56,2.61,3.29.46,8.41-2.08,13.69-4.12,6.9-2,10.76,6.64,11.48,6.31-2,12.16-2.81,17.35-1.7,7.87,2.43,11.71-.17,13.69-5.09a17.19,17.19,0,0,1,3.24-11.5C292.67,481.08,295.27,489.72,266.29,497.86Z" fill="#2b2b2b" opacity="0.5"/><path d="M331.14,473.87c-.6,2.5-2.55,5.06-5.22,7.65-1.7,1.9-5.52,1.74-8.86,4.87-3.15,1-4.87.57-5.39-1.13A3.23,3.23,0,0,1,313,486c.76.58,2.14.07,2.94,0,.93-.49,1.21-1.3,1.7-1.56a14.4,14.4,0,0,1,6.32-3c1.3-.19,2.31-1.93,3.52-2.84a7.66,7.66,0,0,0,2.51-3.36l.9-3.29A4.87,4.87,0,0,1,331.14,473.87Z" fill="#2b2b2b" opacity="0.5"/></g><g id="b37857ed-342c-45e4-961c-a3909fcf630f" data-name="Layer 6"><polyline points="355.61 379.99 331.62 386.27 348.83 397.98" fill="none" stroke="#2b2b2b" stroke-linecap="round" stroke-linejoin="round" stroke-width="3"/><polyline points="390.04 388.83 400.14 404.48 378.24 408.48" fill="none" stroke="#2b2b2b" stroke-linecap="round" stroke-linejoin="round" stroke-width="3"/><line x1="385.54" y1="382.83" x2="355.15" y2="402.77" fill="none" stroke="#2b2b2b" stroke-linecap="round" stroke-linejoin="round" stroke-width="3"/><path d="M432,361.71c-25.15,4.86-52.44-.33-81.65-14.58-7.15-9.33-4-13.73,0-17.73,8.49-5,20.63,4.43,27.41,0,3.4-2.36,2.78-8.27,1-15.13l33.38,6.26c-3.58,6.66-5.62,12.72-3.66,17.21,4.45,7,16.93,2.16,23.48,7.83C435.31,349.1,434.91,354.71,432,361.71Z" fill="#2b2b2b" opacity="0.5"/></g><g id="ebe2ce73-ad20-4f14-9ce2-7732b12c0136" data-name="Layer 5"><path d="M282.37,375.73c.53-1.14-5.56-3.39-5.82-5.39-.83-2.7.43-10.41-1.65-14.26L254,365.9,258.82,390l5.37,3.12c2.27-2,7.18-2.8,7.58-5.46.5-4.12,1.78-7.87,3.74-8.26C280,378.39,282,377.15,282.37,375.73Z" fill="#bc865e"/><path d="M277.33,355.73c.12,3.66-4.82,4.43-7.3,7.75-.39,3.6,10.31,6.86-.27,19.11-2.76,7.08-5.46,14.2-16.94,16.69-4,2.26-8.7,3.49-9.51,10a21.41,21.41,0,0,0,.12,5.42c2.52,10.28,8.06,16.56-7.37,28.94-6.17,2.59-15.28,3.55-20.53,7.83-5.88,4.95-17.64,3.22-19.83-7.31.72-9.76-2.49-15.78-7-20.86-8.08-12.65-.78-15.39-2.87-25.29.31-11.71,7.07-14,17.07-11.59l.41.1c10.61,2.8,17.68-4.16,23.21-15.38-1.3-16.3,18.65-17.75,22.43-17.47,6.26-5.09,16-.53,17.21-2.35C274.24,347.78,278.17,349,277.33,355.73Z" fill="#3f6bb2"/><path d="M236.06,443.62c-6.17,2.59-15.28,3.55-20.53,7.83-5.88,4.95-17.64,3.22-19.83-7.31.72-9.76-2.49-15.78-7-20.86-8.08-12.65-.78-15.39-2.87-25.29.31-11.71,7.07-14,17.07-11.59-4.62,1.38-7.16,3.68-6.28,7.5,5.21,4.87,4.95,13.36,3.82,22.42-1.77,5.82,0,10.84,7.3,14.61,3.13,2,8.75,2.55,10.08,5.69,3.87,6.25,14.61-6.39,20.7-6.21,6.46,1.53,4.29-7,2.08-15.65-.58-2.88.77-4.41,2.75-5.5a21.41,21.41,0,0,0,.12,5.42C246,425,251.49,431.24,236.06,443.62Z" fill="#2b2b2b" opacity="0.5"/></g></svg>