<svg xmlns="http://www.w3.org/2000/svg" viewBox="0 0 737.01 566.93"><g id="bd853668-1501-4723-a5b3-718e12a680a2" data-name="Layer 2"><rect width="737.01" height="566.93" fill="#9ec9ed"/></g><g id="ae0988e9-4990-486f-97d8-e3ab33f7824e" data-name="Layer 1"><g id="f643531c-023b-42c8-8cab-a0e235d2c4b4" data-name="Afrika"><polygon points="600.9 565.02 361.27 565.02 366.22 552.35 367.25 551.8 367.26 551.8 376.93 546.68 378.52 487.74 387.34 485.86 387.86 463.63 387.86 463.53 387.97 458.74 388.22 458.74 493.55 458.44 502.39 461.27 507.11 459.06 527.91 443.31 545.25 465.37 545.25 488.06 550.61 500.67 558.16 507.25 560.38 509.18 573.29 526.51 574.87 543.22 582.43 551.1 593.15 559.92 600.9 565.02" fill="#618b34" stroke="#4a4848" stroke-linecap="round" stroke-linejoin="round" stroke-width="2"/><path d="M525.7,437.32v5.35L501.12,460l-4.73-3.15-108.1.94-.07.94-.36,4.79v.1l-1.47,19.7s-8.5,2.84-9.14,3.78-2.83,5.36-2.83,5.36l-.42-.17,0,0h0l0,0-1.71-.72L364,487.11l-4.29-3.17h-.05l-4.18-3.1-13.23-7.57-6.5-3.33-.12-.07,0,0-5-2.55-4.35-2.92h0l-.1-.06,0,0-10.63-7.08-8.34-4,0,0,0,0-.73-.35-8.09-4.82-.53-.31-3-1.8-13.56-3.78-13.24-2.53L260,445.63h0l-.26.2L244.88,443l-16.71-4.1-3.36-4.18,0,0-4.48-5.56-17.77-10.84-.84-.5L194.13,408l-.55-2.66h0L191,392.88l.93-1.92,0,0h0l5.34-11-2.51-7.87-.85-13.33v-.05l-.41-6.48s0-.06,0-.16c-.18-1.16-1.21-8.09-.93-8.66s6.94-12.3,6.94-12.3l2.44-14.64L202,316l2.37-1h0l3.9-1.54.85-1.21,8-11.41.09,0,26.07,5L260,310.61l9,14.85,1.7,2.81L295,332.68l15.12,7.88h6.3l11.35-12.29-1.89-15.76.05-.08,5.62-8.43,20.49.31,5.36,3,27.41,15.29,17,3.46L415.07,328l18.6,1.26,7.88,2.84,23.32-6.31,14.18,6,9.14-.63,9.47-2.83.81,1.66,7.07,14.3,0,.06,0,0,5.3,10.72-2.53,4.1-1.57,13.56-1.57-.32-3.15-4.09-6.31-6.94L493.55,356l-5.36-4.41-3.78-2.53L480,351.59l.32,6,3.14,4.41,8.52,9.14,2.83,9.77,7.26,9.77L509,406.12l8.52,13.55Z" fill="#2b6936" stroke="#4a4848" stroke-linecap="round" stroke-linejoin="round" stroke-width="2"/><polygon points="375.99 545.74 366.54 551.1 360.53 565.02 1.45 565.02 1.45 265.72 8.18 263.03 29.29 275.31 50.1 275.01 85.72 253.88 111.24 247.9 126.37 250.1 173.65 249.47 191.61 241.28 204.85 248.53 205.16 252.31 201.38 257.67 208.95 264.92 202.01 278.16 202.33 283.82 217.46 300.53 217.23 300.86 209.27 312.19 209.15 312.26 204.42 315.01 204.4 315.02 204.39 315.03 201.93 316.46 199.5 317.87 199.18 331.1 191.29 344.02 193.91 358.7 193.92 358.74 193.92 358.75 197.91 381.22 191.97 390.87 191.94 390.91 191.94 390.92 190.35 393.51 191.93 402.96 193.58 405.35 202.54 418.29 203.27 419.35 219.03 429.12 224.77 434.68 224.8 434.71 229.12 438.9 243.3 442.37 259.95 445.63 260.95 445.82 268.2 440.47 296.26 446.78 297.71 447.63 298.23 447.94 307.06 453.11 307.09 453.13 307.13 453.15 326.14 464.28 326.24 464.34 326.26 464.35 335.6 469.82 335.65 469.85 359.69 483.92 359.71 483.93 359.74 483.95 373.91 492.26 373.94 492.28 373.95 492.28 375.36 493.1 375.99 545.74" fill="#428a6b" stroke="#4a4848" stroke-linecap="round" stroke-linejoin="round" stroke-width="2"/></g><g id="bed9ee38-36d0-4a0e-8c61-980d796d4403" data-name="Europa"><g id="b37345f2-3921-4116-9aec-abc70b017fa5" data-name="Grossbritannien"><path d="M24.11,1.46,23,6.78a5.39,5.39,0,0,0-1.57.32l-1,3.15-1.26.94-1.58,1.27A23.22,23.22,0,0,0,18,15.93c.31,1.88,0,.94,0,.94l-.32,1.58-1.57,4.72L16.69,27c.32,3.46,0,1.57-1,2.51H13.86a17.66,17.66,0,0,1-2.53-.3S9.75,31.06,9.75,32s-1.89.63-1.89.63l-.94-.31L3.77,32H1.45V1.46Z" fill="#ac5178" stroke="#4a4848" stroke-linecap="round" stroke-linejoin="round" stroke-width="2"/><path d="M107.15,27.27l-5.68,3.79a12.37,12.37,0,0,0-2.52.3c-1,.32-2.21.64-2.21.64s1.26.32-.31,1.26a14.29,14.29,0,0,0-2.52,1.89L91.7,37.36v1.26l-.32,2.21s1-.64,1.26.94c.64,1.26,1.27.95,1.27,1.89s0,.63.62,1.58,2.53,0,.64.94a8.52,8.52,0,0,1-3.47,1H83.51a4.87,4.87,0,0,0-2.84.32,19.77,19.77,0,0,1-5.67.62c-1.26,0-1.9-.62-3.47,0L70,48.7l-1.26,1.9s1.9.94-1.25.62-5-1.88-7.57-.94-2.52.94-3.47.94-2.52-.31-3.15.63l-.94,1-1.58,1.57a56.35,56.35,0,0,1-6.31.94H38.75l-1,.32s-.31,0-1.26.94A16,16,0,0,1,34,58.47c-.94,1-3.78,1.58-3.78,1.58L29,58.16s-1.26-2.52-.63-3.16a9.2,9.2,0,0,1,1.89-.94L34,52.49l.95.32,3.15-.64,2.53-2.53s-.32-2.83,2.51-1.57,1.89,1.27,2.84,1.27,2.52.62,3.78-1a6.07,6.07,0,0,0,.95-2.84s0-.31,1.26,0,4.09,1.26,3.15-.31-1-2.52-2.21-2.52a8.35,8.35,0,0,1-2.83-1.89H40.33l-.95-2.21a2,2,0,0,0-1.58-1.89c-1.57-.32-1.26,0-2.51-.32l-1-.31-.62-2.53.94-.63,1.58-.62,1-1.9,4.09-2.52s2.53.63.32-2.52c-2.21-2.83-2.53-1.26-2.21-2.83C40,21,40,20.34,41,20a10.06,10.06,0,0,1,2.53-.32l1.57-.94,6.94-1s2.83.32,3.15-.94a11.62,11.62,0,0,0,.32-2.52c1.89-1.58,3.47-1.89,2.51-3.46s-1.89-1.27-1.89-2.53a4.92,4.92,0,0,0-.94-2.21,16.88,16.88,0,0,1-1-4.09s.8.53.2-.6H79.73L80,2.69a29.45,29.45,0,0,0,.32,4.41,16.34,16.34,0,0,1,.31,2.83l1.58,1,1.89,2.51A36.44,36.44,0,0,1,87,17.81c.63,1,0,.32,1,2.53a25.39,25.39,0,0,1,1.26,4.41l1.89.31,2.21-.31,1.25-1.58s.32-.62,1.9,0a18.62,18.62,0,0,0,5,.64,9.45,9.45,0,0,1,2.21,2.51C104,27.27,107.15,27.27,107.15,27.27Z" fill="#ac5178" stroke="#4a4848" stroke-linecap="round" stroke-linejoin="round" stroke-width="2"/></g><path d="M167.61,145.13l.68.65-.16,2.76-.16,2.92-13.86,7.24-14.51-.32-.94-3.47-15.44,3.16-8.83,4.1L116.6,171v5.67l-8.83,3.16-5.35.31-1.89,5.68-5,2.51-2.21,1.27-1.58,2.2L87,195s-2.84,2.2-3.47,2.52a5.28,5.28,0,0,0-2.21,1.26c-.94,1-1.26,2.21-3.15,4.41-2.21,1.89,0,.63-.32,2.52a30,30,0,0,1-1.26,4.41,18.83,18.83,0,0,1-3.47,1c-1.89.32-1.25.94-1.25,2.52a4.93,4.93,0,0,0,.62,2.52L75,218a29.16,29.16,0,0,1,4.41,3.46c1.89,1.9.31,1.58.31,1.58A53.34,53.34,0,0,1,75,226.15c-2.21,1.26-3.47.94-4.1,1.26a29.06,29.06,0,0,0-4.41,3.47c-2.52,2.21-3.15,2.52-3.79,3.46s-.62,4.41-.94,6-2.21.32-2.83.63-5.68.64-7.26.94c-1.57,0-.31,1.27-.31,3.16s-2.84,2.84-3.47,3.46c-.62.32-4.41,0-7.56.95-3.15,1.26-10.09.94-10.09.94s-8.51-.62-9.14-.62a16.22,16.22,0,0,0-4.41,1.26,24.17,24.17,0,0,0-6,2.52c-2.52,1.26-.63,1-3.46,3.16-2.85,1.88-1.59-1-5.36-3.16l-.43-.24v-99.5l.11.14H3.45s1.9,0,4.73-.31a41,41,0,0,1,6.62,0,22.72,22.72,0,0,1,3.78.63l1.58,2.52h8.19a14.51,14.51,0,0,1,3.15-.31,24.74,24.74,0,0,1,4.73.62c1.89.32,1.89.64,3.47.64s4.72-.32,4.72-.32a23.39,23.39,0,0,0,3.79-.32,13.94,13.94,0,0,1,3.78,0,5.48,5.48,0,0,0,2.2-1.57c.63-.94,1.27-.32,2.21-.64s1-.62,1-.62l2.2-5,1.89-1.9c1-.63.32-.94.32-2.21a18.4,18.4,0,0,1,.63-4.72c.63-3.15,0-2.21.31-3.47s.32-3.78.63-4.72c0,0,2.84-1.9,2.84-2.52a12.88,12.88,0,0,0-.32-3.16,17.4,17.4,0,0,0-.62-3.78s.31-3.46.31-4.42a5.37,5.37,0,0,0-.31-2.19c-.32-1-.32-.64-.32-.64L63,114a16.81,16.81,0,0,0,.32-2.53c0-.94-.32-1.26-.64-3.78-.06-.48-.1-.81-.12-1l-3-2.12-.32-.63v-.94a3.53,3.53,0,0,0-.3-1.89c0-1,0-.64-.64-1.58l-3.15.31a19.66,19.66,0,0,0-1.89-1.58l-.94-.62-1-1-1.26-.94-3.79-1-2.21-.3-3.45-1.58-.95-.31-1.26-1a5,5,0,0,1-1.9-.62c-1.25-.63-2.52,0-3.46-.32a4.08,4.08,0,0,1-1.9-1.26c-.62-.63.32-1.57.32-2.52a2.49,2.49,0,0,1,.94-2.21c1-.31,1.58-2.52,1.58-2.52l1.58-1.57,12.92,1.57-.31,3.47L55.14,85l6-3.15,9.46-6.31,11.66,1,13.24-6.31,9.13-9.77,2.84-10.08,9.77-.64L127.63,61l12.93,6,8.19,7.26,7.88-4.42,14.75,8.25h0l1,.56,1.26,4.73L166.4,94.71l-.14.16-.09.09L151.4,111.17,150,112.69l7.87,1.89,3.47,6.62.66,1.19,1.23,2.28L160,131.79l-.2.44,2.21,7.56Z" fill="#ad5139" stroke="#4a4848" stroke-linecap="round" stroke-linejoin="round" stroke-width="2"/><path d="M341.63,68.24l.64,24L327.92,114l-.15.23-40.34,6.3L267.89,108l.62-6.31,4.6-3.72,0,0,8.6-7L281,90.1l-.11-.11L268.51,77.07l-13.39.32h-.22l-13.18.31L229.65,89.15l-.21.21-17.66,4.73s-2.84,2.44-5.35,4.72l-.07.06c-1.54,1.4-3,2.73-3.49,3.37a1,1,0,0,0-.22.36c0,.94-4.42-2.21-4.42-2.21l-4.68-3.71h0l-4.45-3.53-18.28.32-1.21,1.93-.36.59L169,95.9l-1.35-.45h0L166.17,95,165,94.57l-.49-.16,4.74-5.68L173,81.8l-1.63-3.72h0l-.57-1.32-14.5-8.83-8.82,5-7.57-7.56L127,59.11,116.6,48.7l.32-3.15,17-12.92L143.07,27l5.68-9.77L168,14l11.35-.95,6.93-5.67-1.54-6h20.75l3.17,4.07,22.65-4.07,1.93-.35.61.35,12,6.9,22.06-6.62,1.49-.28H341l1.55,3.11L353,25.06l-3.79,3.47L358,53.75Z" fill="#c8559b" stroke="#4a4848" stroke-linecap="round" stroke-linejoin="round" stroke-width="2"/><polygon id="e0ba5a78-98db-4c4f-abde-b975a993adcf" data-name="Suedeuropa" points="165.14 94.4 149.69 110.79 156.94 112.37 162.3 121.51 159.46 130.02 161.67 137.58 167.34 142.63 167.97 148.62 188.78 139.47 198.86 148.62 204.85 162.17 228.49 177.93 239.52 178.24 239.2 184.54 255.28 193.37 265.68 205.35 270.72 214.49 268.2 216.06 249.29 227.72 230.69 231.19 230.38 234.34 255.91 246.95 258.75 247.27 261.9 232.45 268.83 228.67 281.75 218.27 280.18 209.44 277.34 199.67 289.95 199.99 300.03 200.3 300.03 196.84 289.32 191.16 271.04 180.76 257.49 171.31 242.04 155.86 232.9 146.09 223.76 136.95 222.5 127.5 230.06 123.08 236.68 124.03 239.84 132.86 245.82 136.32 255.91 139.79 261.58 142 274.5 156.18 280.18 159.02 292.79 161.54 302.87 170.68 309.17 180.45 312.64 199.67 318.94 214.17 331.24 218.58 347.63 221.74 347.63 224.89 334.39 228.35 334.39 231.51 343.53 246.63 351.09 250.73 353.3 250.1 355.5 246.95 359.29 238.76 363.07 234.34 362.75 231.82 359.6 222.68 356.14 215.75 350.15 205.98 352.98 199.36 365.59 199.99 369.37 193.06 375.36 190.53 392.38 189.9 395.85 182.34 391.44 179.19 398.69 173.2 409.4 173.2 410.35 161.54 413.81 150.19 423.9 129.7 410.98 122.77 408.14 109.53 403.41 99.76 392.07 87.78 370.32 94.72 354.56 91.25 346.68 94.72 343.21 92.51 328.4 113.94 287.43 120.56 268.2 107.96 268.52 101.97 281.44 90.62 268.52 76.75 241.73 78.02 230.06 89.05 211.78 93.46 202.96 102.28 188.15 93.46 171.13 94.09 168.92 95.98 165.14 94.4" fill="#d75171" stroke="#4a4848" stroke-linecap="round" stroke-linejoin="round" stroke-width="2"/><polygon points="734.08 1.46 734.08 46.27 721.42 50.28 714.31 53.01 713.23 53.43 713.11 53.37 697.48 45.55 689.83 43.9 678.56 41.45 671.47 39.2 664.69 37.04 662.84 37.99 644.73 47.33 643.9 47.76 639.48 55 635.7 61.94 628.61 60.63 627.19 60.36 623.73 64.15 620.78 69.06 619 72.03 620.34 80.65 620.57 82.11 632.24 90.31 637.42 95 642.32 99.45 648.94 107.95 655.24 111.11 645.78 122.46 631.28 138.84 635.7 146.1 644.21 150.51 650.2 165.95 670.05 187.38 673.2 195.26 677.93 198.1 681.71 204.09 677.93 205.98 675.73 206.92 670.69 224.26 660.91 210.7 657.21 209.55 651.77 207.87 640.75 214.7 638.54 216.06 629.8 217.13 625.62 217.64 624.82 216.74 616.79 207.55 615.37 207.19 609.22 205.66 603.36 200.86 598.83 197.15 594.1 186.12 584.89 181.87 582.08 180.57 577.7 178.55 577.08 173.83 573.29 163.42 520.97 134.12 525.39 123.08 526.65 109.84 530.43 99.76 516.88 102.92 487.56 116.78 504.27 124.35 505.22 128.44 486.62 136.95 466.77 127.5 470.54 115.2 461.72 115.2 458.26 108.9 451.32 108.59 432.72 123.71 425.15 129.71 412.24 122.14 405.3 99.76 393.01 87.16 376.26 92.83 371.58 94.41 371.4 94.38 356.05 91.58 354.47 91.3 354.25 91.25 352.62 92.11 347.63 94.72 347.23 94.48 343.53 92.2 342.9 68.56 359.61 54.06 350.78 28.85 354.56 23.81 342.56 1.46 734.08 1.46" fill="#d65089" stroke="#4a4848" stroke-linecap="round" stroke-linejoin="round" stroke-width="2"/></g><g id="a1f31545-a5e7-4351-a52e-d4c3b5f3bb1d" data-name="Asien"><path d="M681.61,351.73c-.32.5-.53.81-.53.81a62.13,62.13,0,0,0,.43,6.95c.06.43.13.84.2,1.24.95,3.46,2.21,5.36,4.73,8.82s3.16,5.68,6,8.52c.27.28.53.51.77.74,2.29,2.13,3.47,2.55,7.74,6.81,4.72,4.42,2.52,8.83,2.52,8.83a41.2,41.2,0,0,1,3.79,6c.94,2.21.62,5,.94,6.93s1.27,3.46,2.83,5.67c1.27,2.21,2.85,1.57,2.85,1.57s4.4-4.72,5.36-6.92,3.77-2.53,5.67-2.53,4.73,3.78,4.73,3.78a26,26,0,0,1,2.52,3.79c.31.93-2.52,6.29-2.52,6.29l3.46,6.32c.39.71.72,1.28,1,1.72V554.52L711.44,565H630.3l-4.68-13.92-2.21-18.6-21.13-28.05L590.51,492.3l-8.7-9-8.2-18.28-4-16.62-.12-.48-.59-2.43-10.71-13.24L556.49,430,547,417.09l-4.85-6.56-15.45-18.91-6.94-13.25-2.2-12.6-4.42-9.14-7.5-12.3,0,0,0-.06-8.2-13.44,1.13-.86,7.37-5.45L511,302.62l2.41-10.29,1.9-31.51-.63-12.92-10.4-.32-12,9.14-19.55-1-16.7-6.3-18.91,5.36L423,250.41l-16.08-17-1.58-15.13-5.36-6-6-7.56,1.88-11.35-1.64-7.44-.24-1.06.18-3.75.12-2.57,2.21-1.89,2.21-1.88.93-.32,7.57.64s11.67,7.56,12.61,7.87,6.31,4.73,6.31,4.73L440,186.11s11.35.32,13.55,0,5.68-5.36,5.68-5.36l10.08-5.34,20.81.62,20.48,3.48,13.55,7.55,15.13,4.73,16.08-2.2L567,187.06l8.52-7.24,6.54.75,1.65.18,1.19,1.12h0l7.92,7.39,6.94,10.09,3.59,1.5,3.56,1.5,6.4,2.68,2,2.15h0l9,9.5.47,0,5,.4h0l2.41.19,7.25-.95,1.25-1.66,2.53-3.38,7.57-3.78,6.29,1.9.08.1,12.85,16.6,3.15,7.25,7.26,5.36,7.24,3.14.28.11c1.58.65,9.37,3.84,11.07,5.25,1.89,1.27,7.88,1,7.88,1l7.25,7.56,10.09-2.51,6.29-3.79,3.52-3.75V379l0,0a20.42,20.42,0,0,1-3.16-1.89l-5-4.4-2.51-3.48-3.14-2.2s-2.53-3.48-4.43-6-2.2-4.41-2.84-5.36c-.39-.79-1.3-1.85-2.63-4.37a55.88,55.88,0,0,1-2.72-6c-2.83-7.24-5-.62-7.56-1.56-2.52-1.27-2.21-.64-6-1.58-3.78-1.27-5.36.31-5.36.31a6.61,6.61,0,0,0-3.15,3.15C684.56,347.25,682.56,350.28,681.61,351.73Z" fill="#d5328a" stroke="#4a4848" stroke-linecap="round" stroke-linejoin="round" stroke-width="2"/><path d="M733.09,47.44l1,.29V188.26l-13-18.22-11.66,4.1-10.71-9.76-18.28-11-4.73-13.24,7.56-9.77,20.17-3.78,6.94-.94s-1.26-3.15-1.89-4.41-4.41-6.62-4.41-6.62l-8.2-6.94-9.46-2.21-14.18,1.26-10.08,2.53-4.42,1.89-3.78-1-5-3.78-2.53-2.52L643.26,96l-7.56-1.27-6.62-5.66-3.16-3.15-5.66-3.15.62-16.4,2.21-5,4.41-2.2L630,62.57l6.61-.63,1.9-3.78,7.56-13.24L662.8,38l15.76,2.21,21.12,6.94,13.23,6.3Z" fill="#434d9c" stroke="#4a4848" stroke-linecap="round" stroke-linejoin="round" stroke-width="2"/><polygon points="720.8 193.68 734.08 188.74 734.08 227.9 731.51 220.47 713.87 193.37 720.8 193.68" fill="#434d9c" stroke="#4a4848" stroke-linecap="round" stroke-linejoin="round" stroke-width="2"/></g><rect x="1.45" y="1.11" width="734.11" height="564.7" fill="#7c7b7b" opacity="0.22"/></g><g id="a998ff1c-5993-426c-88d7-01fc0f0868a1" data-name="Layer 22"><path d="M591.7,493,583,484l-8.21-18.32-4-16.65-.12-.48-.59-2.44L559.3,432.8l-1.69-2.28-9.56-12.94L543.19,411l-15.48-18.95-7-13.27-2.21-12.63L514.13,357l-7.52-12.32,5.31,10.74-2.53,4.11-1.58,13.58-1.57-.32-3.16-4.1-6.32-6.95-2.21-5.37L489.18,352l-3.79-2.53L481,352l.32,6,3.15,4.42,8.53,9.16,2.84,9.79,7.27,9.79L510,406.59l8.53,13.58,8.21,17.68v5.37l-24.63,17.37-4.74-3.16-108.32.95-.07.94,105.55-.3,8.85,2.83,4.73-2.21L529,443.86,546.35,466V488.7l5.37,12.63,7.57,6.6c-45.46,18.8-101,33.52-161.67,41.4q-15,1.93-29.62,3.24h0l-1.07.1c-151.11,13.26-275.08-23.2-283.23-86-5.23-40.26,38.25-82.19,109.48-113.9l.7-.31a545.06,545.06,0,0,1,75.69-26.65l1.71,2.81L295.59,333l15.15,7.9h6.32l11.37-12.32-1.89-15.79,0-.08q15.48-2.86,31.53-5.13l27.47,15.32,17.06,3.47,13.26,1.89,18.63,1.27,7.9,2.84,23.37-6.32,14.21,6,9.16-.63,9.48-2.84.82,1.67,7.38-5.46L512,302.88c94.62,8.74,162.06,40.53,168,86.32C684.71,425.3,650.23,462.75,591.7,493Z" fill="#4a4848" opacity="0.4"/></g><g id="f8007fb5-f6ae-44f4-8d42-543f8de334d9" data-name="Layer 16"><path d="M196.82,223.71,155.18,276l8.45,8.47c3.29,3.31-1.07,7.71-3.9,4.94l-8.8-8.82-.08,0-5.11,5.11a1.73,1.73,0,0,1,.28.1c2.67,1,3,4.42,1.12,7.28-.13.18-.25.36-.4.55a4.37,4.37,0,0,1-3.16,1.58c-.9-.11-2.64-1.29-4.85-2.49h0l-5.94,5.94c-2.19,1.49-3.71.13-2-2.38l3.63-5.51a15.82,15.82,0,0,0-1.53-.45,16.75,16.75,0,0,0-3.23-.69,15.26,15.26,0,0,0,.43,3,17,17,0,0,0-11.32-1.12c-4.28,1.07-8.39,1.68-11.65.4a8.85,8.85,0,0,0-1.74-1c0,.49,0,1,0,1.55-.11,5.37-3,8.34-4.88,12.41l22.93,1.47c5.58.16,9.17,2.59,11.19,6.81-.66,9.73-.83,22.74,2.66,34.84l-1.7.94.12,4.77.74.12a17.24,17.24,0,0,0,.54,4.45c.52,1.37,2.79,1.9,4.74,2.95,1.33.56,4.06-.43,6.18.1a2.72,2.72,0,0,1,2.36,2.17,4.13,4.13,0,0,1,.21,1.52,2.59,2.59,0,0,1,0,.48,1.79,1.79,0,0,1-.11.35.15.15,0,0,1,0,.07,2.32,2.32,0,0,1-.16.36.62.62,0,0,1-.14.19.4.4,0,0,1-.1.18h-.29l-11.44-.1c-2.3-.52-4.47-.87-5.83-.3-1.23.75-3.07.86-5.09.8-2.35-.88-2.6-2.64-2.56-4.54a6.61,6.61,0,0,1,1.42-2.4,18,18,0,0,1,2-1.83,7,7,0,0,0,1.19-4.45l1.05-.16-.21-3.32s0,0-.05.05l-6.81-23.06c-3.86-6.78-17,7.43-37.2,9.75a10.52,10.52,0,0,0-2.84,5c-1.28,4.14-1.65,9.73-2.34,14.83l-3,26c-.46,10.74-6.52,25-7.6,43.15a17.21,17.21,0,0,1-4.83,1l0,1.77q.45.07.87.18a19.52,19.52,0,0,0,.43,5.21c.52,1.64,3.16,2.38,5.37,3.7,1.52.75,4.75-.25,7.2.48a3.25,3.25,0,0,1,2.66,2.67,5.59,5.59,0,0,1,.16,1.78,3.09,3.09,0,0,1-.07.52,2.66,2.66,0,0,1-.16.55,2.19,2.19,0,0,1-.21.4l0,.06-.09.1s0,0,0,0a.74.74,0,0,1-.15.21l-.29,0-13.39-.77c-2.65-.73-5.16-1.28-6.77-.68-1.46.81-3.63.83-6,.63-2.69-1.15-2.9-3.22-2.75-5.43a7.7,7.7,0,0,1,1.77-2.72,20.41,20.41,0,0,1,2.36-2,8.07,8.07,0,0,0,1.61-5.09c.42,0,.83-.1,1.23-.12l0-2.09c-.44-.11-.88-.22-1.32-.37L56,384.89,54.84,349.3c.31-7.56,1.61-13.09,2.14-22.72.22-5.48,3.6-11.33,7.31-17.2-5.55-.49-9.45-1.84-9.26-5.59a31.75,31.75,0,0,1,1.18-13.23l0,0a1.86,1.86,0,0,0-.28.21c-1.31,1.08-3.22,3.19-4.07,3.35-2.31.67-4.31-2-4.61-5.54,0-.23,0-.47,0-.69a4.34,4.34,0,0,1,1.24-3.15c1.15-.73,5.85-.16,9.65-2a10.92,10.92,0,0,0,2.5-1.25,17.56,17.56,0,0,0-1.88-2.32,12.48,12.48,0,0,0,8-5.51c2.26-3.35,4.62-6.2,7.44-7,2.61.2,6-1.58,9.53-4l0,0a25.45,25.45,0,0,1,5.57-4.11l.63-.48a2.91,2.91,0,0,1,.8-.27c.59-.3,1.18-.59,1.8-.88,4.87-1.36,9.19-3.42,12.37-7a8,8,0,0,1,4.35-2.34,10.35,10.35,0,0,0,1.58-2.24q-5.2,3.44-9.08,1.44c4.08-.59,7-2,8.08-3.7-2.72-7.37-6.75-13.17-4.53-22.17a29,29,0,0,1,5.29-10.44c5.23-6.23,13.2-8.18,24.36-5.14a12.87,12.87,0,0,0,10.4-1.2c-.22,1.63-1.59,2.6-3.32,3.35,7-1.15,13.16-1.26,17-3.35-1.75,1.82-3.5,3.64-6.65,4.31,2.65,1.91,7,.63,11.52-1-4.11,4.13-8.27,8.08-14.39,7.44a7.78,7.78,0,0,0,6.64.48,27.85,27.85,0,0,1-8.7,4c-.22,4.57-.39,8.43-2.77,12.34-.65,1.52.3,3.5.81,4.73a2.28,2.28,0,0,1-.17.4c-.79,1.55-3.18,2.73-5.83,3.84-2.09,2.44-2,6.08-4.92,7.54v0l-.82.31a8.61,8.61,0,0,1-2.9.29,31.4,31.4,0,0,1-5.83-.54c-1.42.29-1.08,1.79-2.11,2.84a10.23,10.23,0,0,1-1.94-.65,7.5,7.5,0,0,0,3.71,1c.18.48-.16,1.15-.77,1.91l0,0c-.31.38-.68.78-1.09,1.2-1.42,2-1,4.21.35,6.58a.33.33,0,0,1,.06.1h0c.65,1.27.44,2.87,0,4.53-3,4.5-8.65,7.4-15.12,10.06-.4,1-.76,2-1.07,3l7.07,1.55,10.64,2.11,6.53.78h0c3.61-.45,6.46-1.28,8.1-.38l5.58-8.46s0,0,0-.06l-7-7c-2.18-3,1.06-7,4.35-4.57l6.47,6.56h0l43.1-50.3c1-1.36,2.83-1.89,5.81-1.44A8.09,8.09,0,0,1,196.82,223.71Z" fill="#fff" stroke="#fff" stroke-linecap="round" stroke-linejoin="round" stroke-width="4"/><g id="fa17efcc-1c6b-4d2f-8a71-b462798f0f85" data-name="pants"><g id="aa85bac2-2028-4191-a8ef-01d7e56e116f" data-name="Layer 14"><path d="M66.22,429l-.88.68-1.2.95-5-.63-.68-.08-.58-1.32c.42,0,.83-.1,1.23-.12a21.33,21.33,0,0,1,6.27.34Q65.8,428.89,66.22,429Z" fill="#472513"/><path d="M70.22,426a17.21,17.21,0,0,1-4.83,1,20.86,20.86,0,0,1-6.36-.66c-.44-.11-.88-.22-1.32-.37L59,423.28,60,420.93l4.16-9Z" fill="#282828"/><polygon points="65.53 419.83 65.45 423.63 65.39 427.04 65.35 428.81 65.35 429.11 65.33 429.67 65.32 430.68 59.12 430.6 59.11 429.99 59.09 429.21 59.08 428.47 59.03 426.38 59 425.1 58.96 423.28 58.92 421.15 60.04 420.93 65.53 419.83" fill="#d68d65"/><path d="M82,442.83a3.09,3.09,0,0,1-.07.52,2.66,2.66,0,0,1-.16.55,2.19,2.19,0,0,1-.21.4l0,.06-.09.1s0,0,0,0a.68.68,0,0,1-.44.19l-13.39-.77c-2.65-.73-5.16-1.28-6.77-.68-1.46.81-3.63.83-6,.63-2.69-1.15-2.9-3.22-2.75-5.43a7.7,7.7,0,0,1,1.77-2.72,20.41,20.41,0,0,1,2.36-2,8.07,8.07,0,0,0,1.61-5.09,3.37,3.37,0,0,0,1.24.62c1.61.49,3.9.24,6.26-.1l.87-.12a19.52,19.52,0,0,0,.43,5.21c.52,1.64,3.16,2.38,5.37,3.7,1.52.75,4.75-.25,7.2.48a3.25,3.25,0,0,1,2.66,2.67A5.59,5.59,0,0,1,82,442.83Z" fill="#6d3e20"/><path d="M82,442.83a3.09,3.09,0,0,1-.07.52,2.66,2.66,0,0,1-.16.55,2.19,2.19,0,0,1-.21.4.74.74,0,0,1-.12.16s0,0,0,0a.74.74,0,0,1-.15.21l-.29,0-13.39-.77c-2.65-.73-5.16-1.28-6.77-.68-1.46.81-3.63.83-6,.63-2.69-1.15-2.9-3.22-2.75-5.43a7.7,7.7,0,0,1,1.77-2.72,3.8,3.8,0,0,0,0,3.15c.72.63.94,2.46,2.06,3.13,1.21.28,3.59-.4,5.64-.79,1.68-.5,3.74.17,5.8.89,2.27.75,5.64.64,9,.53a6.74,6.74,0,0,1,3.66.75C81,443.67,81.67,443.5,82,442.83Z" fill="#353535" opacity="0.5"/></g><polygon points="137.27 347.96 135.57 348.9 135.04 349.21 134.83 347.85 134.6 346.22 134.4 344.97 135.41 346.03 135.51 346.12 137.27 347.96" fill="#282828"/><path d="M136.43,353.79l-.73.63-1,.86-4.31-.32-.61,0-.53-1.12,1.05-.16a20.21,20.21,0,0,1,5.39,0Z" fill="#472513"/><polygon points="135.72 355.28 130.42 355.47 130.39 354.96 130.35 354.31 130.3 353.63 130.09 350.31 129.9 347.4 134.6 346.22 135.41 346.03 135.51 346 135.51 346.12 135.56 347.85 135.57 348.9 135.69 353.67 135.69 353.94 135.7 354.42 135.72 355.28" fill="#d68d65"/><path d="M137.27,348c-.67-.06-1.23-.1-1.71-.11a4.44,4.44,0,0,0-.73,0c-1.92,0-2.6.7-4.74,2.46,0,0,0,0-.05.05l-6.81-23.06c-3.86-6.78-17,7.43-37.2,9.75a10.52,10.52,0,0,0-2.84,5c-1.28,4.14-1.65,9.73-2.34,14.83l-3,26c-.46,10.74-6.52,25-7.6,43.15a16.54,16.54,0,0,0-4.77-2.38c-2.28-.62-4.11-.06-6.45,1.47-.41.27-.84.58-1.29.91L56,384.89,54.84,349.3c.31-7.56,1.61-13.09,2.14-22.72.22-5.48,3.6-11.33,7.31-17.2.91-1.45,1.84-2.89,2.76-4.35l5.22-.17,19-.61,4.37.27,4.9.32,22.93,1.47c5.58.16,9.17,2.59,11.19,6.81C134,322.85,133.78,335.86,137.27,348Z" fill="#4d4c4c"/><path d="M150.46,365a2.59,2.59,0,0,1,0,.48,1.79,1.79,0,0,1-.11.35.15.15,0,0,1,0,.07,2.32,2.32,0,0,1-.16.36.62.62,0,0,1-.14.19.53.53,0,0,1-.39.18l-11.44-.1c-2.3-.52-4.47-.87-5.83-.3-1.23.75-3.07.86-5.09.8-2.35-.88-2.6-2.64-2.56-4.54a6.61,6.61,0,0,1,1.42-2.4,18,18,0,0,1,2-1.83,7,7,0,0,0,1.19-4.45,3.2,3.2,0,0,0,1.1.52,13.93,13.93,0,0,0,5.34-.37l.74-.15a17.24,17.24,0,0,0,.54,4.45c.52,1.37,2.79,1.9,4.74,2.95,1.33.56,4.06-.43,6.18.1a2.72,2.72,0,0,1,2.36,2.17A4.13,4.13,0,0,1,150.46,365Z" fill="#6d3e20"/><path d="M150.46,365a2.59,2.59,0,0,1,0,.48,1.79,1.79,0,0,1-.11.35.15.15,0,0,1,0,.07,2.32,2.32,0,0,1-.16.36.62.62,0,0,1-.14.19.4.4,0,0,1-.1.18h-.29l-11.44-.1c-2.3-.52-4.47-.87-5.83-.3-1.23.75-3.07.86-5.09.8-2.35-.88-2.6-2.64-2.56-4.54a6.61,6.61,0,0,1,1.42-2.4,3.29,3.29,0,0,0,.1,2.69c.64.51.9,2.08,1.88,2.6,1,.18,3-.49,4.79-.92,1.44-.5,3.21,0,5,.52,2,.55,4.84.31,7.73.07a5.87,5.87,0,0,1,3.16.49C149.61,365.73,150.17,365.56,150.46,365Z" fill="#353535" opacity="0.5"/><path d="M137.27,348c-.67-.06-1.23-.1-1.71-.11a4.44,4.44,0,0,0-.73,0c-1.92,0-2.6.7-4.74,2.46,0,0,0,0-.05.05l-6.81-23.06c-3.86-6.78-17,7.43-37.2,9.75a10.52,10.52,0,0,0-2.84,5l-.07,0c.94-10.32,7.76-21.67,11-31.64a37.83,37.83,0,0,0,1.46-5.82l4.9.32,22.93,1.47c5.58.16,9.17,2.59,11.19,6.81C134,322.85,133.78,335.86,137.27,348Z" fill="#353535" opacity="0.5"/></g><g id="b16d6e9b-e61b-4255-9b6c-9d440828a2a2" data-name="Layer 15"><path d="M63.46,286.86c-.26.28-.52.56-.74.84h0c-2.12,2.43-3.55,4.76-5.12,5l-.17-1.22-.15-1c-.06-.4-.39-.35-.84,0l-.2.15,0,0a1.86,1.86,0,0,0-.28.21c-1.31,1.08-3.22,3.19-4.07,3.35-2.31.67-4.31-2-4.61-5.54,0-.23,0-.47,0-.69a4.34,4.34,0,0,1,1.24-3.15c1.15-.73,5.85-.16,9.65-2a10.92,10.92,0,0,0,2.5-1.25,2.61,2.61,0,0,0,.43-.45l.6,1.43.44,1Z" fill="#d68d65"/><path d="M59.49,289.13a6.33,6.33,0,0,1-2.09,2.32l-.15-1c-.06-.4-.39-.35-.84,0A5.62,5.62,0,0,1,59.49,289.13Z" fill="#4d4c4c" opacity="0.41"/><path d="M96.05,263.77a36.17,36.17,0,0,0-.68,4.44l-.18-.51L84.27,276l-8.74,4.33-4.42,2.33-3.69,1.95-4.7,3.06h0A10.78,10.78,0,0,0,61.42,283a.75.75,0,0,0-.1-.17,13.77,13.77,0,0,0-.75-1.25,17.56,17.56,0,0,0-1.88-2.32,12.48,12.48,0,0,0,8-5.51c2.26-3.35,4.62-6.2,7.44-7,2.61.2,6-1.58,9.53-4l0,0c1.83-1.25,3.71-2.67,5.57-4.11l.63-.48a2.91,2.91,0,0,1,.8-.27c1.36-.29,2.51.5,3.56,1.71A7.9,7.9,0,0,1,96.05,263.77Z" fill="#3d61ab"/><path d="M96.05,263.77a36.17,36.17,0,0,0-.68,4.44l-.18-.51L84.27,276l-8.74,4.33-4.42,2.33-3.69,1.95-4.7,3.06h0A10.78,10.78,0,0,0,61.42,283a.75.75,0,0,0-.1-.17,13.77,13.77,0,0,0-.75-1.25,17.56,17.56,0,0,0-1.88-2.32,12.48,12.48,0,0,0,8-5.51c2.26-3.35,4.62-6.2,7.44-7,2.61.2,6-1.58,9.53-4l0,0c1.83-1.25,3.71-2.67,5.57-4.11l.63-.48a2.91,2.91,0,0,1,.8-.27c1.36-.29,2.51.5,3.56,1.71A7.9,7.9,0,0,1,96.05,263.77Z" fill="#353535" opacity="0.17"/></g><g id="b344b572-6b52-4782-9d9b-4b134be0893e" data-name="Layer 10"><path d="M123.94,253.57l0,0c-.31.38-.68.78-1.09,1.2-1.23,1.27-2.79,2.68-3.87,4-.25.3-.48.61-.68.89a4.31,4.31,0,0,0-.47,1c-2.2,5.93-5.61,5.34-8.2,11.82-.55,1.25-1,2.45-1.49,3.62-.4,1-.76,2-1.07,3a35.26,35.26,0,0,0-1.71,11.83c0,.49,0,1,0,1.55-.11,5.37-3,8.34-4.88,12.41a15.39,15.39,0,0,0-1.3,4,9.66,9.66,0,0,1-5.06,1.5,28.15,28.15,0,0,1-7.35-.7,31.57,31.57,0,0,0-9-.72,69.45,69.45,0,0,0-7.61.72c-2.1,0-4.09-.1-5.92-.26-5.55-.49-9.45-1.84-9.26-5.59a31.75,31.75,0,0,1,1.18-13.23,18,18,0,0,1,5.11-7.77,1.77,1.77,0,0,1,.28-.27A19.62,19.62,0,0,1,65.29,280a41.21,41.21,0,0,0,7.91-3.81,16.42,16.42,0,0,0,7-8.08,14.64,14.64,0,0,1,3.48-5.4l0,0a25.45,25.45,0,0,1,5.57-4.11c.47-.25.94-.51,1.43-.75s1.18-.59,1.8-.88c4.87-1.36,9.19-3.42,12.37-7a8,8,0,0,1,4.35-2.34,33.7,33.7,0,0,1,7.4-.13c.63,0,1.26.05,1.88,0a6.34,6.34,0,0,0,2.48,3.05,7.5,7.5,0,0,0,3.71,1C124.89,252.14,124.55,252.81,123.94,253.57Z" fill="#3d61ab"/></g><g id="fd861b33-a1b6-442c-af66-b5895cd017ff" data-name="sword"><path d="M196.82,223.71,155.18,276l-.36.47-.52-.53-2.58-2.61-2.88-2.89-.4-.41.37-.44h0l43.1-50.3c1-1.36,2.83-1.89,5.81-1.44A8.09,8.09,0,0,1,196.82,223.71Z" fill="#3c5b8f"/><path d="M196.82,223.71,155.18,276l-.36.47-.52-.53-2.58-2.61,3.82-4.6,42.19-50.88A8.09,8.09,0,0,1,196.82,223.71Z" fill="#353535" opacity="0.5"/><path d="M155.53,268.74l-7.09,1.3c.69,4.26,2.86,6.33,6.38,6.44Z" fill="#8a96af"/><path d="M150.92,280.5l-.07.07-5.11,5.11-5.43,5.42-1.58,1.6h0l-5.94,5.94c-2.19,1.49-3.71.13-2-2.38l3.63-5.51,1.07-1.6,2.43-3.69.87-1.33.64-1,0-.06,5.58-8.46,0-.06Z" fill="#6d3e20"/><path d="M159.73,289.42l-8.8-8.82-.08,0a9.19,9.19,0,0,1-5.86-5.92s0,0,0-.06l-7-7c-2.18-3,1.06-7,4.35-4.57l6.47,6.56h0c0,.13,0,.24,0,.37a2.7,2.7,0,0,0,.05.48c.44,2.17,3.47,5,5.46,5.5a1.87,1.87,0,0,0,.56.09,1.58,1.58,0,0,0,.32,0l8.45,8.47C166.92,287.79,162.56,292.19,159.73,289.42Z" fill="#84512c"/></g><g id="addc3c01-bdc1-4210-91b4-63751c40d53c" data-name="Layer 12"><path d="M147.14,293.06c-.13.18-.25.36-.4.55a4.37,4.37,0,0,1-3.16,1.58c-.9-.11-2.64-1.29-4.85-2.49h0a25.35,25.35,0,0,0-4.34-1.95,15.82,15.82,0,0,0-1.53-.45,16.75,16.75,0,0,0-3.23-.69,2.72,2.72,0,0,0-.7.05l.3-1.63.18-.94.65-3.47c.42,0,.84-.08,1.24-.13h0c3.61-.45,6.46-1.28,8.1-.38l0,.06-.53,1-.48.84c-.19.37.21.55.89.61a1.23,1.23,0,0,0,.27,0h.39c1.8.05,4.64-.25,5.82.05a1.73,1.73,0,0,1,.28.1C148.69,286.78,149,290.2,147.14,293.06Z" fill="#d68d65"/><path d="M147.14,293.06c-.13.18-.25.36-.4.55a4.37,4.37,0,0,1-3.16,1.58c-.9-.11-2.64-1.29-4.85-2.49h0a25.35,25.35,0,0,0-4.34-1.95,15.82,15.82,0,0,0-1.53-.45,16.75,16.75,0,0,0-3.23-.69,2.72,2.72,0,0,0-.7.05l.3-1.63.18-.94a1.75,1.75,0,0,0,.32.29c1.33,1.15,2.95,1,5.73,1.77.47.13,1,.29,1.53.48,1.26.48,2.3,1,3.34,1.47a23.46,23.46,0,0,0,2.58,1c.84.34.94,1.22,1.64,1.49A2.91,2.91,0,0,0,147.14,293.06Z" fill="#4d4c4c" opacity="0.41"/><path d="M139.52,285.62a8.54,8.54,0,0,1-4.18-1.09,7.82,7.82,0,0,1,3.5-.39l-.47.86C138.17,285.41,138.68,285.57,139.52,285.62Z" fill="#4d4c4c" opacity="0.41"/><path d="M129.61,289.61a15.26,15.26,0,0,0,.43,3,17,17,0,0,0-11.32-1.12c-4.28,1.07-8.39,1.68-11.65.4a8.85,8.85,0,0,0-1.74-1c-4.35-2.07-11.84-2.47-19.11-2.83-2.22-.5-3.06-2.05-3.41-4a6.25,6.25,0,0,1,.86-4.38c5.82-4.2,14.13-16.09,25-20.36a14.55,14.55,0,0,1,8.93-1,14.15,14.15,0,0,1,1.37.4,17.24,17.24,0,0,1,3.41,1.61,3.31,3.31,0,0,1,.81,1,.19.19,0,0,1,0,.1c.65,1.27.44,2.87,0,4.53-3,4.5-8.65,7.4-15.12,10.06-1.72.68-3.49,1.36-5.27,2l4.2.93,7.07,1.55,10.64,2.11,6.53.78h0a8.37,8.37,0,0,0-1.6,3.89,5.6,5.6,0,0,0-.07.59A11.1,11.1,0,0,0,129.61,289.61Z" fill="#3d61ab"/><path d="M122.82,254.81c-1.42,2-1,4.21.35,6.58a.33.33,0,0,1,.06.1h0l-5-1.83-1.62-.59.93-.7,6.33-4.76A6,6,0,0,0,122.82,254.81Z" fill="#3d61ab"/><path d="M130,292.62a17,17,0,0,0-11.32-1.12c-4.28,1.07-8.39,1.68-11.65.4a8.85,8.85,0,0,0-1.74-1c-4.35-2.07-11.84-2.47-19.11-2.83-2.22-.5-3.06-2.05-3.41-4a6.25,6.25,0,0,1,.86-4.38c5.82-4.2,14.13-16.09,25-20.36a13.77,13.77,0,0,1,1.71-.64l-2.43,4.71c-4.55,5.34-15.11,9.88-18.14,14.18-1.84,3.32-1.76,6.9,1,6.49,5.4,0,9.82,1.9,14.61,3.05A27.91,27.91,0,0,0,111,288c3.46-1.87,10.94,1.24,18.26.06l.43-.06a11.1,11.1,0,0,0,0,1.64A15.26,15.26,0,0,0,130,292.62Z" fill="#353535" opacity="0.5"/><path d="M77.82,308.92a69.45,69.45,0,0,0-7.61.72c-2.1,0-4.09-.1-5.92-.26-5.55-.49-9.45-1.84-9.26-5.59a31.75,31.75,0,0,1,1.18-13.23,18,18,0,0,1,5.11-7.77,1.77,1.77,0,0,1,.28-.27A19.62,19.62,0,0,1,65.29,280a41.21,41.21,0,0,0,7.91-3.81c-1.08,1-.75,2.69-1.18,4.21a14.85,14.85,0,0,1-.91,2.28,13.53,13.53,0,0,1-6.73,6.25c-3.6,2.22-4,5.88,0,11.57,1.18,2.46,4.91,1.5,7.64,3.93a2.91,2.91,0,0,0,.25.42A9.27,9.27,0,0,0,77.82,308.92Z" fill="#353535" opacity="0.5"/></g><g id="bac67c73-35f6-40fb-8549-41372029deb5" data-name="head"><path d="M144.72,231.84c-.65,1.52.3,3.5.81,4.73a2.28,2.28,0,0,1-.17.4c-.79,1.55-3.18,2.73-5.83,3.84-2.09,2.44-2,6.08-4.92,7.54v0l-.82.31a8.61,8.61,0,0,1-2.9.29,31.4,31.4,0,0,1-5.83-.54,9.77,9.77,0,0,0-3.18-.05,5.8,5.8,0,0,1-3-1.07,11.19,11.19,0,0,1-1.11-.78c-.53-.43-1.06-.9-1.59-1.35-.19-.14-.37-.28-.55-.44v-26.1l27.75-5.51,4.37,2.65c-.11,1.29-.17,2.54-.23,3.72C147.27,224.07,147.1,227.93,144.72,231.84Z" fill="#d68d65"/><path d="M125.05,248.43c-1.42.29-1.08,1.79-2.11,2.84a10.23,10.23,0,0,1-1.94-.65,13.21,13.21,0,0,1-3.82-2.51,7.28,7.28,0,0,1-.54-.58,7,7,0,0,1-.49-.62l1.59-.38L120,246l2.2-.55Z" fill="#d68d65"/><path d="M134.61,248.35v0l-.82.31a8.61,8.61,0,0,1-2.9.29,31.4,31.4,0,0,1-5.83-.54c-1.42.29-1.08,1.79-2.11,2.84a10.23,10.23,0,0,1-1.94-.65,13.21,13.21,0,0,1-3.82-2.51,7.28,7.28,0,0,1-.54-.58,7,7,0,0,1-.49-.62l1.59-.38c-.53-.43-1.06-.9-1.59-1.35l.53-.57,2.74-3c.67.68,1.32,1.31,2,1.88C125.9,247.47,130.3,248.89,134.61,248.35Z" fill="#4d4c4c" opacity="0.41"/><path d="M156.19,215.48a27.85,27.85,0,0,1-8.7,4c-7.64,2.34-16,3.36-17.2,8.44-2.11-5.4-7.06-7-11.07-2.16-2.44,3-1.52,8.49,7.08,8.87-2.3,2.72-3.58,6.16-4.9,8.87a20.52,20.52,0,0,1-1.19,2.21L120,246a6,6,0,0,1-1.19,1.34,2.69,2.69,0,0,1-.33.26,3.35,3.35,0,0,1-1.34.54,3.84,3.84,0,0,1-1.71-.05c-2,.05-5.39.32-10.18,3.6a51.89,51.89,0,0,0,3.95-4,10.35,10.35,0,0,0,1.58-2.24q-5.2,3.44-9.08,1.44c4.08-.59,7-2,8.08-3.7-2.72-7.37-6.75-13.17-4.53-22.17a29,29,0,0,1,5.29-10.44c5.23-6.23,13.2-8.18,24.36-5.14a12.87,12.87,0,0,0,10.4-1.2c-.22,1.63-1.59,2.6-3.32,3.35,7-1.15,13.16-1.26,17-3.35-1.75,1.82-3.5,3.64-6.65,4.31,2.65,1.91,7,.63,11.52-1-4.11,4.13-8.27,8.08-14.39,7.44A7.78,7.78,0,0,0,156.19,215.48Z" fill="#3bad60"/><path d="M145.36,237c-.79,1.55-3.18,2.73-5.83,3.84.47-.77-.11-1.62-1.23-2.51C140.71,239.08,143.05,238.42,145.36,237Z" fill="#4d4c4c" opacity="0.41"/><path d="M120.66,226.57c-.81,2.28,2.88,2.57,9.26,1.67C129.69,227.33,124.48,221,120.66,226.57Z" fill="#4d4c4c" opacity="0.41"/><path d="M120.21,245.73,120,246a6,6,0,0,1-1.19,1.34,2.69,2.69,0,0,1-.33.26,3.35,3.35,0,0,1-1.34.54,3.84,3.84,0,0,1-1.71-.05c-2,.05-5.39.32-10.18,3.6a51.89,51.89,0,0,0,3.95-4,10.35,10.35,0,0,0,1.58-2.24q-5.2,3.44-9.08,1.44c4.08-.59,7-2,8.08-3.7-2.72-7.37-6.75-13.17-4.53-22.17a29,29,0,0,1,5.29-10.44l.11.12c-6.25,13.61-1.21,28.09,4.91,33.16a7.52,7.52,0,0,0,1.08.78A6.19,6.19,0,0,0,120.21,245.73Z" fill="#353535" opacity="0.5"/></g></g><g id="bd178817-f731-4295-b898-c6329d32a929" data-name="Layer 18"><path d="M404.82,184.76l-40.45,50.82,8.2,8.23c3.2,3.21-1,7.48-3.78,4.79L360.24,240l-.08,0-5,5,.27.09c2.59,1,2.89,4.3,1.09,7.08-.13.17-.25.35-.39.53a4.23,4.23,0,0,1-3.07,1.54c-.87-.11-2.56-1.26-4.71-2.42h0l-5.78,5.77c-2.12,1.45-3.6.13-2-2.31l3.53-5.36c-.49-.17-1-.31-1.49-.43a16.15,16.15,0,0,0-3.14-.67,15.87,15.87,0,0,0,.41,2.92,16.51,16.51,0,0,0-11-1.09c-4.15,1-8.14,1.63-11.31.39a8.85,8.85,0,0,0-1.69-1c0,.48,0,1,0,1.5-.11,5.22-3,8.11-4.74,12.07L333.52,265c5.42.16,8.9,2.52,10.87,6.62-.65,9.45-.81,22.09,2.58,33.84l-1.65.92.11,4.63.72.12a16.43,16.43,0,0,0,.53,4.32c.5,1.33,2.71,1.84,4.6,2.87,1.29.54,3.94-.42,6,.09a2.66,2.66,0,0,1,2.29,2.11,4.09,4.09,0,0,1,.2,1.48,2.38,2.38,0,0,1,0,.46,2.31,2.31,0,0,1-.1.34.13.13,0,0,1,0,.07,2.21,2.21,0,0,1-.16.35,3.13,3.13,0,0,0-.23.36H359l-11.11-.09c-2.24-.52-4.34-.86-5.66-.3a9.37,9.37,0,0,1-4.95.78c-2.28-.86-2.52-2.56-2.48-4.41a6.24,6.24,0,0,1,1.38-2.33,16.06,16.06,0,0,1,1.89-1.78,6.81,6.81,0,0,0,1.16-4.32l1-.16-.2-3.23-.06.05-6.61-22.4c-3.75-6.58-16.51,7.22-36.14,9.47a10.28,10.28,0,0,0-2.75,4.84c-1.25,4-1.61,9.46-2.28,14.41l-2.94,25.26c-.45,10.43-6.34,24.31-7.39,41.92a16.55,16.55,0,0,1-4.69,1l0,1.72c.29.05.58.11.85.18a19,19,0,0,0,.41,5.06c.5,1.6,3.07,2.31,5.22,3.6,1.48.73,4.62-.25,7,.46a3.15,3.15,0,0,1,2.58,2.6,5.84,5.84,0,0,1,.16,1.72,4.46,4.46,0,0,1-.07.51,2.33,2.33,0,0,1-.16.53,2.87,2.87,0,0,1-.2.39l0,.06-.09.09s0,0,0,0a.7.7,0,0,1-.14.21l-.29,0-13-.74c-2.58-.72-5-1.25-6.58-.67-1.42.79-3.53.81-5.82.62-2.61-1.12-2.81-3.14-2.67-5.28a7.39,7.39,0,0,1,1.72-2.64,18.57,18.57,0,0,1,2.3-2,7.93,7.93,0,0,0,1.56-4.95c.4-.05.8-.1,1.19-.11l0-2c-.43-.1-.86-.21-1.3-.35L268,341.35l-1.14-34.57c.3-7.35,1.57-12.72,2.08-22.08.22-5.33,3.5-11,7.1-16.71-5.39-.48-9.18-1.78-9-5.43a30.66,30.66,0,0,1,1.15-12.85l-.05,0a1.71,1.71,0,0,0-.27.2c-1.27,1.05-3.12,3.1-4,3.26-2.23.65-4.18-2-4.47-5.39,0-.22,0-.45,0-.67a4.17,4.17,0,0,1,1.21-3c1.12-.72,5.67-.16,9.37-1.93a10.67,10.67,0,0,0,2.43-1.21,17.43,17.43,0,0,0-1.82-2.25,12.14,12.14,0,0,0,7.79-5.36c2.2-3.26,4.49-6,7.23-6.77,2.54.19,5.79-1.53,9.26-3.91h0a24.46,24.46,0,0,1,5.41-4l.61-.47a2.56,2.56,0,0,1,.78-.26c.57-.3,1.14-.58,1.75-.86,4.73-1.32,8.93-3.32,12-6.77a7.73,7.73,0,0,1,4.23-2.26,9.27,9.27,0,0,0,1.53-2.18q-5.06,3.33-8.81,1.4c4-.57,6.76-1.89,7.84-3.6-2.64-7.16-6.55-12.79-4.4-21.53A28.11,28.11,0,0,1,321,172c5.08-6.06,12.82-8,23.66-5a12.49,12.49,0,0,0,10.11-1.17c-.22,1.59-1.55,2.53-3.23,3.26,6.77-1.11,12.79-1.22,16.56-3.26-1.69,1.77-3.4,3.54-6.45,4.2,2.57,1.84,6.78.6,11.18-.94-4,4-8,7.84-14,7.22a7.55,7.55,0,0,0,6.46.47,27.14,27.14,0,0,1-8.45,3.91c-.21,4.44-.39,8.18-2.69,12-.63,1.47.28,3.4.79,4.59a2.76,2.76,0,0,1-.18.39c-.76,1.51-3.08,2.66-5.66,3.73-2,2.37-1.94,5.91-4.77,7.32l0,0-.79.31a8.42,8.42,0,0,1-2.82.28,31.37,31.37,0,0,1-5.66-.53c-1.38.28-1.05,1.74-2.06,2.77a10.13,10.13,0,0,1-1.87-.64,7.3,7.3,0,0,0,3.6,1c.17.46-.16,1.12-.75,1.86l0,0c-.3.37-.66.76-1.06,1.17-1.38,1.94-1,4.1.34,6.39a.33.33,0,0,1,.06.1h0a6.34,6.34,0,0,1,0,4.41c-2.92,4.36-8.4,7.18-14.69,9.76-.39,1-.74,1.93-1,2.89l6.87,1.5,10.34,2.05,6.34.76h0c3.52-.43,6.28-1.24,7.88-.37l5.41-8.21s0,0,0-.06l-6.77-6.79c-2.12-2.93,1-6.77,4.23-4.44l6.28,6.38h0l41.87-48.87c1-1.32,2.75-1.83,5.65-1.4A7.88,7.88,0,0,1,404.82,184.76Z" fill="#fff" stroke="#fff" stroke-linecap="round" stroke-linejoin="round" stroke-width="4"/><path d="M278,384.19l-.86.66-1.16.92-4.89-.61-.66-.07-.56-1.29c.4-.05.8-.1,1.19-.11a20.79,20.79,0,0,1,6.09.32C277.39,384.06,277.68,384.12,278,384.19Z" fill="#472513"/><path d="M281.83,381.3a16.55,16.55,0,0,1-4.69,1,19.6,19.6,0,0,1-6.17-.64c-.43-.1-.86-.21-1.3-.35l1.22-2.66,1.05-2.28,4-8.79Z" fill="#282828"/><polygon points="277.27 375.29 277.2 378.98 277.14 382.29 277.1 384.01 277.1 384.31 277.09 384.85 277.07 385.83 271.05 385.75 271.04 385.16 271.02 384.4 271.01 383.69 270.96 381.65 270.94 380.41 270.89 378.64 270.85 376.58 271.94 376.36 277.27 375.29" fill="#d68d65"/><path d="M293.32,397.63a4.46,4.46,0,0,1-.07.51,2.33,2.33,0,0,1-.16.53,2.87,2.87,0,0,1-.2.39l0,.06-.09.09s0,0,0,0a.63.63,0,0,1-.43.19l-13-.74c-2.58-.72-5-1.25-6.58-.67-1.42.79-3.53.81-5.82.62-2.61-1.12-2.81-3.14-2.67-5.28a7.39,7.39,0,0,1,1.72-2.64,18.57,18.57,0,0,1,2.3-2,7.93,7.93,0,0,0,1.56-4.95,3,3,0,0,0,1.2.6c1.57.48,3.79.24,6.08-.09l.85-.12a19,19,0,0,0,.41,5.06c.5,1.6,3.07,2.31,5.22,3.6,1.48.73,4.62-.25,7,.46a3.15,3.15,0,0,1,2.58,2.6A5.84,5.84,0,0,1,293.32,397.63Z" fill="#6d3e20"/><path d="M293.32,397.63a4.46,4.46,0,0,1-.07.51,2.33,2.33,0,0,1-.16.53,2.87,2.87,0,0,1-.2.39.53.53,0,0,1-.12.15s0,0,0,0a.7.7,0,0,1-.14.21l-.29,0-13-.74c-2.58-.72-5-1.25-6.58-.67-1.42.79-3.53.81-5.82.62-2.61-1.12-2.81-3.14-2.67-5.28a7.39,7.39,0,0,1,1.72-2.64,3.67,3.67,0,0,0,0,3.06c.7.61.91,2.39,2,3,1.18.27,3.49-.39,5.48-.77,1.64-.48,3.63.17,5.64.87,2.2.73,5.47.62,8.76.51a6.62,6.62,0,0,1,3.55.73C292.31,398.45,293,398.28,293.32,397.63Z" fill="#353535" opacity="0.5"/><polygon points="346.97 305.47 345.32 306.39 344.8 306.68 344.6 305.36 344.37 303.78 344.19 302.57 345.16 303.59 345.26 303.69 346.97 305.47" fill="#282828"/><path d="M346.15,311.14l-.7.6-1,.84-4.18-.31-.59,0-.52-1.09,1-.16a19.86,19.86,0,0,1,5.23,0Z" fill="#472513"/><polygon points="345.46 312.58 340.31 312.77 340.29 312.27 340.24 311.64 340.2 310.98 340 307.75 339.81 304.93 344.37 303.78 345.16 303.59 345.26 303.56 345.26 303.69 345.3 305.36 345.32 306.39 345.43 311.01 345.43 311.28 345.45 311.75 345.46 312.58" fill="#d68d65"/><path d="M347,305.47c-.65-.06-1.19-.09-1.67-.11h-.7c-1.86.05-2.52.69-4.6,2.39l-.06.05-6.61-22.4c-3.75-6.58-16.51,7.22-36.14,9.47a10.28,10.28,0,0,0-2.75,4.84c-1.25,4-1.61,9.46-2.28,14.41l-2.94,25.26c-.45,10.43-6.34,24.31-7.39,41.92A16.29,16.29,0,0,0,277.2,379c-2.22-.6-4-.06-6.26,1.43-.4.27-.82.56-1.27.89L268,341.35l-1.14-34.57c.3-7.35,1.57-12.72,2.08-22.08.22-5.33,3.5-11,7.1-16.71l2.68-4.22,5.08-.17,18.4-.59,4.25.27,4.76.31L333.52,265c5.42.16,8.9,2.52,10.87,6.62C343.74,281.08,343.58,293.72,347,305.47Z" fill="#4d4c4c"/><path d="M359.78,322a2.38,2.38,0,0,1,0,.46,2.31,2.31,0,0,1-.1.34.13.13,0,0,1,0,.07,2.21,2.21,0,0,1-.16.35.59.59,0,0,1-.13.19.56.56,0,0,1-.39.17l-11.11-.09c-2.24-.52-4.34-.86-5.66-.3a9.37,9.37,0,0,1-4.95.78c-2.28-.86-2.52-2.56-2.48-4.41a6.24,6.24,0,0,1,1.38-2.33,16.06,16.06,0,0,1,1.89-1.78,6.81,6.81,0,0,0,1.16-4.32,3.05,3.05,0,0,0,1.06.5,13.53,13.53,0,0,0,5.19-.36l.72-.14a16.43,16.43,0,0,0,.53,4.32c.5,1.33,2.71,1.84,4.6,2.87,1.29.54,3.94-.42,6,.09a2.66,2.66,0,0,1,2.29,2.11A4.09,4.09,0,0,1,359.78,322Z" fill="#6d3e20"/><path d="M359.78,322a2.38,2.38,0,0,1,0,.46,2.31,2.31,0,0,1-.1.34.13.13,0,0,1,0,.07,2.21,2.21,0,0,1-.16.35,3.13,3.13,0,0,0-.23.36H359l-11.11-.09c-2.24-.52-4.34-.86-5.66-.3a9.37,9.37,0,0,1-4.95.78c-2.28-.86-2.52-2.56-2.48-4.41a6.24,6.24,0,0,1,1.38-2.33,3.1,3.1,0,0,0,.1,2.61c.61.5.87,2,1.82,2.53,1,.17,3-.48,4.66-.9,1.39-.48,3.11,0,4.86.51,1.91.53,4.7.3,7.51.06a5.92,5.92,0,0,1,3.07.48C359,322.74,359.5,322.57,359.78,322Z" fill="#353535" opacity="0.5"/><path d="M347,305.47c-.65-.06-1.19-.09-1.67-.11h-.7c-1.86.05-2.52.69-4.6,2.39l-.06.05-6.61-22.4c-3.75-6.58-16.51,7.22-36.14,9.47a10.28,10.28,0,0,0-2.75,4.84l-.08,0c.92-10,7.54-21.06,10.7-30.74a36.79,36.79,0,0,0,1.42-5.65l4.76.31L333.52,265c5.42.16,8.9,2.52,10.87,6.62C343.74,281.08,343.58,293.72,347,305.47Z" fill="#353535" opacity="0.5"/><path d="M275.27,246.12a8.9,8.9,0,0,0-.72.81h0c-2.06,2.36-3.45,4.63-5,4.82l-.18-1.18-.14-1c-.06-.39-.37-.34-.82,0a2.2,2.2,0,0,0-.18.14l-.05,0a1.71,1.71,0,0,0-.27.2c-1.27,1.05-3.12,3.1-4,3.26-2.23.65-4.18-2-4.47-5.39,0-.22,0-.45,0-.67a4.17,4.17,0,0,1,1.21-3c1.12-.72,5.67-.16,9.37-1.93a10.67,10.67,0,0,0,2.43-1.21,2.38,2.38,0,0,0,.41-.43l.59,1.38.43,1Z" fill="#d68d65"/><path d="M271.41,248.32a6.09,6.09,0,0,1-2,2.26l-.14-1c-.06-.39-.37-.34-.82,0A5.49,5.49,0,0,1,271.41,248.32Z" fill="#4d4c4c" opacity="0.41"/><path d="M306.92,223.69a38.5,38.5,0,0,0-.66,4.31l-.17-.49-10.61,8.08L287,239.8l-4.3,2.27L279.11,244l-4.56,3h0a10.55,10.55,0,0,0-1.23-4.61l-.1-.17c-.22-.4-.46-.81-.73-1.21a17.43,17.43,0,0,0-1.82-2.25,12.14,12.14,0,0,0,7.79-5.36c2.2-3.26,4.49-6,7.23-6.77,2.54.19,5.79-1.53,9.26-3.91h0c1.78-1.22,3.6-2.6,5.41-4l.61-.47a2.56,2.56,0,0,1,.78-.26c1.32-.28,2.43.48,3.45,1.66A7.55,7.55,0,0,1,306.92,223.69Z" fill="#3d61ab"/><path d="M306.92,223.69a38.5,38.5,0,0,0-.66,4.31l-.17-.49-10.61,8.08L287,239.8l-4.3,2.27L279.11,244l-4.56,3h0a10.55,10.55,0,0,0-1.23-4.61l-.1-.17c-.22-.4-.46-.81-.73-1.21a17.43,17.43,0,0,0-1.82-2.25,12.14,12.14,0,0,0,7.79-5.36c2.2-3.26,4.49-6,7.23-6.77,2.54.19,5.79-1.53,9.26-3.91h0c1.78-1.22,3.6-2.6,5.41-4l.61-.47a2.56,2.56,0,0,1,.78-.26c1.32-.28,2.43.48,3.45,1.66A7.55,7.55,0,0,1,306.92,223.69Z" fill="#353535" opacity="0.17"/><path d="M334,213.78l0,0c-.3.37-.66.76-1.06,1.17-1.19,1.24-2.71,2.6-3.76,3.85-.24.29-.47.59-.66.87a3.78,3.78,0,0,0-.45.94c-2.14,5.76-5.45,5.19-8,11.49q-.79,1.81-1.44,3.51c-.39,1-.74,1.93-1,2.89a33.64,33.64,0,0,0-1.56,7.84,33.22,33.22,0,0,0-.1,3.65c0,.48,0,1,0,1.5-.11,5.22-3,8.11-4.74,12.07a14.49,14.49,0,0,0-1.26,3.88,9.4,9.4,0,0,1-4.92,1.46,27.31,27.31,0,0,1-7.14-.69,31.31,31.31,0,0,0-8.7-.7,70.68,70.68,0,0,0-7.4.7c-2,0-4-.09-5.75-.25-5.39-.48-9.18-1.78-9-5.43a30.66,30.66,0,0,1,1.15-12.85,17.45,17.45,0,0,1,5-7.55,1.1,1.1,0,0,1,.27-.26,19.27,19.27,0,0,1,3.58-2.44,39.8,39.8,0,0,0,7.69-3.7,16,16,0,0,0,6.81-7.85,14.25,14.25,0,0,1,3.38-5.25h0a24.46,24.46,0,0,1,5.41-4c.46-.25.91-.5,1.39-.73s1.14-.58,1.75-.86c4.73-1.32,8.93-3.32,12-6.77a7.73,7.73,0,0,1,4.23-2.26,32.33,32.33,0,0,1,7.18-.13c.62,0,1.24.05,1.84,0a6.05,6.05,0,0,0,2.41,3,7.3,7.3,0,0,0,3.6,1C334.94,212.38,334.61,213,334,213.78Z" fill="#3d61ab"/><path d="M404.82,184.76l-40.45,50.82L364,236l-.5-.51L361,233l-2.79-2.81-.39-.41.36-.42h0l41.87-48.87c1-1.32,2.75-1.83,5.65-1.4A7.88,7.88,0,0,1,404.82,184.76Z" fill="#3c5b8f"/><path d="M404.82,184.76l-40.45,50.82L364,236l-.5-.51L361,233l3.72-4.48,41-49.43A7.88,7.88,0,0,1,404.82,184.76Z" fill="#353535" opacity="0.5"/><path d="M364.71,228.51l-6.89,1.27c.67,4.14,2.78,6.15,6.19,6.25Z" fill="#8a96af"/><path d="M360.23,239.94l-.07.06-5,5-5.28,5.26-1.53,1.56h0l-5.78,5.77c-2.12,1.45-3.6.13-2-2.31l3.53-5.36,1-1.55,2.36-3.59.85-1.28.62-.94,0-.06,5.41-8.21.05-.06Z" fill="#6d3e20"/><path d="M368.79,248.6,360.24,240l-.08,0a9,9,0,0,1-5.7-5.74s0,0,0-.06l-6.77-6.79c-2.12-2.93,1-6.77,4.23-4.44l6.28,6.38h0c0,.13,0,.24,0,.36a2.69,2.69,0,0,0,0,.47c.43,2.11,3.37,4.85,5.3,5.34a1.81,1.81,0,0,0,.55.09,3,3,0,0,0,.31,0l8.2,8.23C375.77,247,371.54,251.29,368.79,248.6Z" fill="#84512c"/><path d="M356.56,252.14c-.13.17-.25.35-.39.53a4.23,4.23,0,0,1-3.07,1.54c-.87-.11-2.56-1.26-4.71-2.42h0a25,25,0,0,0-4.21-1.9c-.49-.17-1-.31-1.49-.43a16.15,16.15,0,0,0-3.14-.67,2.21,2.21,0,0,0-.68.05l.29-1.59.17-.91.63-3.37c.42,0,.82-.08,1.21-.13h0c3.52-.43,6.28-1.24,7.88-.37l0,.06-.52.95-.46.82c-.18.36.2.53.86.59a1.14,1.14,0,0,0,.26,0h.39c1.75.05,4.5-.24,5.65.05l.27.09C358.06,246,358.36,249.36,356.56,252.14Z" fill="#d68d65"/><path d="M356.56,252.14c-.13.17-.25.35-.39.53a4.23,4.23,0,0,1-3.07,1.54c-.87-.11-2.56-1.26-4.71-2.42h0a25,25,0,0,0-4.21-1.9c-.49-.17-1-.31-1.49-.43a16.15,16.15,0,0,0-3.14-.67,2.21,2.21,0,0,0-.68.05l.29-1.59.17-.91a1.69,1.69,0,0,0,.32.28c1.29,1.11,2.86,1,5.56,1.72.46.12,1,.28,1.49.47,1.22.46,2.24,1,3.24,1.42a20.5,20.5,0,0,0,2.51,1c.82.32.92,1.18,1.59,1.44A2.86,2.86,0,0,0,356.56,252.14Z" fill="#4d4c4c" opacity="0.41"/><path d="M349.16,244.91a8.16,8.16,0,0,1-4.06-1.06,7.45,7.45,0,0,1,3.39-.37l-.45.83C347.84,244.7,348.34,244.86,349.16,244.91Z" fill="#4d4c4c" opacity="0.41"/><path d="M339.53,248.79a15.87,15.87,0,0,0,.41,2.92,16.51,16.51,0,0,0-11-1.09c-4.15,1-8.14,1.63-11.31.39a8.85,8.85,0,0,0-1.69-1c-4.23-2-11.5-2.39-18.57-2.75-2.15-.48-3-2-3.31-3.87a6.15,6.15,0,0,1,.83-4.25c5.67-4.08,13.74-15.63,24.28-19.78a14,14,0,0,1,1.66-.62,13.29,13.29,0,0,1,7-.31,12.62,12.62,0,0,1,1.33.39,17.13,17.13,0,0,1,3.32,1.56,3.37,3.37,0,0,1,.78,1,.19.19,0,0,1,.05.1,6.34,6.34,0,0,1,0,4.41c-2.92,4.36-8.4,7.18-14.69,9.76-1.67.67-3.39,1.32-5.12,2l4.08.9,6.87,1.5,10.34,2.05,6.34.76h0a8.25,8.25,0,0,0-1.54,3.78c0,.18-.06.38-.08.57A12.09,12.09,0,0,0,339.53,248.79Z" fill="#3d61ab"/><path d="M332.93,215c-1.38,1.94-1,4.1.34,6.39a.33.33,0,0,1,.06.1h0l-4.81-1.77-1.57-.58.9-.68,6.15-4.63A5.73,5.73,0,0,0,332.93,215Z" fill="#3d61ab"/><path d="M339.94,251.71a16.51,16.51,0,0,0-11-1.09c-4.15,1-8.14,1.63-11.31.39a8.85,8.85,0,0,0-1.69-1c-4.23-2-11.5-2.39-18.57-2.75-2.15-.48-3-2-3.31-3.87a6.15,6.15,0,0,1,.83-4.25c5.67-4.08,13.74-15.63,24.28-19.78a14,14,0,0,1,1.66-.62l-2.37,4.58c-4.41,5.18-14.68,9.59-17.62,13.77-1.79,3.23-1.7,6.71,1,6.3,5.24,0,9.53,1.85,14.19,3a27,27,0,0,0,5.36.82c3.36-1.82,10.63,1.21,17.74.06a2.9,2.9,0,0,0,.41-.06,12.09,12.09,0,0,0,0,1.6A15.87,15.87,0,0,0,339.94,251.71Z" fill="#353535" opacity="0.5"/><path d="M289.22,267.54a70.68,70.68,0,0,0-7.4.7c-2,0-4-.09-5.75-.25-5.39-.48-9.18-1.78-9-5.43a30.66,30.66,0,0,1,1.15-12.85,17.45,17.45,0,0,1,5-7.55,1.1,1.1,0,0,1,.27-.26,19.27,19.27,0,0,1,3.58-2.44,39.8,39.8,0,0,0,7.69-3.7c-1.05,1-.73,2.61-1.15,4.09a13,13,0,0,1-7.42,8.29c-3.5,2.16-3.89,5.71,0,11.24,1.14,2.39,4.77,1.46,7.42,3.82a2.7,2.7,0,0,0,.25.4C285.26,266,287.12,266.81,289.22,267.54Z" fill="#353535" opacity="0.5"/><path d="M354.21,192.67c-.63,1.47.28,3.4.79,4.59a2.76,2.76,0,0,1-.18.39c-.76,1.51-3.08,2.66-5.66,3.73-2,2.37-1.94,5.91-4.77,7.32l0,0-.79.31a8.42,8.42,0,0,1-2.82.28,31.37,31.37,0,0,1-5.66-.53,9.48,9.48,0,0,0-3.09,0,5.71,5.71,0,0,1-2.94-1,10.63,10.63,0,0,1-1.07-.77c-.52-.41-1-.87-1.55-1.3-.19-.14-.36-.28-.53-.43V179.84l26.95-5.35,4.25,2.57c-.1,1.26-.16,2.47-.22,3.62C356.69,185.12,356.51,188.86,354.21,192.67Z" fill="#d68d65"/><path d="M335.1,208.78c-1.38.28-1.05,1.74-2.06,2.77a10.13,10.13,0,0,1-1.87-.64,12.71,12.71,0,0,1-3.72-2.44c-.18-.18-.37-.37-.53-.56s-.33-.4-.47-.6l1.55-.38,2.23-.54,2.14-.53Z" fill="#d68d65"/><path d="M344.39,208.7l0,0-.79.31a8.42,8.42,0,0,1-2.82.28,31.37,31.37,0,0,1-5.66-.53c-1.38.28-1.05,1.74-2.06,2.77a10.13,10.13,0,0,1-1.87-.64,12.71,12.71,0,0,1-3.72-2.44c-.18-.18-.37-.37-.53-.56s-.33-.4-.47-.6l1.55-.38c-.52-.41-1-.87-1.55-1.3l.52-.56,2.66-2.89c.65.67,1.28,1.28,1.92,1.84C335.93,207.85,340.2,209.23,344.39,208.7Z" fill="#4d4c4c" opacity="0.41"/><path d="M365.35,176.77a27.14,27.14,0,0,1-8.45,3.91c-7.42,2.27-15.53,3.26-16.72,8.2-2.05-5.25-6.85-6.83-10.75-2.1-2.36,2.94-1.47,8.25,6.88,8.62-2.23,2.64-3.48,6-4.76,8.62a20.18,20.18,0,0,1-1.16,2.14l-.16.23a6.18,6.18,0,0,1-1.16,1.31,3.31,3.31,0,0,1-1.62.77,3.77,3.77,0,0,1-1.66-.05c-1.92.05-5.23.32-9.89,3.5a53.09,53.09,0,0,0,3.84-3.88,9.27,9.27,0,0,0,1.53-2.18q-5.06,3.33-8.81,1.4c4-.57,6.76-1.89,7.84-3.6-2.64-7.16-6.55-12.79-4.4-21.53A28.11,28.11,0,0,1,321,172c5.08-6.06,12.82-8,23.66-5a12.49,12.49,0,0,0,10.11-1.17c-.22,1.59-1.55,2.53-3.23,3.26,6.77-1.11,12.79-1.22,16.56-3.26-1.69,1.77-3.4,3.54-6.45,4.2,2.57,1.84,6.78.6,11.18-.94-4,4-8,7.84-14,7.22A7.55,7.55,0,0,0,365.35,176.77Z" fill="#3bad60"/><path d="M354.82,197.65c-.76,1.51-3.08,2.66-5.66,3.73.46-.75-.1-1.57-1.19-2.44C350.31,199.7,352.59,199.06,354.82,197.65Z" fill="#4d4c4c" opacity="0.41"/><path d="M330.83,187.54c-.79,2.23,2.8,2.51,9,1.63C339.61,188.29,334.54,182.17,330.83,187.54Z" fill="#4d4c4c" opacity="0.41"/><path d="M330.39,206.16l-.16.23a6.18,6.18,0,0,1-1.16,1.31,3.31,3.31,0,0,1-1.62.77,3.77,3.77,0,0,1-1.66-.05c-1.92.05-5.23.32-9.89,3.5a53.09,53.09,0,0,0,3.84-3.88,9.27,9.27,0,0,0,1.53-2.18q-5.06,3.33-8.81,1.4c4-.57,6.76-1.89,7.84-3.6-2.64-7.16-6.55-12.79-4.4-21.53A28.11,28.11,0,0,1,321,172l.11.11c-6.07,13.22-1.18,27.29,4.77,32.21a6.05,6.05,0,0,0,1.05.76A6,6,0,0,0,330.39,206.16Z" fill="#353535" opacity="0.5"/></g><g id="f59826a9-9c95-49f5-ace6-07e8c29612c8" data-name="kanone"><path d="M677.8,221.62c-2.45,2.36-7.56,3.64-16.15,2.57L624,212.88c-4.69,22-23,38.36-45,38.36-16,0-30.17-8.76-38.43-22.08-21.1-2.27-37.56-20.87-37.56-43.47a46.76,46.76,0,0,1,.87-8.92l-57.19-17.18a3.09,3.09,0,0,0,.6.08l-3.77-1.13c-9.27-3-13.66-15-9.85-26.91s14.44-19.11,23.69-16.14a12.66,12.66,0,0,1,2.14.92l68.58,29.29A40.05,40.05,0,0,1,545,142a40.8,40.8,0,0,1,27.63,10.83,43.36,43.36,0,0,1,6.38-.47c20.38,0,37.68,14.15,43.76,33.8l45.92,19.59C677.43,208.64,682.56,217.12,677.8,221.62Z" fill="#fff" stroke="#fff" stroke-linecap="round" stroke-linejoin="round" stroke-width="4"/><g id="bd86fb28-d16b-45a8-ab7b-43cab4c1b898" data-name="Layer 6"><ellipse cx="544.47" cy="185.85" rx="7.64" ry="6.41" transform="translate(258.11 684.83) rotate(-79)" fill="#7c4b1f"/><line x1="574.35" y1="166.28" x2="514.28" y2="205.01" fill="none" stroke="#69472b" stroke-miterlimit="10" stroke-width="4"/><line x1="521.2" y1="159.23" x2="567.39" y2="212.78" fill="none" stroke="#69472b" stroke-miterlimit="10" stroke-width="4"/><line x1="510.47" y1="182.54" x2="578.28" y2="189.51" fill="none" stroke="#69472b" stroke-miterlimit="10" stroke-width="4"/><line x1="549.83" y1="221.78" x2="538.57" y2="148.85" fill="none" stroke="#69472b" stroke-miterlimit="10" stroke-width="4"/><line x1="526.91" y1="219.17" x2="561.82" y2="152.48" fill="none" stroke="#69472b" stroke-miterlimit="10" stroke-width="4"/><path d="M578.23,189.51c-.13.94-.28,1.89-.46,2.84-4,20.61-22.18,34.42-40.6,30.84a30.59,30.59,0,0,1-10.26-4A34,34,0,0,1,514.29,205a40.27,40.27,0,0,1-3.69-22.46c.12-1.05.28-2.1.49-3.16a41,41,0,0,1,10.11-20.15,34.87,34.87,0,0,1,17.36-10.38,30.68,30.68,0,0,1,23.26,3.62,34,34,0,0,1,12.54,13.8A40.35,40.35,0,0,1,578.23,189.51Z" fill="none" stroke="#593b24" stroke-miterlimit="10" stroke-width="6"/></g><g id="b9b2c8c1-1d1a-4da9-b850-289e41458419" data-name="Layer 5"><path d="M677.8,221.62c-2.45,2.36-7.56,3.64-16.15,2.57L624,212.84l-5.47-1.63-30.93-9.31-.66-.2-2.59-.77-2.84-.86-1.36-.41-.95-.29-1.26-.39-1.83-.54-3-.89-.84-.26-22.91-6.9-1.75-.52-2.86-.86-1.79-.54-1.32-.39-.75-.23L538,187l-2.8-.83-5.3-1.62-18.74-5.63L508,178l-4.14-1.25-56.61-17-3.77-1.13.93-2.88,2.24-7,9.7-30.18,1-3,2.14.92,68.58,29.29,4.82,2.06,3.81,1.61,2.08.89,18.5,7.89,1.26.55,7.06,3,8.16,3.5,4.6,2,5.62,2.39,4.78,2,16,6.84L615,182.81l7.75,3.33,45.92,19.59C677.43,208.64,682.56,217.12,677.8,221.62Z" fill="#383838"/><path d="M677.8,221.62c-2.45,2.36-7.56,3.64-16.15,2.57L624,212.88l-5.46-1.65-31-9.33-.57-.16-2.6-.79-2.88-.86-1.34-.41-1-.27-1.24-.37-1.83-.56-3-.9-.74-.23-23-6.92-1.65-.48-2.92-.88-1.82-.54-1.31-.41-.79-.23L538,187l-2.8-.83-5.62-1.7L511.19,179,508,178l-4.14-1.24-57.19-17.18a3.09,3.09,0,0,0,.6.08c7.29,1.16,13.16-3.77,17.71-10.48,13.85,5,28.35,10.38,43,15.8l4.24,1.58,3,1.11q9.76,3.63,19.51,7.26,2.28.85,4.55,1.67c1.27.49,2.53,1,3.79,1.42l.82.31,1.84.68,1.83.68,1.61.59a0,0,0,0,1,0,0c.53.17,1,.37,1.56.56l.6.23q10.82,4,21.3,7.84c.58.23,1.19.44,1.77.64l3.59,1.34,3.13,1.13c.39.15.8.29,1.19.42,1.3.47,2.6,1,3.89,1.4l1.38.51q8.65,3.15,16.86,6c5.08,1.81,10,3.52,14.75,5.15,1.91.66,3.77,1.28,5.62,1.91C649.87,216,669.17,221.49,677.8,221.62Z" fill="#282828" opacity="0.5"/><path d="M467.21,142.41c-3.83,11.88-14.44,19.1-23.69,16.13s-13.66-15-9.85-26.91,14.44-19.11,23.69-16.14a12.66,12.66,0,0,1,2.14.92C467.29,120.41,470.71,131.47,467.21,142.41Z" fill="#555454"/><ellipse cx="453.53" cy="138.08" rx="20.11" ry="13.54" transform="translate(183.18 527.53) rotate(-72.17)" fill="#282828" opacity="0.5"/></g><g id="b749c44a-d8a4-432e-80a3-3012acbfa4ac" data-name="Layer 3"><line x1="609.54" y1="173.99" x2="548.85" y2="230.42" fill="none" stroke="#7c4b1f" stroke-miterlimit="10" stroke-width="4"/><line x1="546.56" y1="177.67" x2="611.94" y2="227.56" fill="none" stroke="#7c4b1f" stroke-miterlimit="10" stroke-width="4"/><line x1="539.4" y1="206.09" x2="619.29" y2="199.14" fill="none" stroke="#7c4b1f" stroke-miterlimit="10" stroke-width="4"/><line x1="593.68" y1="241.45" x2="564.29" y2="162.27" fill="none" stroke="#7c4b1f" stroke-miterlimit="10" stroke-width="4"/><polyline points="591.96 161.28 588.77 171.6 582.34 192.47 581.83 194.14 580.14 199.66 580.12 199.68 579.4 202 579.25 202.56 579.23 202.6 579.21 202.64 576.78 210.57 566.62 243.51 566.62 243.53" fill="none" stroke="#7c4b1f" stroke-miterlimit="10" stroke-width="4"/><path d="M619.34,202.42q0,1.61-.12,3.15a43.45,43.45,0,0,1-.7,5.64v0a44.82,44.82,0,0,1-6.57,16.32c-7.25,11-19.15,18.23-32.57,18.23a37.33,37.33,0,0,1-12.75-2.25v0a39.73,39.73,0,0,1-17.77-13.1,44.94,44.94,0,0,1-2.79-4c-.53-.88-1-1.75-1.5-2.69a45.17,45.17,0,0,1-5-17.62c-.11-1.21-.15-2.43-.15-3.66a46.42,46.42,0,0,1,.8-8.66c.09-.53.21-1.07.35-1.6a41.34,41.34,0,0,1,1.08-4,.07.07,0,0,1,0,0c.08-.31.2-.62.31-.93s.32-.9.47-1.32.35-.9.54-1.34c.26-.61.51-1.21.82-1.79a34,34,0,0,1,1.94-3.68l.37-.64.45-.72a42.54,42.54,0,0,1,5.89-7.28,39.77,39.77,0,0,1,11.83-8.11c.45-.21.88-.39,1.33-.56a38.6,38.6,0,0,1,4.85-1.56,30.7,30.7,0,0,1,3.44-.66,34.21,34.21,0,0,1,5.47-.42A36.81,36.81,0,0,1,592,161.28,39.82,39.82,0,0,1,609.55,174a43.56,43.56,0,0,1,5.46,8.82,45.09,45.09,0,0,1,4.2,16.33C619.3,200.23,619.34,201.32,619.34,202.42Z" fill="none" stroke="#633a18" stroke-miterlimit="10" stroke-width="6"/><ellipse cx="579.41" cy="202.4" rx="7.54" ry="8.71" fill="#7c4b1f" stroke="#603716" stroke-miterlimit="10" stroke-width="0.75"/></g></g><g id="e8353e9c-f01d-4df9-aad7-4af623f46db1" data-name="Layer 19"><path d="M75.88,513.72c2.47,1.59,7,1.84,14.15-.47l30.16-15.8c7.59,17.91,25.87,28.82,44.51,25.22,13.63-2.63,24.2-12.4,29-25.07,17.56-5.39,28.5-23.9,24.79-43.11a40.17,40.17,0,0,0-2.21-7.43l45.79-24a3.28,3.28,0,0,1-.5.17l3-1.58c7.38-4.06,9.14-15,3.95-24.49s-15.4-13.87-22.78-9.82a9.91,9.91,0,0,0-1.66,1.13l-53.48,36.14a34.93,34.93,0,0,0-15-.38A35.35,35.35,0,0,0,154,438a37.1,37.1,0,0,0-5.5.64c-17.32,3.35-29.7,18.21-31.64,35.91L81,498.71C74.06,502.62,71.09,510.67,75.88,513.72Z" fill="#fff" stroke="#fff" stroke-linecap="round" stroke-linejoin="round" stroke-width="4"/><ellipse cx="183.83" cy="460.52" rx="5.67" ry="6.63" transform="translate(-94.87 50.4) rotate(-12.44)" fill="#7c4b1f"/><line x1="157.37" y1="443.55" x2="210.55" y2="477.14" fill="none" stroke="#69472b" stroke-miterlimit="10" stroke-width="4"/><line x1="204.43" y1="437.44" x2="163.53" y2="483.88" fill="none" stroke="#69472b" stroke-miterlimit="10" stroke-width="4"/><line x1="213.92" y1="457.65" x2="153.9" y2="463.7" fill="none" stroke="#69472b" stroke-miterlimit="10" stroke-width="4"/><line x1="179.08" y1="491.68" x2="189.05" y2="428.44" fill="none" stroke="#69472b" stroke-miterlimit="10" stroke-width="4"/><line x1="199.38" y1="489.42" x2="168.47" y2="431.59" fill="none" stroke="#69472b" stroke-miterlimit="10" stroke-width="4"/><path d="M153.94,463.69c.11.82.25,1.65.41,2.47C157.89,484,174,496,190.29,492.9a27.42,27.42,0,0,0,9.08-3.48,29.77,29.77,0,0,0,11.18-12.28,34.32,34.32,0,0,0,3.26-19.48c-.1-.91-.25-1.82-.43-2.74a35.27,35.27,0,0,0-9-17.48,31.08,31.08,0,0,0-15.36-9,27.86,27.86,0,0,0-11.62-.26,27.37,27.37,0,0,0-9,3.41,29.7,29.7,0,0,0-11.09,12A34.33,34.33,0,0,0,153.94,463.69Z" fill="none" stroke="#593b24" stroke-miterlimit="10" stroke-width="6"/><path d="M75.88,513.72c2.47,1.59,7,1.84,14.15-.47l30.14-15.83,4.37-2.28,24.77-13,.53-.28,2.06-1.08,2.28-1.19,1.08-.57.77-.41,1-.53,1.46-.77,2.38-1.24.67-.36,18.34-9.62,1.4-.73,2.28-1.2,1.43-.75,1.06-.55.61-.32,2.3-1.2,2.24-1.17,4.25-2.24,15-7.87,2.52-1.32,3.32-1.74,45.31-23.77,3-1.58-1.27-2.29-3-5.56-13.2-24.06-1.32-2.4-1.66,1.13-53.48,36.14-3.76,2.54-3,2-1.62,1.1L167.87,440l-1,.67-5.5,3.72L155,448.7l-3.59,2.42-4.39,3-3.72,2.52L130.86,465l-8,5.4-6,4.1L81,498.71C74.06,502.62,71.09,510.67,75.88,513.72Z" fill="#383838"/><path d="M75.88,513.72c2.47,1.59,7,1.84,14.15-.47l30.16-15.8,4.37-2.3,24.81-13,.46-.23,2.08-1.1,2.3-1.2,1.07-.57.77-.39,1-.51,1.46-.78,2.39-1.25.59-.32,18.44-9.66,1.32-.69,2.33-1.22,1.47-.76,1-.56.64-.33,2.25-1.19,2.24-1.17,4.5-2.36,14.74-7.73,2.54-1.33,3.31-1.73,45.79-24a3.28,3.28,0,0,1-.5.17c-6,2.18-11.8-1.05-16.77-6-11,6.54-22.39,13.47-34,20.49l-3.34,2-2.36,1.43q-7.71,4.69-15.39,9.38c-1.2.73-2.39,1.46-3.59,2.17-1,.62-2,1.22-3,1.82l-.64.4c-.5.29-1,.58-1.46.88s-1,.58-1.44.88l-1.28.76s0,0,0,0l-1.23.73-.47.3q-8.53,5.18-16.82,10.15c-.45.3-.93.58-1.4.84l-2.83,1.73c-.83.48-1.66,1-2.47,1.47-.31.2-.63.38-.94.56l-3.07,1.82-1.09.66q-6.84,4.1-13.35,7.9c-4,2.37-7.93,4.64-11.69,6.8-1.51.88-3,1.71-4.46,2.54C98.68,504.31,83.19,512.18,75.88,513.72Z" fill="#282828" opacity="0.5"/><path d="M241.84,411.84c5.2,9.46,15.4,13.86,22.78,9.82s9.14-15,3.95-24.49-15.4-13.87-22.78-9.82a9.91,9.91,0,0,0-1.66,1.13C238.16,393.16,237.07,403.12,241.84,411.84Z" fill="#555454"/><ellipse cx="252.75" cy="405.92" rx="11.72" ry="17.41" transform="translate(-164.14 171.72) rotate(-28.76)" fill="#282828" opacity="0.5"/><line x1="126.07" y1="462.04" x2="186.9" y2="500.03" fill="none" stroke="#7c4b1f" stroke-miterlimit="10" stroke-width="4"/><line x1="180.2" y1="454.83" x2="132.82" y2="507.95" fill="none" stroke="#7c4b1f" stroke-miterlimit="10" stroke-width="4"/><line x1="190.94" y1="477.8" x2="121.91" y2="485.01" fill="none" stroke="#7c4b1f" stroke-miterlimit="10" stroke-width="4"/><line x1="150.62" y1="516.76" x2="162.6" y2="444.65" fill="none" stroke="#7c4b1f" stroke-miterlimit="10" stroke-width="4"/><polyline points="138.93 448.35 143.33 456.6 152.22 473.28 152.92 474.62 155.26 479.03 155.28 479.04 156.28 480.89 156.5 481.34 156.52 481.37 156.55 481.4 159.91 487.74 173.96 514.07 173.96 514.08" fill="none" stroke="#7c4b1f" stroke-miterlimit="10" stroke-width="4"/><path d="M122.41,487.81c.17.9.38,1.79.61,2.65a40,40,0,0,0,1.52,4.68h0a38.51,38.51,0,0,0,8.26,12.79c8,8.2,19.26,12.35,30.67,10.15a32,32,0,0,0,10.47-4h0a34.25,34.25,0,0,0,13-14.05,40.81,40.81,0,0,0,1.72-3.88c.3-.83.59-1.65.83-2.52a39.05,39.05,0,0,0,1.35-15.8c-.1-1.05-.27-2.09-.47-3.13a39.56,39.56,0,0,0-2.1-7.24,13.23,13.23,0,0,0-.56-1.29,32.7,32.7,0,0,0-1.58-3.26l0,0a6,6,0,0,0-.41-.74c-.19-.36-.41-.71-.62-1.05s-.44-.7-.68-1.05a16.56,16.56,0,0,0-1-1.38,26.37,26.37,0,0,0-2.25-2.81q-.2-.24-.42-.48c-.17-.19-.33-.37-.5-.54a37,37,0,0,0-6.2-5.23,34.25,34.25,0,0,0-11.39-4.94c-.41-.11-.8-.19-1.21-.26a33.79,33.79,0,0,0-4.38-.53,25.7,25.7,0,0,0-3,0,29.16,29.16,0,0,0-4.71.53,32,32,0,0,0-10.34,4A34.42,34.42,0,0,0,126.06,462a37,37,0,0,0-3.19,8.39A39,39,0,0,0,122,485C122.08,485.93,122.23,486.86,122.41,487.81Z" fill="none" stroke="#633a18" stroke-miterlimit="10" stroke-width="6"/><ellipse cx="156.33" cy="481.23" rx="6.53" ry="7.54" transform="translate(-88.41 38.37) rotate(-10.93)" fill="#7c4b1f" stroke="#603716" stroke-miterlimit="10" stroke-width="0.75"/></g><g id="f9e2f6b4-1f7e-42c8-a25e-841a66eace20" data-name="Layer 17"><path d="M523.85,239.09l38,44.08-7.71,7.14a2.74,2.74,0,1,0,3.56,4.16l8-7.43.09,0,4.66,4.31-.26.08c-2.44.85-2.72,3.73-1,6.14.12.15.22.3.36.46a4.14,4.14,0,0,0,2.88,1.34c.82-.1,2.41-1.1,4.43-2.11h0l5.42,5c2,1.26,3.38.11,1.85-2l-3.31-4.65c.45-.15.93-.27,1.4-.38a15.59,15.59,0,0,1,3-.57,13.44,13.44,0,0,1-.39,2.53,16.72,16.72,0,0,1,10.33-.95c3.9.91,7.65,1.42,10.62.34a8.84,8.84,0,0,1,1.59-.86c0,.42,0,.86,0,1.31.11,4.52,2.78,7,4.46,10.46l-20.93,1.24c-5.09.13-8.36,2.18-10.21,5.74.61,8.2.75,19.16-2.42,29.36l1.55.79-.11,4-.68.1a13.78,13.78,0,0,1-.49,3.75c-.48,1.16-2.55,1.6-4.33,2.49-1.21.47-3.7-.36-5.64.08a2.43,2.43,0,0,0-2.16,1.83,3.48,3.48,0,0,0-.18,1.28,1.9,1.9,0,0,0,0,.41,1.4,1.4,0,0,0,.09.29.11.11,0,0,0,0,.06,1.47,1.47,0,0,0,.15.31l.12.16a.65.65,0,0,0,.1.15h.27l10.43-.09c2.11-.44,4.09-.74,5.32-.25a9.42,9.42,0,0,0,4.65.67c2.14-.74,2.37-2.22,2.33-3.82a5.21,5.21,0,0,0-1.29-2,15,15,0,0,0-1.78-1.55,5.56,5.56,0,0,1-1.09-3.75l-1-.13.19-2.8.06,0,6.2-19.44c3.53-5.71,15.52,6.27,34,8.22a8.77,8.77,0,0,1,2.58,4.2c1.18,3.49,1.51,8.2,2.15,12.5l2.76,21.91c.41,9,5.95,21.09,6.93,36.37a17.15,17.15,0,0,0,4.41.86l0,1.49c-.27,0-.54.1-.8.15a15.1,15.1,0,0,1-.39,4.39c-.47,1.39-2.88,2-4.9,3.13-1.39.63-4.34-.22-6.57.4a2.86,2.86,0,0,0-2.43,2.25,4.72,4.72,0,0,0-.15,1.5,3.64,3.64,0,0,0,.07.44,1.9,1.9,0,0,0,.15.46,1.35,1.35,0,0,0,.19.33.09.09,0,0,0,0,.06l.08.08,0,0a.55.55,0,0,0,.14.17h.27l12.21-.65c2.43-.62,4.72-1.08,6.18-.58,1.34.69,3.32.7,5.47.54,2.45-1,2.64-2.72,2.51-4.58a6.37,6.37,0,0,0-1.62-2.29,17.94,17.94,0,0,0-2.15-1.71,6.45,6.45,0,0,1-1.47-4.29,11.08,11.08,0,0,0-1.12-.1l0-1.76c.41-.1.81-.19,1.21-.31l1.55-34.66,1.07-30c-.29-6.37-1.47-11-2-19.15-.2-4.62-3.28-9.55-6.66-14.49,5.06-.42,8.62-1.55,8.44-4.72a24.63,24.63,0,0,0-1.08-11.15s0,0,0,0a1.17,1.17,0,0,1,.26.17c1.2.92,2.94,2.7,3.72,2.83,2.1.57,3.93-1.72,4.2-4.67,0-.19,0-.39,0-.58a3.57,3.57,0,0,0-1.13-2.66c-1.06-.62-5.34-.13-8.81-1.67a10,10,0,0,1-2.28-1.05,15,15,0,0,1,1.71-1.95,11.5,11.5,0,0,1-7.33-4.65c-2.06-2.82-4.21-5.22-6.78-5.87-2.39.16-5.44-1.33-8.7-3.39l0,0a23.26,23.26,0,0,0-5.08-3.46l-.58-.4a2.61,2.61,0,0,0-.72-.23c-.54-.26-1.08-.5-1.65-.74-4.44-1.15-8.39-2.88-11.28-5.87a7.51,7.51,0,0,0-4-2,8.47,8.47,0,0,1-1.44-1.88q4.75,2.88,8.28,1.21c-3.71-.5-6.35-1.65-7.36-3.13,2.48-6.21,6.15-11.09,4.13-18.68a23.76,23.76,0,0,0-4.83-8.79c-4.77-5.25-12-6.9-22.23-4.34a12.58,12.58,0,0,1-9.49-1c.2,1.37,1.45,2.2,3,2.83-6.36-1-12-1.06-15.56-2.83,1.59,1.54,3.2,3.07,6.06,3.64-2.41,1.6-6.37.52-10.5-.81,3.74,3.47,7.54,6.8,13.13,6.26a7.61,7.61,0,0,1-6.06.41,26.67,26.67,0,0,0,7.93,3.39c.2,3.85.37,7.1,2.53,10.4.6,1.28-.26,3-.74,4a1.8,1.8,0,0,0,.17.34c.71,1.31,2.89,2.3,5.32,3.23,1.89,2.06,1.81,5.13,4.48,6.36h0l.74.27a8.7,8.7,0,0,0,2.66.25,31.65,31.65,0,0,0,5.32-.46c1.29.24,1,1.51,1.92,2.39a9.38,9.38,0,0,0,1.77-.55,7.36,7.36,0,0,1-3.38.88c-.16.4.15,1,.7,1.61l0,0a13.2,13.2,0,0,0,1,1c1.29,1.68.94,3.56-.32,5.55l-.06.08h0a5.15,5.15,0,0,0,0,3.83c2.75,3.78,7.9,6.23,13.81,8.47.36.85.69,1.67,1,2.5L599.33,287l-9.71,1.78-6,.66h0c-3.3-.38-5.9-1.08-7.4-.33L571.15,282s0,0,0-.06l6.36-5.88c2-2.55-1-5.87-4-3.85l-5.9,5.53h0l-39.33-42.4c-.93-1.14-2.58-1.58-5.3-1.21A6.36,6.36,0,0,0,523.85,239.09Z" fill="#fff" stroke="#fff" stroke-linecap="round" stroke-linejoin="round" stroke-width="4"/><path d="M643,412.09l.81.58,1.09.8,4.59-.53.62-.07.53-1.11a11.08,11.08,0,0,0-1.12-.1,21.21,21.21,0,0,0-5.72.28C643.56,412,643.29,412,643,412.09Z" fill="#472513"/><path d="M639.38,409.59a17.15,17.15,0,0,0,4.41.86,20.21,20.21,0,0,0,5.8-.55c.41-.1.81-.19,1.21-.31l-1.14-2.31-1-2-3.8-7.62Z" fill="#282828"/><polygon points="643.66 404.37 643.73 407.58 643.79 410.45 643.83 411.94 643.83 412.2 643.84 412.67 643.85 413.52 649.51 413.45 649.52 412.94 649.54 412.28 649.55 411.66 649.59 409.9 649.62 408.82 649.66 407.28 649.7 405.49 648.68 405.3 643.66 404.37" fill="#d68d65"/><path d="M628.59,423.76a3.64,3.64,0,0,0,.07.44,1.9,1.9,0,0,0,.15.46,1.35,1.35,0,0,0,.19.33.09.09,0,0,0,0,.06l.08.08,0,0a.67.67,0,0,0,.41.16l12.21-.65c2.43-.62,4.72-1.08,6.18-.58,1.34.69,3.32.7,5.47.54,2.45-1,2.64-2.72,2.51-4.58a6.37,6.37,0,0,0-1.62-2.29,17.94,17.94,0,0,0-2.15-1.71,6.45,6.45,0,0,1-1.47-4.29,3.09,3.09,0,0,1-1.13.52,15.75,15.75,0,0,1-5.71-.08l-.8-.11a15.1,15.1,0,0,1-.39,4.39c-.47,1.39-2.88,2-4.9,3.13-1.39.63-4.34-.22-6.57.4a2.86,2.86,0,0,0-2.43,2.25A4.72,4.72,0,0,0,628.59,423.76Z" fill="#6d3e20"/><path d="M628.59,423.76a3.64,3.64,0,0,0,.07.44,1.9,1.9,0,0,0,.15.46,1.35,1.35,0,0,0,.19.33.45.45,0,0,0,.11.14l0,0a.55.55,0,0,0,.14.17h.27l12.21-.65c2.43-.62,4.72-1.08,6.18-.58,1.34.69,3.32.7,5.47.54,2.45-1,2.64-2.72,2.51-4.58a6.37,6.37,0,0,0-1.62-2.29,3,3,0,0,1,0,2.66c-.66.52-.87,2.07-1.89,2.63-1.1.23-3.27-.33-5.15-.67-1.53-.42-3.4.15-5.29.76-2.07.63-5.14.53-8.23.44a6.71,6.71,0,0,0-3.34.63C629.54,424.47,628.93,424.32,628.59,423.76Z" fill="#353535" opacity="0.5"/><polygon points="578.2 343.81 579.75 344.6 580.23 344.86 580.42 343.71 580.63 342.34 580.81 341.29 579.89 342.18 579.8 342.26 578.2 343.81" fill="#282828"/><path d="M579,348.72l.66.53.92.73,3.93-.27.55,0,.49-.95-1-.13a19.63,19.63,0,0,0-4.91,0Z" fill="#472513"/><polygon points="579.61 349.98 584.45 350.14 584.47 349.71 584.51 349.15 584.55 348.59 584.74 345.79 584.92 343.34 580.63 342.34 579.89 342.18 579.8 342.15 579.8 342.26 579.76 343.71 579.75 344.6 579.64 348.62 579.64 348.85 579.62 349.25 579.61 349.98" fill="#d68d65"/><path d="M578.2,343.81c.6-.06,1.11-.08,1.56-.1h.66c1.75,0,2.37.6,4.32,2.08l.06,0,6.2-19.44c3.53-5.71,15.52,6.27,34,8.22a8.77,8.77,0,0,1,2.58,4.2c1.18,3.49,1.51,8.2,2.15,12.5l2.76,21.91c.41,9,5.95,21.09,6.93,36.37a15.87,15.87,0,0,1,4.35-2c2.09-.53,3.76-.05,5.89,1.24.38.23.77.48,1.18.77l1.55-34.66,1.07-30c-.29-6.37-1.47-11-2-19.15-.2-4.62-3.28-9.55-6.66-14.49-.84-1.23-1.69-2.44-2.52-3.67l-4.77-.15L620.22,307l-4,.23-4.47.27-20.93,1.24c-5.09.13-8.36,2.18-10.21,5.74C581.23,322.65,581.37,333.61,578.2,343.81Z" fill="#4d4c4c"/><path d="M566.16,358.15a1.9,1.9,0,0,0,0,.41,1.4,1.4,0,0,0,.09.29.11.11,0,0,0,0,.06,1.47,1.47,0,0,0,.15.31l.12.16a.58.58,0,0,0,.37.15l10.43-.09c2.11-.44,4.09-.74,5.32-.25a9.42,9.42,0,0,0,4.65.67c2.14-.74,2.37-2.22,2.33-3.82a5.21,5.21,0,0,0-1.29-2,15,15,0,0,0-1.78-1.55,5.56,5.56,0,0,1-1.09-3.75,2.66,2.66,0,0,1-1,.43,13.37,13.37,0,0,1-4.87-.31l-.68-.12a13.78,13.78,0,0,1-.49,3.75c-.48,1.16-2.55,1.6-4.33,2.49-1.21.47-3.7-.36-5.64.08a2.43,2.43,0,0,0-2.16,1.83A3.48,3.48,0,0,0,566.16,358.15Z" fill="#6d3e20"/><path d="M566.16,358.15a1.9,1.9,0,0,0,0,.41,1.4,1.4,0,0,0,.09.29.11.11,0,0,0,0,.06,1.47,1.47,0,0,0,.15.31l.12.16a.65.65,0,0,0,.1.15h.27l10.43-.09c2.11-.44,4.09-.74,5.32-.25a9.42,9.42,0,0,0,4.65.67c2.14-.74,2.37-2.22,2.33-3.82a5.21,5.21,0,0,0-1.29-2,2.51,2.51,0,0,1-.1,2.26c-.58.43-.82,1.75-1.71,2.19-1,.15-2.78-.41-4.37-.78-1.31-.41-2.93,0-4.57.45s-4.42.25-7.06.05a5.78,5.78,0,0,0-2.88.42C566.94,358.78,566.42,358.64,566.16,358.15Z" fill="#353535" opacity="0.5"/><path d="M578.2,343.81c.6-.06,1.11-.08,1.56-.1h.66c1.75,0,2.37.6,4.32,2.08l.06,0,6.2-19.44c3.53-5.71,15.52,6.27,34,8.22a8.77,8.77,0,0,1,2.58,4.2l.07,0c-.86-8.7-7.08-18.26-10.05-26.67a29.43,29.43,0,0,1-1.33-4.9l-4.47.27-20.93,1.24c-5.09.13-8.36,2.18-10.21,5.74C581.23,322.65,581.37,333.61,578.2,343.81Z" fill="#353535" opacity="0.5"/><path d="M645.55,292.32c.24.23.47.47.67.7h0c1.94,2.05,3.25,4,4.67,4.18l.17-1,.13-.83c0-.34.35-.3.77,0l.17.12s0,0,0,0a1.17,1.17,0,0,1,.26.17c1.2.92,2.94,2.7,3.72,2.83,2.1.57,3.93-1.72,4.2-4.67,0-.19,0-.39,0-.58a3.57,3.57,0,0,0-1.13-2.66c-1.06-.62-5.34-.13-8.81-1.67a10,10,0,0,1-2.28-1.05,2,2,0,0,1-.39-.37l-.55,1.2-.41.87Z" fill="#d68d65"/><path d="M649.17,294.23a5.5,5.5,0,0,0,1.92,1.95l.13-.83c0-.34.35-.3.77,0A5.38,5.38,0,0,0,649.17,294.23Z" fill="#4d4c4c" opacity="0.41"/><path d="M615.81,272.86a28,28,0,0,1,.62,3.74l.16-.43,10,7,8,3.65,4,2,3.37,1.65,4.28,2.57h0a8.6,8.6,0,0,1,1.16-4l.09-.15c.21-.35.43-.7.69-1.05a15,15,0,0,1,1.71-1.95,11.5,11.5,0,0,1-7.33-4.65c-2.06-2.82-4.21-5.22-6.78-5.87-2.39.16-5.44-1.33-8.7-3.39l0,0c-1.67-1.05-3.38-2.24-5.08-3.46l-.58-.4a2.61,2.61,0,0,0-.72-.23,3.56,3.56,0,0,0-3.25,1.44A6.37,6.37,0,0,0,615.81,272.86Z" fill="#3d61ab"/><path d="M615.81,272.86a28,28,0,0,1,.62,3.74l.16-.43,10,7,8,3.65,4,2,3.37,1.65,4.28,2.57h0a8.6,8.6,0,0,1,1.16-4l.09-.15c.21-.35.43-.7.69-1.05a15,15,0,0,1,1.71-1.95,11.5,11.5,0,0,1-7.33-4.65c-2.06-2.82-4.21-5.22-6.78-5.87-2.39.16-5.44-1.33-8.7-3.39l0,0c-1.67-1.05-3.38-2.24-5.08-3.46l-.58-.4a2.61,2.61,0,0,0-.72-.23,3.56,3.56,0,0,0-3.25,1.44A6.37,6.37,0,0,0,615.81,272.86Z" fill="#353535" opacity="0.17"/><path d="M590.36,264.26l0,0a13.2,13.2,0,0,0,1,1c1.12,1.08,2.55,2.26,3.53,3.34.23.26.44.51.62.76a3.1,3.1,0,0,1,.43.82c2,5,5.12,4.5,7.49,10,.5,1.05,1,2.06,1.36,3.05s.69,1.67,1,2.5a27.5,27.5,0,0,1,1.56,10c0,.42,0,.86,0,1.31.11,4.52,2.78,7,4.46,10.46a12.31,12.31,0,0,1,1.18,3.37,9.41,9.41,0,0,0,4.62,1.26,27.48,27.48,0,0,0,6.71-.59,31.83,31.83,0,0,1,8.18-.61c2.16.07,4.49.29,6.95.61,1.91,0,3.73-.08,5.4-.21,5.06-.42,8.62-1.55,8.44-4.72a24.63,24.63,0,0,0-1.08-11.15,15.21,15.21,0,0,0-4.66-6.55,1.27,1.27,0,0,0-.25-.22,18.55,18.55,0,0,0-3.37-2.12,39.83,39.83,0,0,1-7.22-3.2c-3-1.8-5.28-4-6.4-6.82a12.13,12.13,0,0,0-3.17-4.55l0,0a23.26,23.26,0,0,0-5.08-3.46c-.43-.21-.86-.43-1.3-.63s-1.08-.5-1.65-.74c-4.44-1.15-8.39-2.88-11.28-5.87a7.51,7.51,0,0,0-4-2,33.62,33.62,0,0,0-6.75-.11c-.57,0-1.15,0-1.72,0a5.34,5.34,0,0,1-2.26,2.57,7.36,7.36,0,0,1-3.38.88C589.5,263.05,589.81,263.62,590.36,264.26Z" fill="#3d61ab"/><path d="M523.85,239.09l38,44.08.33.39.47-.44,2.36-2.2,2.63-2.43.36-.35-.34-.37h0l-39.33-42.4c-.93-1.14-2.58-1.58-5.3-1.21A6.36,6.36,0,0,0,523.85,239.09Z" fill="#3c5b8f"/><path d="M523.85,239.09l38,44.08.33.39.47-.44,2.36-2.2-3.49-3.87L523,234.16A6.36,6.36,0,0,0,523.85,239.09Z" fill="#353535" opacity="0.5"/><path d="M561.53,277l6.47,1.1c-.63,3.59-2.61,5.34-5.82,5.42Z" fill="#8a96af"/><path d="M565.74,287l.07.05,4.66,4.31,4.95,4.57,1.44,1.34h0l5.42,5c2,1.26,3.38.11,1.85-2l-3.31-4.65-1-1.35-2.23-3.11-.79-1.11-.58-.81,0-.06L571.15,282l0-.06Z" fill="#6d3e20"/><path d="M557.7,294.47l8-7.43.09,0a8.07,8.07,0,0,0,5.34-5s0,0,0-.06l6.36-5.88c2-2.55-1-5.87-4-3.85l-5.9,5.53h0c0,.11,0,.2,0,.31a3,3,0,0,1,0,.41c-.41,1.83-3.17,4.21-5,4.63a1.86,1.86,0,0,1-.51.08,1.29,1.29,0,0,1-.29,0l-7.71,7.14A2.74,2.74,0,1,0,557.7,294.47Z" fill="#84512c"/><path d="M569.19,297.54c.12.15.22.3.36.46a4.14,4.14,0,0,0,2.88,1.34c.82-.1,2.41-1.1,4.43-2.11h0a25,25,0,0,1,4-1.64c.45-.15.93-.27,1.4-.38a15.59,15.59,0,0,1,3-.57,2.21,2.21,0,0,1,.63,0l-.27-1.38-.16-.79-.59-2.93c-.39,0-.77-.06-1.14-.1h0c-3.3-.38-5.9-1.08-7.4-.33l0,.06.49.82.43.71c.17.31-.19.46-.81.51a1,1,0,0,1-.24,0h-.37a43.45,43.45,0,0,0-5.3,0l-.26.08C567.77,292.25,567.49,295.13,569.19,297.54Z" fill="#d68d65"/><path d="M569.19,297.54c.12.15.22.3.36.46a4.14,4.14,0,0,0,2.88,1.34c.82-.1,2.41-1.1,4.43-2.11h0a25,25,0,0,1,4-1.64c.45-.15.93-.27,1.4-.38a15.59,15.59,0,0,1,3-.57,2.21,2.21,0,0,1,.63,0l-.27-1.38-.16-.79a2.25,2.25,0,0,1-.3.24c-1.21,1-2.69.85-5.22,1.49-.43.11-.91.25-1.4.41-1.15.4-2.11.85-3.05,1.24a21.23,21.23,0,0,1-2.36.86c-.76.28-.86,1-1.49,1.25A2.81,2.81,0,0,1,569.19,297.54Z" fill="#4d4c4c" opacity="0.41"/><path d="M576.14,291.27a8.31,8.31,0,0,0,3.81-.92,7.48,7.48,0,0,0-3.19-.32l.43.72C577.37,291.09,576.91,291.23,576.14,291.27Z" fill="#4d4c4c" opacity="0.41"/><path d="M585.19,294.64a13.44,13.44,0,0,1-.39,2.53,16.72,16.72,0,0,1,10.33-.95c3.9.91,7.65,1.42,10.62.34a8.84,8.84,0,0,1,1.59-.86c4-1.74,10.8-2.08,17.44-2.38a3.76,3.76,0,0,0,3.11-3.36,5,5,0,0,0-.78-3.69c-5.32-3.54-12.9-13.56-22.8-17.16a16,16,0,0,0-1.56-.54,13.65,13.65,0,0,0-6.59-.27c-.41.1-.83.21-1.25.34A16.16,16.16,0,0,0,591.8,270a2.92,2.92,0,0,0-.74.85s0,0,0,.08a5.15,5.15,0,0,0,0,3.83c2.75,3.78,7.9,6.23,13.81,8.47,1.56.58,3.18,1.14,4.81,1.72l-3.84.78L599.33,287l-9.71,1.78-6,.66h0a6.76,6.76,0,0,1,1.45,3.27,4.29,4.29,0,0,1,.07.5A10.56,10.56,0,0,1,585.19,294.64Z" fill="#3d61ab"/><path d="M591.38,265.3c1.29,1.68.94,3.56-.32,5.55l-.06.08h0l4.51-1.53,1.48-.5-.85-.6-5.77-4A5.22,5.22,0,0,1,591.38,265.3Z" fill="#3d61ab"/><path d="M584.8,297.17a16.72,16.72,0,0,1,10.33-.95c3.9.91,7.65,1.42,10.62.34a8.84,8.84,0,0,1,1.59-.86c4-1.74,10.8-2.08,17.44-2.38a3.76,3.76,0,0,0,3.11-3.36,5,5,0,0,0-.78-3.69c-5.32-3.54-12.9-13.56-22.8-17.16a16,16,0,0,0-1.56-.54l2.22,4c4.15,4.5,13.79,8.32,16.55,11.94,1.69,2.8,1.61,5.82-.94,5.47-4.93,0-9,1.6-13.33,2.57a27,27,0,0,1-5,.72c-3.15-1.58-10,1.05-16.66.05l-.39-.05a10.56,10.56,0,0,1,0,1.39A13.44,13.44,0,0,1,584.8,297.17Z" fill="#353535" opacity="0.5"/><path d="M632.45,310.9c2.16.07,4.49.29,6.95.61,1.91,0,3.73-.08,5.4-.21,5.06-.42,8.62-1.55,8.44-4.72a24.63,24.63,0,0,0-1.08-11.15,15.21,15.21,0,0,0-4.66-6.55,1.27,1.27,0,0,0-.25-.22,18.55,18.55,0,0,0-3.37-2.12,39.83,39.83,0,0,1-7.22-3.2c1,.83.69,2.26,1.08,3.54a11.83,11.83,0,0,0,.83,1.92,12,12,0,0,0,6.15,5.27c3.28,1.87,3.65,5,0,9.75-1.08,2.07-4.49,1.27-7,3.31a3,3,0,0,1-.23.35A8.42,8.42,0,0,1,632.45,310.9Z" fill="#353535" opacity="0.5"/><path d="M571.39,246c.6,1.28-.26,3-.74,4a1.8,1.8,0,0,0,.17.34c.71,1.31,2.89,2.3,5.32,3.23,1.89,2.06,1.81,5.13,4.48,6.36h0l.74.27a8.7,8.7,0,0,0,2.66.25,31.65,31.65,0,0,0,5.32-.46,9.4,9.4,0,0,1,2.89,0A5.49,5.49,0,0,0,595,259a7,7,0,0,0,1-.66c.49-.36,1-.75,1.46-1.13.17-.12.34-.24.5-.37v-22l-25.32-4.64-4,2.23c.1,1.09.15,2.14.2,3.14C569.06,239.4,569.23,242.65,571.39,246Z" fill="#d68d65"/><path d="M589.35,259.93c1.29.24,1,1.51,1.92,2.39a9.38,9.38,0,0,0,1.77-.55,12.29,12.29,0,0,0,3.49-2.11c.17-.16.35-.33.49-.49s.31-.35.45-.52l-1.46-.33-2.1-.47-2-.45Z" fill="#d68d65"/><path d="M580.62,259.86h0l.74.27a8.7,8.7,0,0,0,2.66.25,31.65,31.65,0,0,0,5.32-.46c1.29.24,1,1.51,1.92,2.39a9.38,9.38,0,0,0,1.77-.55,12.29,12.29,0,0,0,3.49-2.11c.17-.16.35-.33.49-.49s.31-.35.45-.52l-1.46-.33c.49-.36,1-.75,1.46-1.13l-.49-.48-2.5-2.51c-.61.58-1.2,1.11-1.81,1.59C588.57,259.12,584.55,260.32,580.62,259.86Z" fill="#4d4c4c" opacity="0.41"/><path d="M560.93,232.16a26.67,26.67,0,0,0,7.93,3.39c7,2,14.59,2.83,15.71,7.11,1.92-4.55,6.43-5.92,10.1-1.82,2.22,2.55,1.39,7.15-6.47,7.48,2.1,2.29,3.28,5.18,4.47,7.47a16,16,0,0,0,1.1,1.86c.05.07.09.14.14.2A5.35,5.35,0,0,0,595,259c.1.09.21.15.3.22a3.26,3.26,0,0,0,1.23.46,4,4,0,0,0,1.56,0,17.06,17.06,0,0,1,9.29,3,46.76,46.76,0,0,1-3.61-3.37,8.47,8.47,0,0,1-1.44-1.88q4.75,2.88,8.28,1.21c-3.71-.5-6.35-1.65-7.36-3.13,2.48-6.21,6.15-11.09,4.13-18.68a23.76,23.76,0,0,0-4.83-8.79c-4.77-5.25-12-6.9-22.23-4.34a12.58,12.58,0,0,1-9.49-1c.2,1.37,1.45,2.2,3,2.83-6.36-1-12-1.06-15.56-2.83,1.59,1.54,3.2,3.07,6.06,3.64-2.41,1.6-6.37.52-10.5-.81,3.74,3.47,7.54,6.8,13.13,6.26A7.61,7.61,0,0,1,560.93,232.16Z" fill="#3bad60"/><path d="M570.82,250.27c.71,1.31,2.89,2.3,5.32,3.23-.44-.64.09-1.36,1.11-2.11A7.91,7.91,0,0,1,570.82,250.27Z" fill="#4d4c4c" opacity="0.41"/><path d="M593.36,241.5c.73,1.93-2.64,2.17-8.46,1.41C585.11,242.15,589.87,236.84,593.36,241.5Z" fill="#4d4c4c" opacity="0.41"/><path d="M593.77,257.65c.05.07.09.14.14.2A5.35,5.35,0,0,0,595,259c.1.09.21.15.3.22a3.26,3.26,0,0,0,1.23.46,4,4,0,0,0,1.56,0,17.06,17.06,0,0,1,9.29,3,46.76,46.76,0,0,1-3.61-3.37,8.47,8.47,0,0,1-1.44-1.88q4.75,2.88,8.28,1.21c-3.71-.5-6.35-1.65-7.36-3.13,2.48-6.21,6.15-11.09,4.13-18.68a23.76,23.76,0,0,0-4.83-8.79l-.1.09c5.7,11.48,1.11,23.68-4.48,28a7.41,7.41,0,0,1-1,.66A6,6,0,0,1,593.77,257.65Z" fill="#353535" opacity="0.5"/></g></svg>