<svg id="bf3f5997-e8b9-4b7b-8e8e-36e544c05a34" data-name="teaCooker" xmlns="http://www.w3.org/2000/svg" xmlns:xlink="http://www.w3.org/1999/xlink" viewBox="0 0 737.01 566.93"><defs><radialGradient id="ec695b50-5e95-4443-b766-952eb1475e83" cx="507.53" cy="310.38" r="42.11" gradientUnits="userSpaceOnUse"><stop offset="0" stop-color="#6b8441" stop-opacity="0.1"/><stop offset="0.13" stop-color="#6b8441" stop-opacity="0.16"/><stop offset="0.33" stop-color="#6b8441" stop-opacity="0.34"/><stop offset="0.58" stop-color="#6b8441" stop-opacity="0.62"/><stop offset="0.87" stop-color="#6b8441"/></radialGradient><radialGradient id="fcf7da3d-5826-4a05-96e9-75e97d171333" cx="491.66" cy="404.06" r="43.99" gradientTransform="matrix(0.06, -1.32, 3.32, 0.23, -875.31, 972.64)" gradientUnits="userSpaceOnUse"><stop offset="0" stop-color="#906586"/><stop offset="0.2" stop-color="#986d8e"/><stop offset="0.53" stop-color="#af84a5"/><stop offset="0.93" stop-color="#d5a8cb"/><stop offset="1" stop-color="#dcafd2"/></radialGradient></defs><g id="f7dd2907-c66c-4273-bd04-067bf0cfb53d" data-name="Layer 20"><rect width="737.01" height="566.93" fill="#d18b52" opacity="0.5"/><ellipse cx="336.04" cy="472.63" rx="247.57" ry="52.56" fill="#855126"/></g><polygon points="143.96 272.08 143.96 400.08 315.19 400.08 315.19 391.23 325.4 381.02 325.4 311.92 317.57 304.08 317.57 280.6 307.53 270.55 143.96 272.08" fill="#238c82"/><rect x="128.3" y="301.28" width="42.55" height="34.04" fill="#a9a9a9"/><rect x="134.09" y="362.98" width="36.77" height="17.7" fill="#434444"/><rect x="209.95" y="343.23" width="90.89" height="23.49" fill="#434444"/><text transform="translate(204.77 339) scale(1.14 1)" font-size="83" fill="#f2f2f2" font-family="Lato-Regular, Lato">∞</text><line x1="248.85" y1="314.32" x2="259.9" y2="314.32" fill="none" stroke="#f2f2f2" stroke-miterlimit="10" stroke-width="2"/><line x1="254.78" y1="309.19" x2="254.78" y2="319.45" fill="none" stroke="#f2f2f2" stroke-miterlimit="10" stroke-width="2"/><line x1="220" y1="314.32" x2="231.05" y2="314.32" fill="none" stroke="#f2f2f2" stroke-miterlimit="10" stroke-width="2"/><path d="M528.64,292.85v53.46a5.43,5.43,0,0,1-5.43,5.43H470.07a5.43,5.43,0,0,1-5.43-5.43v-52.1l17.13-17.13a5.34,5.34,0,0,1,1.55-1.08,5.43,5.43,0,0,1,2.29-.51H509a5.43,5.43,0,0,1,2.29.51,5.34,5.34,0,0,1,1.55,1.08Z" fill="#a9a9a9"/><path d="M528.64,329.9v16.41a5.43,5.43,0,0,1-5.43,5.43H470.07a5.43,5.43,0,0,1-5.43-5.43V321.9c3.6,7.23,10.12,2.42,9.7,8.4.68,8.05,6.81-9.87,19.75-5.28,7.8,3.83,10.21-8.85,14.8,0C521.75,345.75,524.92,337,528.64,329.9Z" opacity="0.8" fill="url(#ec695b50-5e95-4443-b766-952eb1475e83)"/><path d="M511.32,276l-3,13.51a1.67,1.67,0,0,1-1.62,1.3H489.23a1.41,1.41,0,0,1-1.34-1L483.32,276a5.43,5.43,0,0,1,2.29-.51H509A5.43,5.43,0,0,1,511.32,276Z" fill="#5d5454" opacity="0.5"/><line x1="497.32" y1="283.46" x2="497.32" y2="205.36" fill="none" stroke="#5d5455" stroke-linecap="round" stroke-linejoin="round" stroke-width="3"/><rect x="482.51" y="180.51" width="29.79" height="34.72" rx="5.62" fill="#b1d17d"/><polyline points="482.51 191.75 475.23 181.15 486.21 164.3 497.4 164.3" fill="none" stroke="#5d5455" stroke-linecap="round" stroke-linejoin="round" stroke-width="3"/><polyline points="512.21 191.75 519.49 181.15 508.51 164.3 497.32 164.3 497.4 146.47" fill="none" stroke="#5d5455" stroke-linecap="round" stroke-linejoin="round" stroke-width="3"/><circle cx="497.16" cy="132.67" r="13.84" fill="#5d5455" stroke="#5d5455" stroke-linecap="round" stroke-linejoin="round" stroke-width="3"/><polyline points="490.85 123.83 286.94 123.83 286.94 283.89" fill="none" stroke="#374f9e" stroke-linecap="round" stroke-linejoin="round" stroke-width="3"/><polyline points="500.38 123.83 500.38 113.34 276.38 113.34 276.38 283.89" fill="none" stroke="#e83b3b" stroke-linecap="round" stroke-linejoin="round" stroke-width="3"/><g id="b99d3b67-314e-4719-9ee9-0e118e04f655" data-name="Layer 19"><ellipse cx="495.38" cy="467.51" rx="58.09" ry="13.6" fill="#906586"/><polygon points="429 378.52 437.3 467.51 553.47 467.51 561.77 378.52 429 378.52" fill="#906586"/><ellipse cx="495.38" cy="378.52" rx="66.39" ry="15.54" fill="url(#fcf7da3d-5826-4a05-96e9-75e97d171333)"/><path d="M551.21,406.23c20.78-26.42,43.37-20.72,34.7,9-9,18.93-23.58,11.72-35.27,35.6" fill="none" stroke="#75496d" stroke-linecap="round" stroke-linejoin="round" stroke-width="8"/></g></svg>