<svg xmlns="http://www.w3.org/2000/svg" viewBox="0 0 738 567"><defs><style>.cls-1,.cls-2{fill:#ffd402;}.cls-1{opacity:0.4;}.cls-2{opacity:0.5;}.cls-3{fill:#ad6d40;}.cls-4,.cls-9{fill:#3a3a3a;}.cls-4,.cls-8{opacity:0.53;}.cls-5{fill:#e5bda2;}.cls-6{fill:#667527;}.cls-7{fill:#97af3f;}.cls-10{fill:#b78b6e;}.cls-11{fill:#3f6ab1;}.cls-12{fill:#a9a9a9;}.cls-13{fill:#bababa;}.cls-14{fill:#914795;}.cls-15{font-size:18px;fill:#f2d5e8;font-family:Arial-BoldMT, Arial;font-weight:700;}</style></defs><g id="Layer_12" data-name="Layer 12"><rect class="cls-1" width="738" height="567"/><path class="cls-2" d="M701.68,515.39c0,18.92-19,36.54-51.88,51.31H105.56c-32.83-14.77-51.88-32.39-51.88-51.31,0-52.19,145.06-94.5,324-94.5S701.68,463.2,701.68,515.39Z" transform="translate(0.32 0.11)"/></g><g id="pants"><path class="cls-3" d="M301.47,346.81c-.24,2.68-.48,5.78-.72,9.24-.18,2.69-.37,5.59-.55,8.69-.11,1.92-.23,3.92-.34,6-3.22,59-6,173.39-5.64,196.17h-41.9c-5.89-49.1-9.69-98.58-11.81-148.36-13.84,35.74-23.54,85-28.94,148.36H166.08c-1.92-45.81-2.86-87.52-2.65-124.49q0-4.72.08-9.35.24-20.66,1-39.19.16-4.11.36-8.11a53.16,53.16,0,0,1,7.83.6s2.46-10.76,4.7-19.28c1.6-6.11,3.23-11.9,4.9-17.42l.53,7.62c6.79.15,13.58.3,20.3.39,29.47.42,57.72-.16,80.32-5.25A108.13,108.13,0,0,0,301.47,346.81Z" transform="translate(0.32 0.11)"/><path class="cls-4" d="M300.75,356.05c-.18,2.69-.37,5.59-.55,8.69-.11,1.92-.23,3.92-.34,6l-.05.06c-27,6.86-117.07,11-117.07,11l-6.49,15c-1.48,2.09-7.08,4.16-8.85,4.34,1.52,16.21,1.24,28.86-3.89,31.93l-.08.05c.1-13.92.45-27,1.06-39.24.11-2.22.23-4.4.36-6.56a65.35,65.35,0,0,1,7.83.48s2.46-8.7,4.7-15.59c1.6-4.94,3.23-9.62,4.9-14.08l.53,6.16c6.79.12,13.58.24,20.3.31,29.47.34,57.72-.13,80.32-4.24A129.36,129.36,0,0,0,300.75,356.05Z" transform="translate(0.32 0.11)"/></g><g id="Layer_7" data-name="Layer 7"><path class="cls-5" d="M336,140.08c-7.66,5.39-14.44,14.36-20.92,24.53-2.32,2.5-5.51,2.48-8.93,1.79l-11.75-6.74-.37,1.45-2.44,9.67a34.28,34.28,0,0,0-.51,13.6c.72,3.64,2.41,6.83,5.88,7.81l2.8,20.93-41.1-11.23-1.79-26.3S264,162.17,264.17,152a13.53,13.53,0,0,0-1.29-6.6,8.08,8.08,0,0,0-1.43-2c-8.17-8.17-6.9-41.87-6.9-41.87l59.49-13L349.15,97C349.61,113.65,346.23,128.52,336,140.08Z" transform="translate(0.32 0.11)"/><path class="cls-4" d="M294.25,159.25l-.24,1.86-2.44,9.67a34.28,34.28,0,0,0-.51,13.6l-.12.91c-13.22-9.4-22.73-20.45-26.77-33.31a13.53,13.53,0,0,0-1.29-6.6l3.16-18,7.36-5.6C271.74,136.61,274.47,146.49,294.25,159.25Z" transform="translate(0.32 0.11)"/></g><g id="oberteil"><path class="cls-6" d="M153.11,388.56a42.65,42.65,0,0,0-15.33,7l-.08.09c9.28,5.64,32.71-.52,35-7.88A58.13,58.13,0,0,0,153.11,388.56Z" transform="translate(0.32 0.11)"/><path class="cls-7" d="M426.18,235.5c.66-4,2.73-7.7,7.16-14.35-34.45-12.88-69.67-22.43-109.13-18.37a38.91,38.91,0,0,1-27.27-10.85c-7.31,14.65-21.91,4.85-39.83-16.08-33.71,9.54-59,25.46-78.13,46a220.29,220.29,0,0,0-35,77.77c-.7,2.92-1.34,5.87-1.95,8.87-.21,1-.4,2-.59,3q-.24,1.23-.45,2.46c-4.36,24.42-5.64,51.53-3.36,81.76a42.69,42.69,0,0,1,15.49-7.12,52.32,52.32,0,0,1,11.71-1.26,65.9,65.9,0,0,1,7.86.48s2.46-8.7,4.7-15.59c.89-2.77,1.8-5.44,2.72-8.05l2.71.13,6.05.11h0q7.16.13,14.26.21c29.47.34,57.72-.13,80.32-4.24,10.45-1.9,19.69-4.58,27.29-8.32a44.49,44.49,0,0,0,19.15-20.68q-1.65-8.49-2.62-16.34c-1.9-15.47-1.7-29,1-40.29,2-8.16,5.26-15.13,10-20.73,20-14.46,48.58-18.7,88.08-10A28.52,28.52,0,0,1,426.18,235.5Z" transform="translate(0.32 0.11)"/><g class="cls-8"><path class="cls-9" d="M329.87,331.34A44.49,44.49,0,0,1,310.72,352c-7.6,3.74-16.84,6.42-27.29,8.32,18.9-10.59,32.76-26.49,43.82-45.34Q328.21,322.85,329.87,331.34Z" transform="translate(0.32 0.11)"/><path class="cls-9" d="M329.87,331.34A44.49,44.49,0,0,1,310.72,352c-7.6,3.74-16.84,6.42-27.29,8.32,18.9-10.59,32.76-26.49,43.82-45.34Q328.21,322.85,329.87,331.34Z" transform="translate(0.32 0.11)"/><path class="cls-9" d="M329.87,331.34A44.49,44.49,0,0,1,310.72,352c-7.6,3.74-16.84,6.42-27.29,8.32,18.9-10.59,32.76-26.49,43.82-45.34Q328.21,322.85,329.87,331.34Z" transform="translate(0.32 0.11)"/></g><path class="cls-4" d="M153.11,388.56a42.69,42.69,0,0,0-15.49,7.12c-2.28-30.23-1-57.34,3.36-81.76q.21-1.23.45-2.46c.19-1,.38-2,.59-3,.61-3,1.25-5.95,1.95-8.87C142.89,337.51,139.88,380.41,153.11,388.56Z" transform="translate(0.32 0.11)"/><path class="cls-6" d="M433.34,221.15c-4.43,6.65-6.5,10.38-7.16,14.35a28.52,28.52,0,0,0,.2,8.52C433.53,237.31,434.61,229.46,433.34,221.15Z" transform="translate(0.32 0.11)"/><path class="cls-4" d="M426.38,244c-39.5-8.74-68.09-4.5-88.08,10-4.78,5.6-8.07,12.57-10,20.73-.71-21.55,32.26-70.53,97.92-39.21A28.52,28.52,0,0,0,426.38,244Z" transform="translate(0.32 0.11)"/><path class="cls-4" d="M215.23,252.44c-22,18.44-27.44,56.58-31.86,95.94q-.56,4.86-1.09,9.73c-.74,2-1.46,4-2.18,6l2.71.13,6.05.11c4.77.08,9.53.15,14.25.2C221.53,312.15,240.1,238.47,215.23,252.44Z" transform="translate(0.32 0.11)"/></g><g id="hands"><path class="cls-5" d="M165.94,387.32l-.28,5.1-2.23,40.68c-9.23.13-15.34-7.38-17.64-17.59a48.65,48.65,0,0,1,1.4-25.1,41.71,41.71,0,0,1,5.92-1.85,52.32,52.32,0,0,1,11.71-1.26Z" transform="translate(0.32 0.11)"/><path class="cls-10" d="M165.94,387.32l-.28,5.1c-11.27,4.66-20,10.95-19.87,23.09a48.65,48.65,0,0,1,1.4-25.1,41.71,41.71,0,0,1,5.92-1.85,52.32,52.32,0,0,1,11.71-1.26Z" transform="translate(0.32 0.11)"/><path class="cls-5" d="M456.43,253l-.21.12c-6.24,3.77-17.4-2.67-30.2-12.53a22,22,0,0,1,.16-5.12,18.32,18.32,0,0,1,1-3.5,40,40,0,0,1,3.43-6.55,40.41,40.41,0,0,1,19.08,8C456.46,238.87,459.87,246.16,456.43,253Z" transform="translate(0.32 0.11)"/><path class="cls-10" d="M456.22,253.15c-6.24,3.77-17.4-2.67-30.2-12.53a22,22,0,0,1,.16-5.12,18.32,18.32,0,0,1,1-3.5C434.82,242.12,445.3,251.26,456.22,253.15Z" transform="translate(0.32 0.11)"/></g><g id="haare"><path class="cls-11" d="M341.11,107c-7.31-1.45-13.33-5.45-17.24-13.66-2.45,8.05-17.85,11.7-47.76,10.42-8.49-7.54-15,.55-14.37,8.15.39,5,3.81,9.73,11.66,9.79-.36,6-5,20.8-9.66,24.43-5.18,1.56-8.29-9.75-10.72-13.34-4.86-5.71-5.47-16.85-5.47-16.85.22-3.78,1.13-15.82,3-17.24-5-2.31-9.58-2.79-13.67-1.27-3.65,1.35-6.94,4.3-9.88,8.93-2.64,5.19-.74,13.22-.72,20.68a23.07,23.07,0,0,1-1.32,8.55c-8.6,18.93-23.84,36.13-34.22,36.77,16.13-16.17,15-34.48,7.79-52.08-2.09-9.37-5-18.43-1.65-29.79,1.8-6,5.35-12.61,11.73-20.26,9.17-8.39,19.18-13.46,30.9-11.87,11.24,1.8,18.63,7.89,18.25,13.15,4.61-5.27,12.33-10.67,26.58-13.89,12.23-2.45,23.28-1.27,37.51,3.17,14.82,6.48,27.53,15.26,33.42,31.17C356.17,97.46,354.78,117.71,341.11,107Z" transform="translate(0.32 0.11)"/><path class="cls-4" d="M226.26,127.08a23.07,23.07,0,0,1-1.32,8.55c-8.6,18.93-23.84,36.13-34.22,36.77,16.13-16.17,15-34.48,7.79-52.08-2.09-9.37-5-18.43-1.65-29.79C203.51,109.49,210.92,126.82,226.26,127.08Z" transform="translate(0.32 0.11)"/><path class="cls-4" d="M273.4,121.74c-.36,6-5,20.8-9.66,24.43-5.18,1.56-8.29-9.75-10.72-13.34-4.86-5.71-5.47-16.85-5.47-16.85.22-3.78,1.13-15.82,3-17.24,1.27,6.14,4.28,11.05,11.17,13.19l0,0C262.13,116.92,265.55,121.68,273.4,121.74Z" transform="translate(0.32 0.11)"/><path class="cls-4" d="M341.11,107c-7.31-1.45-13.33-5.45-17.24-13.66,20.09,13.79,31.91,13.1,31.38-1.38C356.17,97.46,354.78,117.71,341.11,107Z" transform="translate(0.32 0.11)"/><path class="cls-4" d="M250.53,98.74c-5-2.31-9.58-2.79-13.67-1.27,9.33-6,11.62-14,20.88-25.92C252.27,78.79,249.2,87.46,250.53,98.74Z" transform="translate(0.32 0.11)"/></g><g id="Layer_9" data-name="Layer 9"><path class="cls-12" d="M491,321.38c0,5.59-4,10.75-10.67,14.85-9.36,5.76-24,9.46-40.52,9.46-21.32,0-39.6-6.19-47.3-15a14.12,14.12,0,0,1-3.89-9.31c0-8.95,10.19-16.78,25.36-21l.82-.22a98.18,98.18,0,0,1,25-3.09,103.88,103.88,0,0,1,16.24,1.25c2.28.36,4.49.79,6.61,1.3C479.46,303.6,491,311.85,491,321.38Z" transform="translate(0.32 0.11)"/><path class="cls-12" d="M526,384.5c.38,13.67-13.32,26.17-34.7,34.25-14.18,5.36-31.74,8.77-50.82,9.3-37,1-68.85-9.11-81.71-24.25-3.79-4.46-5.94-9.35-6.08-14.52-.39-14.47,15-27.63,38.53-35.62A139.54,139.54,0,0,1,408.75,349a174.79,174.79,0,0,1,29.42-3.26,177.47,177.47,0,0,1,23.78.91,152,152,0,0,1,16.45,2.65C506.26,355.4,525.53,368.64,526,384.5Z" transform="translate(0.32 0.11)"/><path class="cls-12" d="M536.8,476.29c0,11.73-8.85,22.47-23.54,30.81-18.62,10.58-46.64,17.29-78,17.26-44.39-.06-82.11-13.63-95.84-32.5a30.53,30.53,0,0,1-2.59-4.14,25.52,25.52,0,0,1-2.72-8.18,23.63,23.63,0,0,1-.26-3.47c0-12.69,10.38-24.24,27.31-32.82A130.4,130.4,0,0,1,390.09,433a197.62,197.62,0,0,1,45.3-5,204.9,204.9,0,0,1,34.44,2.88,163.56,163.56,0,0,1,23.89,5.94C519.79,445.58,536.81,460,536.8,476.29Z" transform="translate(0.32 0.11)"/><path class="cls-4" d="M513.26,507.1c-18.62,10.58-46.64,17.29-78,17.26-44.39-.06-82.11-13.63-95.84-32.5l-2.59-4.14a25.52,25.52,0,0,1-2.72-8.18C389.54,503,449.62,510.93,513.26,507.1Z" transform="translate(0.32 0.11)"/><path class="cls-4" d="M462,346.64a93,93,0,0,1-30.65,4.84A99.32,99.32,0,0,1,408.75,349a174.79,174.79,0,0,1,29.42-3.26A177.47,177.47,0,0,1,462,346.64Z" transform="translate(0.32 0.11)"/><path class="cls-4" d="M469.83,430.89A174.81,174.81,0,0,1,390.09,433a197.62,197.62,0,0,1,45.3-5A204.9,204.9,0,0,1,469.83,430.89Z" transform="translate(0.32 0.11)"/></g><g id="Layer_11" data-name="Layer 11"><rect class="cls-13" x="433.92" y="120.95" width="202.34" height="28.23" rx="14.11"/><rect class="cls-14" x="412.09" y="120.95" width="124.09" height="28.23" rx="14.11"/><text class="cls-15" transform="translate(423.57 141.39)">142</text></g><g id="Layer_10" data-name="Layer 10"><path class="cls-12" d="M474.63,283c0,3.72-2.94,7.11-7.77,9.68-5.61,3-13.78,4.88-22.87,4.88-15.36,0-28.07-5.37-30.3-12.37a7.47,7.47,0,0,1-.34-2.19c0-8,13.72-14.55,30.64-14.55S474.63,275,474.63,283Z" transform="translate(0.32 0.11)"/><path class="cls-4" d="M456.05,298.31l-.42.24c-5.61,3-13.78,4.88-22.87,4.88A55,55,0,0,1,414,300.37l.82-.22a98.18,98.18,0,0,1,25-3.09A103.88,103.88,0,0,1,456.05,298.31Z" transform="translate(0.32 0.11)"/><path class="cls-4" d="M466.86,292.67c-5.61,3-13.78,4.88-22.87,4.88-15.36,0-28.07-5.37-30.3-12.37C428.48,292.6,446.91,293.91,466.86,292.67Z" transform="translate(0.32 0.11)"/><path class="cls-4" d="M480.33,336.23c-9.36,5.76-24,9.46-40.52,9.46-21.32,0-39.6-6.19-47.3-15C424.55,339.57,454.6,343.41,480.33,336.23Z" transform="translate(0.32 0.11)"/><path class="cls-4" d="M491.26,418.75c-14.18,5.36-31.74,8.77-50.82,9.3-37,1-68.85-9.11-81.71-24.25C392.86,414.89,439.28,418.51,491.26,418.75Z" transform="translate(0.32 0.11)"/></g></svg>