<svg xmlns="http://www.w3.org/2000/svg" viewBox="0 0 737.01 566.93"><g id="b3df67f5-7430-45a3-8d82-da657d6198f2" data-name="Layer 6"><rect width="737.01" height="566.93" fill="#218536"/><ellipse cx="338.19" cy="414.98" rx="198.15" ry="92.69" fill="#76bd78"/></g><g id="b1d42893-ec44-415f-be5e-bf574d46bb53" data-name="Kühlschrank"><path d="M345.53,112.27V419.8A10.5,10.5,0,0,1,335,430.3h-157a10.3,10.3,0,0,1-4.33-.94,10.47,10.47,0,0,1-6.17-9.56c0-51.75,0-268.5,0-320.84a10.5,10.5,0,0,1,11.26-10.47l138.78,11.77,18.59,1.58A10.51,10.51,0,0,1,345.53,112.27Z" fill="#6e9ad1"/><path d="M175.55,88.54V429.17l-44.28.5a10.28,10.28,0,0,1-10.44-10.25V122.63a15,15,0,0,1,8.92-13.69Z" fill="#6e9ad1"/><path d="M345.53,112.27v.42S282,132.19,299,281.88c5,88.66,5.54,129.83,5.2,148.42H173.72v-313l95.08,9.28a34.53,34.53,0,0,0,15-.61c12.91-3.44,23.51-14.06,33.8-25.66l18.59,1.58A10.51,10.51,0,0,1,345.53,112.27Z" opacity="0.37"/><path d="M283.79,143.78V420.71a9,9,0,0,1-9,9H182.69a9,9,0,0,1-9-9V124.64l102,10.22A9,9,0,0,1,283.79,143.78Z" fill="#3a6cb3"/><polygon points="174.3 174.96 335.16 180.89 284.09 194.37 173.27 190.44 174.3 174.96" fill="#5a77a1"/><path d="M461.26,78.06v353.4a10.76,10.76,0,0,1-12,10.68l-94.21-10.75a10.76,10.76,0,0,1-9.54-10.68V110.32a10.77,10.77,0,0,1,7.27-10.18L447,67.88A10.76,10.76,0,0,1,461.26,78.06Z" fill="#6e9ad1"/><polygon points="263.48 361.52 254.29 367.31 246.8 422.46 267.91 422.46 263.48 361.52" fill="#5a77a1"/><polygon points="263.48 423.78 263.48 361.52 332.25 361.18 332.25 422.12 263.48 423.78" fill="#6f91cb"/><polygon points="335.31 174.63 335.16 180.89 175.99 174.63 175.65 170.2 335.31 174.63" fill="#6887ab"/><polygon points="175.99 259.74 335.99 261.1 284.59 270.63 176.33 269.61 175.99 259.74" fill="#5a77a1"/><path d="M183.31,422.29H167.85a10.23,10.23,0,0,1-.3-2.49V382.9l2.14-15.76,6-3.8,3.16-2Z" fill="#5a77a1"/><polygon points="175.99 252.93 175.99 259.74 335.99 261.1 335.99 255.31 175.99 252.93" fill="#6887ab"/><polygon points="176.33 353.01 336.33 351.99 336.33 345.86 175.99 348.93 176.33 353.01" fill="#6887ab"/><polygon points="284.25 359.48 336.33 351.99 176.33 353.01 176.33 358.8 284.25 359.48" fill="#5a77a1"/><polyline points="254.29 422.46 254.29 361.18 178.71 361.18 178.71 423.78" fill="#6f91cb"/><path d="M199.82,372.08H227.4s-7.49,10.55-15.66,9.53S199.82,372.08,199.82,372.08Z" fill="#5a77a1"/><path d="M314.2,374.63s-7.49,10.55-15.66,9.53-11.91-9.53-11.91-9.53" fill="#5a77a1"/><path d="M175.55,405.39v23.78l-44.28.5a10.28,10.28,0,0,1-10.44-10.25V252.34c16.62,80.28,20.06,153.09,50.18,131.42Z" opacity="0.37"/><path d="M461.26,391.42v40a10.76,10.76,0,0,1-12,10.68l-94.21-10.75a10.76,10.76,0,0,1-9.54-10.68V256.55C366,336.36,378.75,381,402.45,396.34,424.07,406.84,443.18,402.22,461.26,391.42Z" opacity="0.37"/><path d="M336,101.82,178.81,88.49A10.5,10.5,0,0,0,167.55,99c0,43.83,0,203,0,283.94v36.9a10.23,10.23,0,0,0,.3,2.49,10.5,10.5,0,0,0,10.2,8H335a10.5,10.5,0,0,0,10.5-10.5V112.27A10.51,10.51,0,0,0,336,101.82Zm-1.23,320.94H177.61a1.81,1.81,0,0,1-1.23-.47,1.85,1.85,0,0,1-.66-1.42v-323a1.88,1.88,0,0,1,2-1.88l156,11.78a1.87,1.87,0,0,1,1.74,1.87l1.2,311.27A1.89,1.89,0,0,1,334.81,422.76Z" fill="#9ec9ed"/></g><g id="b770c6ac-a1b6-49bc-abb3-6f092e6b9d0c" data-name="milch"><rect x="186.29" y="275.31" width="7.15" height="6.64" fill="#fff"/><polygon points="179.74 279.11 179.74 348.84 199.14 348.84 199.14 278.78 179.74 279.11" fill="#bcbcbb"/><path d="M189.14,319.57c-1.12.06-2.48.13-3.49.12v0c.95.28,2,.62,3.07,1l3.93,1.44v.8l-3.85,1.32c-1.14.39-2.19.71-3.15.94v0c1,0,2.37.08,3.58.15l3.46.22v1l-8.08-.57v-1.34l3.91-1.4c1-.34,1.88-.61,2.72-.82v0a27.36,27.36,0,0,1-2.72-.86l-3.91-1.45v-1.34l8.08-.51v1Z" fill="#1d1d1b"/><path d="M185.26,315.41a.66.66,0,0,1,0,1.32.65.65,0,0,1-.66-.66A.64.64,0,0,1,185.26,315.41Zm7.43,1.19h-5.8v-1.07h5.8Z" fill="#1d1d1b"/><path d="M184.18,313.77V312.7h8.51v1.07Z" fill="#1d1d1b"/><path d="M192.48,306.74a4,4,0,0,1,.33,1.68,2.76,2.76,0,0,1-3,2.91,3,3,0,0,1-3.08-3.14,3.5,3.5,0,0,1,.3-1.48l.81.25a2.51,2.51,0,0,0-.27,1.23,2,2,0,0,0,2.19,2.07,2,2,0,0,0,2.17-2,3.08,3.08,0,0,0-.28-1.31Z" fill="#1d1d1b"/><path d="M184.18,305.49v-1.07h3.62v0a2,2,0,0,1-.74-.76,2.22,2.22,0,0,1-.3-1.09c0-.79.48-2.05,2.48-2.05h3.45v1.07h-3.33c-.94,0-1.73.35-1.73,1.35a1.53,1.53,0,0,0,1.06,1.43,1.26,1.26,0,0,0,.5.07h3.5v1.07Z" fill="#1d1d1b"/><polygon points="179.74 279.11 175.69 283.65 175.57 348.67 179.74 348.84 179.74 279.11" fill="#8d8e8d"/></g><g id="a59b2b06-33ad-4a5b-aed1-28854d2c4479" data-name="ei"><path d="M255,240.76a12.16,12.16,0,0,1-4.05,9.4A7.64,7.64,0,0,1,246,252c-4.93,0-8.93-5-8.93-11.23a14,14,0,0,1,.56-3.93c1.27-4.27,4.54-7.31,8.37-7.31C251,229.52,255,234.55,255,240.76Z" fill="#e5ab4b"/><path d="M250.92,250.16A7.64,7.64,0,0,1,246,252c-4.93,0-8.93-5-8.93-11.23a14,14,0,0,1,.56-3.93C236.76,241.86,243.74,252.59,250.92,250.16Z" opacity="0.37"/></g><g id="a756eeb4-7c4e-4e78-94ef-31a0694a7194" data-name="tomate"><path d="M256.28,162.71c0,4.62-4.19,8.47-9.69,9.21a14,14,0,0,1-2,.14c-6.44,0-11.66-4.19-11.66-9.35s5.22-9.36,11.66-9.36a13.49,13.49,0,0,1,7.29,2.06A8.81,8.81,0,0,1,256.28,162.71Z" fill="#e02727"/><path d="M247.68,155.82c0,1.62,1.58,3,0,5.19-2.4.38-4.73.65-6-.76-1.36-.86,1.23-4.13.34-4.43-1.76,0-3.4.26-4.3,2.43a13.07,13.07,0,0,0,.13,7.14c.68,2.18,4.11,4.36,8.77,6.53a14,14,0,0,1-2,.14c-6.44,0-11.66-4.19-11.66-9.35s5.22-9.36,11.66-9.36a13.49,13.49,0,0,1,7.29,2.06C249.43,155.07,247.68,155.06,247.68,155.82Z" opacity="0.37"/><path d="M245.16,158.7a1.36,1.36,0,0,1-1.79-.64c0-7.61,4.82-9.8,11.3-10.15l-.18.88C248.66,150.35,244.77,153.16,245.16,158.7Z" fill="#56b038"/><path d="M245.63,158.56a1,1,0,0,1-1.4-.1c1.77-3.5-.14-6.46-3.73-9.15l.12-.62C245,150.78,247.72,153.6,245.63,158.56Z" fill="#56b038"/><path d="M251.45,152.57l-.14.45c-3.77.58-6.34,1.89-6.28,4.81-.5.08-.91,0-1.12-.41C244.14,153.44,247.3,152.49,251.45,152.57Z" fill="#56b038"/></g><g id="b8e8375f-c794-4300-a3c8-c20a215363cb" data-name="Layer 7"><path d="M479.92,194.64q0-11,2.66-17.46t9.74-12.8q7.08-6.31,9.42-10.26a16.07,16.07,0,0,0,2.35-8.35q0-13.23-12.2-13.24a12.35,12.35,0,0,0-9.27,3.57q-3.48,3.57-3.64,9.84H456.3q.15-15,9.66-23.41t25.93-8.46q16.58,0,25.73,8t9.15,22.66a27.62,27.62,0,0,1-3,12.57q-3,5.91-10.4,13.11l-6.34,6a21.46,21.46,0,0,0-6.8,13.39l-.32,4.78Zm-2.27,24a11.41,11.41,0,0,1,3.56-8.62,13.95,13.95,0,0,1,18.23,0,12.18,12.18,0,0,1,.07,17.12,14.28,14.28,0,0,1-18.38,0A11.31,11.31,0,0,1,477.65,218.61Z" fill="#3d3d3d"/><path d="M471.76,186.47q0-11,2.66-17.46t9.74-12.8q7.08-6.3,9.42-10.25a16.07,16.07,0,0,0,2.35-8.35q0-13.25-12.2-13.24a12.35,12.35,0,0,0-9.27,3.57c-2.32,2.38-3.54,5.65-3.64,9.84H448.14q.15-15,9.66-23.41t25.93-8.46q16.57,0,25.73,8t9.15,22.66a27.62,27.62,0,0,1-3,12.57q-3,5.91-10.4,13.11l-6.34,6a21.53,21.53,0,0,0-6.81,13.39l-.31,4.77Zm-2.27,24a11.39,11.39,0,0,1,3.56-8.62,13.94,13.94,0,0,1,18.22,0,12.16,12.16,0,0,1,.08,17.11,14.25,14.25,0,0,1-18.38,0A11.27,11.27,0,0,1,469.49,210.45Z" fill="#8a2d88"/></g></svg>